SplineFontDB: 3.2
FontName: NugoSans-Light-P1800
FullName: Nugo Sans Light P1800
FamilyName: Nugo Sans
Weight: Light
Copyright: Copyright (c) 2020, Sandylukee
Version: 001.001
ItalicAngle: 0
UnderlinePosition: -100
UnderlineWidth: 50
Ascent: 800
Descent: 200
InvalidEm: 0
sfntRevision: 0x00010041
LayerCount: 2
Layer: 0 1 "Back" 1
Layer: 1 1 "Fore" 0
XUID: [1021 390 1611415937 5096388]
StyleMap: 0x0000
FSType: 0
OS2Version: 4
OS2_WeightWidthSlopeOnly: 0
OS2_UseTypoMetrics: 1
CreationTime: 1587825708
ModificationTime: 1652409229
PfmFamily: 17
TTFWeight: 200
TTFWidth: 5
LineGap: 90
VLineGap: 0
Panose: 2 0 3 3 0 0 0 0 0 0
OS2TypoAscent: 800
OS2TypoAOffset: 0
OS2TypoDescent: -200
OS2TypoDOffset: 0
OS2TypoLinegap: 90
OS2WinAscent: 1027
OS2WinAOffset: 0
OS2WinDescent: 351
OS2WinDOffset: 0
HheadAscent: 1027
HheadAOffset: 0
HheadDescent: -351
HheadDOffset: 0
OS2SubXSize: 650
OS2SubYSize: 699
OS2SubXOff: 0
OS2SubYOff: 140
OS2SupXSize: 650
OS2SupYSize: 699
OS2SupXOff: 0
OS2SupYOff: 479
OS2StrikeYSize: 49
OS2StrikeYPos: 258
OS2CapHeight: 839
OS2XHeight: 568
OS2Vendor: 'PfEd'
OS2CodePages: 00000001.00000000
OS2UnicodeRanges: 00000007.00000002.00000000.00000000
Lookup: 258 0 0 "'kern' Horizontal Kerning in Latin lookup 0" { "'kern' Horizontal Kerning in Latin lookup 0 subtable"  } ['kern' ('DFLT' <'dflt' > 'latn' <'dflt' > ) ]
MarkAttachClasses: 1
DEI: 91125
KernClass2: 12 13 "'kern' Horizontal Kerning in Latin lookup 0 subtable"
 50 A Agrave Aacute Acircumflex Atilde Adieresis Aring
 1 F
 1 K
 1 L
 1 P
 1 T
 1 V
 1 W
 1 X
 18 Y Ydieresis Yacute
 0 
 53 A Agrave Aacute Acircumflex Atilde Adieresis Aring AE
 1 J
 1 T
 1 V
 1 W
 1 X
 18 Y Ydieresis Yacute
 53 a agrave aacute acircumflex atilde adieresis aring ae
 112 c d e g o q s ccedilla egrave eacute ecircumflex edieresis eth ograve oacute ocircumflex otilde odieresis oslash
 39 i j igrave iacute icircumflex idieresis
 58 m n p r u ntilde ugrave uacute ucircumflex udieresis thorn
 0 

StartChar: .notdef
Encoding: 65536 -1 0
Width: 364
Flags: W
LayerCount: 2
Fore
SplineSet
33 0 m 1,0,-1
 33 666 l 1,1,-1
 298 666 l 1,2,-1
 298 0 l 1,3,-1
 33 0 l 1,0,-1
66 33 m 1,4,-1
 265 33 l 1,5,-1
 265 633 l 1,6,-1
 66 633 l 1,7,-1
 66 33 l 1,4,-1
EndSplineSet
EndChar

StartChar: exclam
Encoding: 33 33 4
Width: 219
Flags: W
LayerCount: 2
Fore
SplineSet
95 839 m 1,0,-1
 125 839 l 1,1,-1
 125 170 l 1,2,-1
 95 170 l 1,3,-1
 95 839 l 1,0,-1
110 51 m 128,-1,5
 127 51 127 51 134 40 c 0,6,7
 140 31 140 31 140 20 c 128,-1,8
 140 9 140 9 134 0 c 0,9,10
 127 -11 127 -11 110 -11 c 128,-1,11
 93 -11 93 -11 86 0 c 0,12,13
 80 9 80 9 80 20 c 128,-1,14
 80 31 80 31 86 40 c 0,15,4
 93 51 93 51 110 51 c 128,-1,5
EndSplineSet
EndChar

StartChar: quotedbl
Encoding: 34 34 5
Width: 309
Flags: W
LayerCount: 2
Fore
SplineSet
80 733 m 1,0,-1
 124 733 l 1,1,-1
 114 543 l 1,2,-1
 89 543 l 1,3,-1
 80 733 l 1,0,-1
186 733 m 1,4,-1
 230 733 l 1,5,-1
 220 543 l 1,6,-1
 195 543 l 1,7,-1
 186 733 l 1,4,-1
EndSplineSet
EndChar

StartChar: numbersign
Encoding: 35 35 6
Width: 732
Flags: W
LayerCount: 2
Fore
SplineSet
286 872 m 1,0,-1
 316 868 l 1,1,-1
 275 583 l 1,2,-1
 505 583 l 1,3,-1
 547 872 l 1,4,-1
 576 868 l 1,5,-1
 536 583 l 1,6,-1
 653 583 l 1,7,-1
 653 553 l 1,8,-1
 531 553 l 1,9,-1
 488 246 l 1,10,-1
 605 246 l 1,11,-1
 605 216 l 1,12,-1
 483 216 l 1,13,-1
 446 -45 l 1,14,-1
 416 -40 l 1,15,-1
 453 216 l 1,16,-1
 223 216 l 1,17,-1
 186 -45 l 1,18,-1
 156 -40 l 1,19,-1
 193 216 l 1,20,-1
 80 216 l 1,21,-1
 80 246 l 1,22,-1
 197 246 l 1,23,-1
 241 553 l 1,24,-1
 128 553 l 1,25,-1
 128 583 l 1,26,-1
 245 583 l 1,27,-1
 286 872 l 1,0,-1
271 553 m 1,28,-1
 227 246 l 1,29,-1
 457 246 l 1,30,-1
 501 553 l 1,31,-1
 271 553 l 1,28,-1
EndSplineSet
EndChar

StartChar: dollar
Encoding: 36 36 7
Width: 630
Flags: W
LayerCount: 2
Fore
SplineSet
300 930 m 1,0,-1
 330 930 l 1,1,-1
 330 851 l 1,2,3
 330 851 330 851 335 851 c 0,4,5
 395 851 395 851 445.5 830 c 128,-1,6
 496 809 496 809 524 773 c 1,7,-1
 500 754 l 1,8,9
 477 783 477 783 432 802 c 128,-1,10
 387 821 387 821 335 821 c 2,11,-1
 330 821 l 1,12,-1
 330 457 l 2,13,14
 330 456 330 456 332 456 c 128,-1,15
 334 456 334 456 335 455 c 0,16,17
 439 401 439 401 481 361 c 0,18,19
 551 294 551 294 551 201 c 0,20,21
 551 118 551 118 489.5 55.5 c 128,-1,22
 428 -7 428 -7 330 -11 c 1,23,-1
 330 -91 l 1,24,-1
 300 -91 l 1,25,-1
 300 -11 l 1,26,27
 150 -6 150 -6 80 79 c 1,28,-1
 103 98 l 1,29,30
 133 62 133 62 175 42 c 128,-1,31
 217 22 217 22 300 19 c 1,32,-1
 300 439 l 1,33,34
 212 484 212 484 175 516 c 0,35,36
 105 577 105 577 105 661 c 0,37,38
 105 751 105 751 175 803 c 0,39,40
 225 841 225 841 300 849 c 1,41,-1
 300 930 l 1,0,-1
300 819 m 1,42,43
 236 811 236 811 193 779 c 0,44,45
 135 736 135 736 135 661 c 0,46,47
 135 591 135 591 195 539 c 0,48,49
 230 509 230 509 300 472 c 1,50,-1
 300 819 l 1,42,43
330 423 m 1,51,-1
 330 19 l 1,52,53
 417 23 417 23 469 76.5 c 128,-1,54
 521 130 521 130 521 201 c 0,55,56
 521 282 521 282 461 339 c 0,57,58
 421 376 421 376 330 423 c 1,51,-1
EndSplineSet
EndChar

StartChar: percent
Encoding: 37 37 8
Width: 772
Flags: W
LayerCount: 2
Fore
SplineSet
599 877 m 1,0,-1
 626 864 l 1,1,-1
 187 -49 l 1,2,-1
 160 -36 l 1,3,-1
 599 877 l 1,0,-1
205 851 m 0,4,5
 274 851 274 851 307 775 c 0,6,7
 329 725 329 725 329 646 c 0,8,9
 329 566 329 566 307 516 c 0,10,11
 274 441 274 441 205 441 c 0,12,13
 135 441 135 441 102 516 c 0,14,15
 80 566 80 566 80 646 c 0,16,17
 80 725 80 725 102 775 c 0,18,19
 135 851 135 851 205 851 c 0,4,5
205 821 m 0,20,21
 155 821 155 821 130 763 c 0,22,23
 110 716 110 716 110 646 c 0,24,25
 110 575 110 575 130 528 c 0,26,27
 154 471 154 471 205 471 c 0,28,29
 255 471 255 471 279 528 c 0,30,31
 299 575 299 575 299 646 c 0,32,33
 299 716 299 716 279 763 c 0,34,35
 254 821 254 821 205 821 c 0,20,21
567 399 m 0,36,37
 637 399 637 399 670 323 c 0,38,39
 692 273 692 273 692 194 c 0,40,41
 692 114 692 114 670 64 c 0,42,43
 637 -11 637 -11 567 -11 c 0,44,45
 498 -11 498 -11 465 64 c 0,46,47
 443 114 443 114 443 194 c 0,48,49
 443 273 443 273 465 323 c 0,50,51
 498 399 498 399 567 399 c 0,36,37
567 369 m 0,52,53
 518 369 518 369 493 311 c 0,54,55
 473 264 473 264 473 194 c 0,56,57
 473 123 473 123 493 76 c 0,58,59
 517 19 517 19 567 19 c 0,60,61
 618 19 618 19 642 76 c 0,62,63
 662 123 662 123 662 194 c 0,64,65
 662 264 662 264 642 311 c 0,66,67
 617 369 617 369 567 369 c 0,52,53
EndSplineSet
EndChar

StartChar: ampersand
Encoding: 38 38 9
Width: 847
Flags: W
LayerCount: 2
Fore
SplineSet
326 851 m 0,0,1
 405 851 405 851 453 809 c 0,2,3
 500 768 500 768 500 703 c 0,4,5
 500 622 500 622 435 550 c 0,6,7
 398 509 398 509 324 454 c 1,8,9
 326 452 326 452 330 447 c 128,-1,10
 334 442 334 442 336 440 c 0,11,12
 405 359 405 359 529 234 c 2,13,-1
 603 160 l 1,14,15
 616 177 616 177 629 195 c 128,-1,16
 642 213 642 213 655.5 235 c 128,-1,17
 669 257 669 257 677 270.5 c 128,-1,18
 685 284 685 284 700 311 c 128,-1,19
 715 338 715 338 720 346 c 1,20,-1
 754 346 l 1,21,22
 746 332 746 332 727 298.5 c 128,-1,23
 708 265 708 265 695.5 243.5 c 128,-1,24
 683 222 683 222 663 192.5 c 128,-1,25
 643 163 643 163 624 139 c 1,26,27
 712 51 712 51 768 -1 c 1,28,-1
 725 -1 l 1,29,30
 665 55 665 55 604 116 c 1,31,32
 487 -12 487 -12 326 -12 c 0,33,34
 207 -12 207 -12 140 47 c 0,35,36
 80 100 80 100 80 181 c 0,37,38
 80 267 80 267 145 342 c 0,39,40
 185 389 185 389 281 459 c 1,41,42
 213 541 213 541 193 584 c 0,43,44
 167 639 167 639 167 693 c 0,45,46
 167 728 167 728 180 762 c 0,47,48
 196 803 196 803 234 827 c 128,-1,49
 272 851 272 851 326 851 c 0,0,1
326 821 m 0,50,51
 236 821 236 821 208 751 c 0,52,53
 198 727 198 727 198 695 c 0,54,55
 198 648 198 648 221 597 c 0,56,57
 238 559 238 559 305 477 c 1,58,59
 382 535 382 535 413 570 c 0,60,61
 470 634 470 634 470 703 c 0,62,63
 470 754 470 754 434 786 c 0,64,65
 394 821 394 821 326 821 c 0,50,51
300 437 m 1,66,-1
 299 436 l 1,67,68
 204 366 204 366 167 323 c 0,69,70
 110 256 110 256 110 181 c 0,71,72
 110 114 110 114 160 70 c 0,73,74
 219 18 219 18 326 18 c 0,75,76
 474 18 474 18 583 137 c 1,77,78
 571 149 571 149 546 174.5 c 128,-1,79
 521 200 521 200 508 213 c 0,80,81
 378 347 378 347 314 421 c 0,82,83
 308 427 308 427 300 437 c 1,66,-1
EndSplineSet
EndChar

StartChar: quotesingle
Encoding: 39 39 10
Width: 203
Flags: W
LayerCount: 2
Fore
SplineSet
80 733 m 1,0,-1
 124 733 l 1,1,-1
 114 543 l 1,2,-1
 89 543 l 1,3,-1
 80 733 l 1,0,-1
EndSplineSet
EndChar

StartChar: parenleft
Encoding: 40 40 11
Width: 392
Flags: W
LayerCount: 2
Fore
SplineSet
342 849 m 1,0,-1
 342 819 l 1,1,2
 276 819 276 819 229 770 c 0,3,4
 186 726 186 726 157 641 c 0,5,6
 110 504 110 504 110 295 c 0,7,8
 110 85 110 85 157 -52 c 0,9,10
 186 -135 186 -135 229 -180 c 0,11,12
 277 -230 277 -230 342 -230 c 1,13,-1
 342 -260 l 1,14,15
 264 -260 264 -260 207 -201 c 0,16,17
 159 -152 159 -152 128 -61 c 0,18,19
 80 82 80 82 80 295 c 128,-1,20
 80 508 80 508 128 651 c 0,21,22
 159 742 159 742 207 791 c 0,23,24
 263 849 263 849 342 849 c 1,0,-1
EndSplineSet
EndChar

StartChar: parenright
Encoding: 41 41 12
Width: 392
Flags: W
LayerCount: 2
Fore
SplineSet
50 849 m 1,0,1
 129 849 129 849 185 791 c 0,2,3
 233 742 233 742 264 651 c 0,4,5
 312 508 312 508 312 295 c 128,-1,6
 312 82 312 82 264 -61 c 0,7,8
 233 -152 233 -152 185 -201 c 0,9,10
 128 -260 128 -260 50 -260 c 1,11,-1
 50 -230 l 1,12,13
 115 -230 115 -230 163 -180 c 0,14,15
 206 -135 206 -135 235 -52 c 0,16,17
 282 85 282 85 282 295 c 0,18,19
 282 504 282 504 235 641 c 0,20,21
 206 726 206 726 163 770 c 0,22,23
 116 819 116 819 50 819 c 1,24,-1
 50 849 l 1,0,1
EndSplineSet
EndChar

StartChar: asterisk
Encoding: 42 42 13
Width: 465
Flags: W
LayerCount: 2
Fore
SplineSet
218 911 m 1,0,-1
 248 911 l 1,1,-1
 242 769 l 1,2,-1
 376 818 l 1,3,-1
 385 789 l 1,4,-1
 248 750 l 1,5,-1
 336 638 l 1,6,-1
 312 621 l 1,7,-1
 233 739 l 1,8,-1
 153 621 l 1,9,-1
 129 638 l 1,10,-1
 217 750 l 1,11,-1
 80 789 l 1,12,-1
 89 818 l 1,13,-1
 223 769 l 1,14,-1
 218 911 l 1,0,-1
EndSplineSet
EndChar

StartChar: plus
Encoding: 43 43 14
Width: 701
Flags: W
LayerCount: 2
Fore
SplineSet
336 629 m 1,0,-1
 366 629 l 1,1,-1
 366 373 l 1,2,-1
 622 373 l 1,3,-1
 622 343 l 1,4,-1
 366 343 l 1,5,-1
 366 87 l 1,6,-1
 336 87 l 1,7,-1
 336 343 l 1,8,-1
 80 343 l 1,9,-1
 80 373 l 1,10,-1
 336 373 l 1,11,-1
 336 629 l 1,0,-1
EndSplineSet
EndChar

StartChar: comma
Encoding: 44 44 15
Width: 235
Flags: W
LayerCount: 2
Fore
SplineSet
112 46 m 1,0,-1
 156 46 l 1,1,-1
 104 -144 l 1,2,-1
 80 -144 l 1,3,-1
 112 46 l 1,0,-1
EndSplineSet
EndChar

StartChar: hyphen
Encoding: 45 45 16
Width: 504
Flags: W
LayerCount: 2
Fore
SplineSet
80 299 m 1,0,-1
 424 299 l 1,1,-1
 424 269 l 1,2,-1
 80 269 l 1,3,-1
 80 299 l 1,0,-1
EndSplineSet
EndChar

StartChar: period
Encoding: 46 46 17
Width: 219
Flags: W
LayerCount: 2
Fore
SplineSet
110 51 m 128,-1,1
 127 51 127 51 134 40 c 0,2,3
 140 31 140 31 140 20 c 128,-1,4
 140 9 140 9 134 0 c 0,5,6
 127 -11 127 -11 110 -11 c 128,-1,7
 93 -11 93 -11 86 0 c 0,8,9
 80 9 80 9 80 20 c 128,-1,10
 80 31 80 31 86 40 c 0,11,0
 93 51 93 51 110 51 c 128,-1,1
EndSplineSet
EndChar

StartChar: slash
Encoding: 47 47 18
Width: 551
Flags: W
LayerCount: 2
Fore
SplineSet
440 878 m 1,0,-1
 472 878 l 1,1,-1
 112 -130 l 1,2,-1
 80 -130 l 1,3,-1
 440 878 l 1,0,-1
EndSplineSet
EndChar

StartChar: zero
Encoding: 48 48 19
Width: 644
Flags: W
LayerCount: 2
Fore
SplineSet
322 851 m 128,-1,1
 398 851 398 851 451.5 808.5 c 128,-1,2
 505 766 505 766 536 696 c 0,3,4
 585 585 585 585 585 419 c 128,-1,5
 585 253 585 253 536 142 c 0,6,7
 468 -12 468 -12 322 -12 c 0,8,9
 177 -12 177 -12 109 142 c 0,10,11
 60 253 60 253 60 419 c 128,-1,12
 60 585 60 585 109 696 c 0,13,14
 140 766 140 766 193 808.5 c 128,-1,0
 246 851 246 851 322 851 c 128,-1,1
322 821 m 0,15,16
 197 821 197 821 137 684 c 0,17,18
 90 577 90 577 90 419 c 0,19,20
 90 262 90 262 137 155 c 0,21,22
 197 18 197 18 322 18 c 0,23,24
 448 18 448 18 508 155 c 0,25,26
 555 262 555 262 555 419 c 0,27,28
 555 577 555 577 508 684 c 0,29,30
 448 821 448 821 322 821 c 0,15,16
EndSplineSet
EndChar

StartChar: one
Encoding: 49 49 20
Width: 396
Flags: W
LayerCount: 2
Fore
SplineSet
227 839 m 1,4,-1
 257 839 l 1,1,-1
 257 0 l 1,2,-1
 227 0 l 1,3,-1
 227 839 l 1,4,-1
EndSplineSet
EndChar

StartChar: two
Encoding: 50 50 21
Width: 604
Flags: W
LayerCount: 2
Fore
SplineSet
303 851 m 0,0,1
 420 851 420 851 478 776 c 0,2,3
 520 721 520 721 520 640 c 0,4,5
 520 544 520 544 451 470 c 0,6,7
 442 461 442 461 433 452 c 128,-1,8
 424 443 424 443 413 434 c 128,-1,9
 402 425 402 425 393.5 418 c 128,-1,10
 385 411 385 411 371 401 c 128,-1,11
 357 391 357 391 350.5 385.5 c 128,-1,12
 344 380 344 380 327.5 368.5 c 128,-1,13
 311 357 311 357 305 353 c 0,14,15
 258 320 258 320 229 294.5 c 128,-1,16
 200 269 200 269 166.5 229.5 c 128,-1,17
 133 190 133 190 114.5 140.5 c 128,-1,18
 96 91 96 91 91 30 c 1,19,-1
 545 30 l 1,20,-1
 545 0 l 1,21,-1
 60 0 l 1,22,-1
 60 16 l 2,23,24
 63 85 63 85 82.5 141.5 c 128,-1,25
 102 198 102 198 138 242 c 128,-1,26
 174 286 174 286 206.5 314.5 c 128,-1,27
 239 343 239 343 287 378 c 0,28,29
 295 384 295 384 317.5 400 c 128,-1,30
 340 416 340 416 350 423.5 c 128,-1,31
 360 431 360 431 377 443.5 c 128,-1,32
 394 456 394 456 406 467.5 c 128,-1,33
 418 479 418 479 429 490 c 0,34,35
 490 556 490 556 490 640 c 0,36,37
 490 711 490 711 454 758 c 0,38,39
 405 821 405 821 303 821 c 0,40,41
 200 821 200 821 151 758 c 0,42,43
 115 711 115 711 115 640 c 1,44,-1
 85 640 l 1,45,46
 85 721 85 721 127 776 c 0,47,48
 185 851 185 851 303 851 c 0,0,1
EndSplineSet
EndChar

StartChar: three
Encoding: 51 51 22
Width: 612
Flags: W
LayerCount: 2
Fore
SplineSet
306 851 m 0,0,1
 424 851 424 851 482 776 c 0,2,3
 524 721 524 721 524 640 c 0,4,5
 524 558 524 558 482 503 c 0,6,7
 454 466 454 466 400 448 c 1,8,9
 470 429 470 429 505 381 c 0,10,11
 553 319 553 319 553 226 c 0,12,13
 553 134 553 134 505 72 c 0,14,15
 440 -12 440 -12 306 -12 c 0,16,17
 173 -12 173 -12 108 72 c 0,18,19
 60 134 60 134 60 226 c 1,20,-1
 90 226 l 1,21,22
 90 146 90 146 132 90 c 0,23,24
 186 18 186 18 306 18 c 0,25,26
 427 18 427 18 481 90 c 0,27,28
 523 146 523 146 523 226 c 128,-1,29
 523 306 523 306 481 362 c 0,30,31
 427 434 427 434 306 434 c 1,32,-1
 306 459 l 1,33,34
 409 459 409 459 458 522 c 0,35,36
 494 569 494 569 494 640 c 128,-1,37
 494 711 494 711 458 758 c 0,38,39
 409 821 409 821 306 821 c 0,40,41
 204 821 204 821 155 758 c 0,42,43
 118 710 118 710 118 640 c 1,44,-1
 88 640 l 1,45,46
 88 720 88 720 131 776 c 0,47,48
 189 851 189 851 306 851 c 0,0,1
EndSplineSet
EndChar

StartChar: four
Encoding: 52 52 23
Width: 669
Flags: W
LayerCount: 2
Fore
SplineSet
60 197 m 9,0,-1
 458 839 l 1,1,-1
 488 839 l 1,2,-1
 488 197 l 1,3,-1
 609 197 l 1,4,-1
 609 167 l 1,5,-1
 488 167 l 1,6,-1
 488 0 l 1,7,-1
 458 0 l 1,8,-1
 458 167 l 1,9,-1
 60 167 l 1,10,-1
 60 197 l 9,0,-1
458 763 m 1,11,-1
 98 197 l 1,12,-1
 458 197 l 1,13,-1
 458 763 l 1,11,-1
EndSplineSet
EndChar

StartChar: five
Encoding: 53 53 24
Width: 588
Flags: W
LayerCount: 2
Fore
SplineSet
127 839 m 1,0,-1
 501 839 l 1,1,-1
 501 809 l 1,2,-1
 153 809 l 1,3,-1
 109 433 l 1,4,5
 173 523 173 523 297 523 c 0,6,7
 425 523 425 523 485 428 c 0,8,9
 529 358 529 358 529 256 c 0,10,11
 529 153 529 153 485 83 c 0,12,13
 425 -12 425 -12 297 -12 c 0,14,15
 206 -12 206 -12 143.5 33.5 c 128,-1,16
 81 79 81 79 60 147 c 1,17,-1
 89 156 l 1,18,19
 107 98 107 98 161 58 c 128,-1,20
 215 18 215 18 297 18 c 0,21,22
 407 18 407 18 459 99 c 0,23,24
 499 162 499 162 499 256 c 0,25,26
 499 349 499 349 459 412 c 0,27,28
 407 493 407 493 297 493 c 0,29,30
 217 493 217 493 168.5 457 c 128,-1,31
 120 421 120 421 101 364 c 1,32,-1
 71 367 l 1,33,-1
 127 839 l 1,0,-1
EndSplineSet
EndChar

StartChar: six
Encoding: 54 54 25
Width: 584
Flags: W
LayerCount: 2
Fore
SplineSet
340 849 m 2,0,1
 402 849 402 849 472 819 c 1,2,-1
 460 791 l 1,3,4
 392 819 392 819 341 819 c 0,5,6
 309 819 309 819 279 808 c 0,7,8
 210 782 210 782 167 698 c 0,9,10
 111 592 111 592 96 401 c 1,11,12
 100 410 100 410 110 428 c 0,13,14
 170 523 170 523 292 523 c 0,15,16
 420 523 420 523 480 428 c 0,17,18
 524 358 524 358 524 256 c 0,19,20
 524 153 524 153 480 83 c 0,21,22
 420 -12 420 -12 292 -12 c 128,-1,23
 164 -12 164 -12 104 83 c 0,24,25
 60 153 60 153 60 256 c 0,26,27
 60 559 60 559 140 712 c 0,28,29
 191 807 191 807 268 836 c 0,30,31
 298 847 298 847 336 849 c 2,32,-1
 340 849 l 2,0,1
292 493 m 0,33,34
 182 493 182 493 130 412 c 0,35,36
 90 349 90 349 90 256 c 0,37,38
 90 162 90 162 130 99 c 0,39,40
 182 18 182 18 292 18 c 0,41,42
 403 18 403 18 455 99 c 0,43,44
 494 160 494 160 494 256 c 0,45,46
 494 351 494 351 455 412 c 0,47,48
 403 493 403 493 292 493 c 0,33,34
EndSplineSet
EndChar

StartChar: seven
Encoding: 55 55 26
Width: 588
Flags: W
LayerCount: 2
Fore
SplineSet
60 839 m 1,0,-1
 528 839 l 1,1,-1
 528 809 l 1,2,3
 286 513 286 513 224 0 c 1,4,-1
 194 0 l 1,5,6
 220 222 220 222 295.5 435.5 c 128,-1,7
 371 649 371 649 494 809 c 1,8,-1
 60 809 l 1,9,-1
 60 839 l 1,0,-1
EndSplineSet
EndChar

StartChar: eight
Encoding: 56 56 27
Width: 612
Flags: W
LayerCount: 2
Fore
SplineSet
306 434 m 0,0,1
 186 434 186 434 132 362 c 0,2,3
 90 306 90 306 90 226 c 128,-1,4
 90 146 90 146 132 90 c 0,5,6
 186 18 186 18 306 18 c 0,7,8
 427 18 427 18 481 90 c 0,9,10
 523 146 523 146 523 226 c 128,-1,11
 523 306 523 306 481 362 c 0,12,13
 427 434 427 434 306 434 c 0,0,1
306 851 m 0,14,15
 424 851 424 851 482 776 c 0,16,17
 524 721 524 721 524 640 c 0,18,19
 524 558 524 558 482 503 c 0,20,21
 454 466 454 466 400 448 c 1,22,23
 470 429 470 429 505 381 c 0,24,25
 553 319 553 319 553 226 c 0,26,27
 553 134 553 134 505 72 c 0,28,29
 440 -12 440 -12 306 -12 c 0,30,31
 173 -12 173 -12 108 72 c 0,32,33
 60 134 60 134 60 226 c 0,34,35
 60 319 60 319 108 381 c 0,36,37
 144 429 144 429 212 448 c 1,38,39
 160 466 160 466 131 503 c 0,40,41
 88 559 88 559 88 640 c 0,42,43
 88 720 88 720 131 776 c 0,44,45
 189 851 189 851 306 851 c 0,14,15
118 640 m 128,-1,47
 118 570 118 570 155 522 c 0,48,49
 204 459 204 459 306 459 c 0,50,51
 409 459 409 459 458 522 c 0,52,53
 494 569 494 569 494 640 c 128,-1,54
 494 711 494 711 458 758 c 0,55,56
 409 821 409 821 306 821 c 0,57,58
 204 821 204 821 155 758 c 0,59,46
 118 710 118 710 118 640 c 128,-1,47
EndSplineSet
EndChar

StartChar: nine
Encoding: 57 57 28
Width: 584
Flags: W
LayerCount: 2
Fore
SplineSet
245 -12 m 2,0,1
 184 -12 184 -12 112 19 c 1,2,-1
 124 46 l 1,3,4
 192 18 192 18 244 18 c 0,5,6
 276 18 276 18 306 29 c 0,7,8
 373 55 373 55 417 140 c 0,9,10
 474 249 474 249 489 436 c 1,11,12
 487 431 487 431 481 421.5 c 128,-1,13
 475 412 475 412 474 410 c 0,14,15
 414 315 414 315 292 315 c 0,16,17
 164 315 164 315 104 410 c 0,18,19
 60 480 60 480 60 582 c 128,-1,20
 60 684 60 684 104 754 c 0,21,22
 164 849 164 849 292 849 c 128,-1,23
 420 849 420 849 480 754 c 0,24,25
 524 684 524 684 524 582 c 0,26,27
 524 279 524 279 444 126 c 0,28,29
 393 30 393 30 316 1 c 0,30,31
 286 -10 286 -10 248 -12 c 2,32,-1
 245 -12 l 2,0,1
292 345 m 0,33,34
 403 345 403 345 455 426 c 0,35,36
 494 487 494 487 494 582 c 128,-1,37
 494 677 494 677 455 738 c 0,38,39
 403 819 403 819 292 819 c 0,40,41
 182 819 182 819 130 738 c 0,42,43
 90 675 90 675 90 582 c 128,-1,44
 90 489 90 489 130 426 c 0,45,46
 182 345 182 345 292 345 c 0,33,34
EndSplineSet
EndChar

StartChar: colon
Encoding: 58 58 29
Width: 219
Flags: W
LayerCount: 2
Fore
SplineSet
110 580 m 128,-1,1
 127 580 127 580 134 569 c 0,2,3
 140 560 140 560 140 548 c 0,4,5
 140 537 140 537 134 528 c 0,6,7
 127 517 127 517 110 517 c 128,-1,8
 93 517 93 517 86 528 c 0,9,10
 80 537 80 537 80 548 c 0,11,12
 80 560 80 560 86 569 c 0,13,0
 93 580 93 580 110 580 c 128,-1,1
110 51 m 128,-1,15
 127 51 127 51 134 40 c 0,16,17
 140 31 140 31 140 20 c 128,-1,18
 140 9 140 9 134 0 c 0,19,20
 127 -11 127 -11 110 -11 c 128,-1,21
 93 -11 93 -11 86 0 c 0,22,23
 80 9 80 9 80 20 c 128,-1,24
 80 31 80 31 86 40 c 0,25,14
 93 51 93 51 110 51 c 128,-1,15
EndSplineSet
EndChar

StartChar: semicolon
Encoding: 59 59 30
Width: 235
Flags: W
LayerCount: 2
Fore
SplineSet
126 580 m 0,0,1
 143 580 143 580 150 569 c 0,2,3
 156 560 156 560 156 548 c 0,4,5
 156 537 156 537 150 528 c 0,6,7
 143 517 143 517 126 517 c 0,8,9
 108 517 108 517 101 528 c 0,10,11
 96 536 96 536 96 548 c 0,12,13
 96 562 96 562 101 569 c 0,14,15
 108 580 108 580 126 580 c 0,0,1
112 46 m 1,16,-1
 156 46 l 1,17,-1
 104 -144 l 1,18,-1
 80 -144 l 1,19,-1
 112 46 l 1,16,-1
EndSplineSet
EndChar

StartChar: less
Encoding: 60 60 31
Width: 646
Flags: W
LayerCount: 2
Fore
SplineSet
566 679 m 1,0,-1
 566 647 l 1,1,-1
 125 466 l 1,2,-1
 566 284 l 1,3,-1
 566 252 l 1,4,-1
 80 452 l 1,5,-1
 80 480 l 1,6,-1
 566 679 l 1,0,-1
EndSplineSet
EndChar

StartChar: equal
Encoding: 61 61 32
Width: 701
Flags: W
LayerCount: 2
Fore
SplineSet
80 458 m 1,0,-1
 622 458 l 1,1,-1
 622 428 l 1,2,-1
 80 428 l 1,3,-1
 80 458 l 1,0,-1
80 269 m 1,4,-1
 622 269 l 1,5,-1
 622 239 l 1,6,-1
 80 239 l 1,7,-1
 80 269 l 1,4,-1
EndSplineSet
EndChar

StartChar: greater
Encoding: 62 62 33
Width: 646
Flags: W
LayerCount: 2
Fore
SplineSet
80 679 m 1,0,-1
 566 480 l 1,1,-1
 566 452 l 1,2,-1
 80 252 l 1,3,-1
 80 284 l 1,4,-1
 521 466 l 1,5,-1
 80 647 l 1,6,-1
 80 679 l 1,0,-1
EndSplineSet
EndChar

StartChar: question
Encoding: 63 63 34
Width: 595
Flags: W
LayerCount: 2
Fore
SplineSet
298 851 m 128,-1,1
 416 851 416 851 474 776 c 0,2,3
 516 721 516 721 516 640 c 0,4,5
 516 595 516 595 508 559.5 c 128,-1,6
 500 524 500 524 480.5 494.5 c 128,-1,7
 461 465 461 465 449 451.5 c 128,-1,8
 437 438 437 438 410 411 c 0,9,10
 378 379 378 379 361 356.5 c 128,-1,11
 344 334 344 334 328.5 285 c 128,-1,12
 313 236 313 236 313 170 c 1,13,-1
 283 170 l 1,14,15
 283 239 283 239 300.5 293 c 128,-1,16
 318 347 318 347 337.5 373.5 c 128,-1,17
 357 400 357 400 389 432 c 0,18,19
 392 435 392 435 398 441 c 0,20,21
 429 472 429 472 443.5 490 c 128,-1,22
 458 508 458 508 472 547.5 c 128,-1,23
 486 587 486 587 486 640 c 0,24,25
 486 711 486 711 450 758 c 0,26,27
 401 821 401 821 298 821 c 128,-1,28
 195 821 195 821 146 758 c 0,29,30
 110 711 110 711 110 640 c 1,31,-1
 80 640 l 1,32,33
 80 721 80 721 122 776 c 0,34,0
 180 851 180 851 298 851 c 128,-1,1
298 51 m 128,-1,36
 315 51 315 51 322 40 c 0,37,38
 328 31 328 31 328 20 c 128,-1,39
 328 9 328 9 322 0 c 0,40,41
 315 -11 315 -11 298 -11 c 128,-1,42
 281 -11 281 -11 274 0 c 0,43,44
 268 9 268 9 268 20 c 128,-1,45
 268 31 268 31 274 40 c 0,46,35
 281 51 281 51 298 51 c 128,-1,36
EndSplineSet
EndChar

StartChar: at
Encoding: 64 64 35
Width: 933
Flags: W
LayerCount: 2
Fore
SplineSet
467 850 m 128,-1,1
 679 850 679 850 780 684 c 0,2,3
 854 562 854 562 854 380 c 0,4,5
 854 272 854 272 815 205 c 0,6,7
 777 141 777 141 723 139 c 2,8,9
 723 139 723 139 721 139 c 0,10,11
 666 139 666 139 630 202 c 0,12,13
 614 230 614 230 603 273 c 1,14,15
 595 253 595 253 589 244 c 0,16,17
 543 168 543 168 447 168 c 128,-1,18
 351 168 351 168 305 244 c 0,19,20
 272 299 272 299 272 380 c 128,-1,21
 272 461 272 461 305 516 c 0,22,23
 351 592 351 592 447 592 c 128,-1,24
 543 592 543 592 589 516 c 0,25,26
 590 515 590 515 590 513.5 c 128,-1,27
 590 512 590 512 591 511 c 2,28,-1
 591 580 l 1,29,-1
 621 580 l 1,30,-1
 621 380 l 2,31,32
 621 276 621 276 656 217 c 0,33,34
 684 169 684 169 720 169 c 2,35,-1
 722 169 l 2,36,37
 761 171 761 171 789 220 c 0,38,39
 824 281 824 281 824 380 c 0,40,41
 824 554 824 554 754 669 c 0,42,43
 662 820 662 820 467 820 c 128,-1,44
 272 820 272 820 180 669 c 0,45,46
 110 554 110 554 110 380 c 128,-1,47
 110 206 110 206 180 91 c 0,48,49
 272 -60 272 -60 467 -60 c 0,50,51
 602 -60 602 -60 690 15 c 1,52,-1
 710 -8 l 1,53,54
 615 -90 615 -90 467 -90 c 0,55,56
 255 -90 255 -90 154 76 c 0,57,58
 80 198 80 198 80 380 c 128,-1,59
 80 562 80 562 154 684 c 0,60,0
 255 850 255 850 467 850 c 128,-1,1
447 562 m 128,-1,62
 367 562 367 562 331 501 c 0,63,64
 302 451 302 451 302 380 c 128,-1,65
 302 309 302 309 331 259 c 0,66,67
 367 198 367 198 447 198 c 128,-1,68
 527 198 527 198 563 259 c 0,69,70
 591 307 591 307 591 380 c 128,-1,71
 591 453 591 453 563 501 c 0,72,61
 527 562 527 562 447 562 c 128,-1,62
EndSplineSet
EndChar

StartChar: A
Encoding: 65 65 36
Width: 659
Flags: W
LayerCount: 2
Fore
SplineSet
314 839 m 1,0,-1
 345 839 l 1,1,-1
 639 0 l 1,2,-1
 607 0 l 1,3,-1
 528 227 l 1,4,-1
 131 227 l 1,5,-1
 52 0 l 1,6,-1
 20 0 l 1,7,-1
 314 839 l 1,0,-1
329 794 m 1,8,-1
 142 257 l 1,9,-1
 517 257 l 1,10,-1
 329 794 l 1,8,-1
EndSplineSet
EndChar

StartChar: B
Encoding: 66 66 37
Width: 628
Flags: W
LayerCount: 2
Fore
SplineSet
95 839 m 1,0,-1
 375 839 l 2,1,2
 468 839 468 839 510 763 c 0,3,4
 541 707 541 707 541 628 c 128,-1,5
 541 549 541 549 510 493 c 0,6,7
 487 453 487 453 448 433 c 1,8,9
 496 413 496 413 527 368 c 0,10,11
 569 305 569 305 569 224 c 128,-1,12
 569 143 569 143 527 80 c 0,13,14
 474 0 474 0 375 0 c 2,15,-1
 110 0 l 1,16,-1
 80 0 l 1,17,-1
 80 839 l 1,18,-1
 95 839 l 1,0,-1
110 809 m 1,19,-1
 110 447 l 1,20,-1
 375 447 l 2,21,22
 450 447 450 447 484 508 c 0,23,24
 511 557 511 557 511 628 c 0,25,26
 511 700 511 700 484 749 c 0,27,28
 451 809 451 809 375 809 c 2,29,-1
 110 809 l 1,19,-1
110 417 m 1,30,-1
 110 30 l 1,31,-1
 375 30 l 2,32,33
 457 30 457 30 502 96 c 0,34,35
 539 150 539 150 539 224 c 0,36,37
 539 297 539 297 502 351 c 0,38,39
 457 417 457 417 375 417 c 2,40,-1
 110 417 l 1,30,-1
EndSplineSet
EndChar

StartChar: C
Encoding: 67 67 38
Width: 707
Flags: W
LayerCount: 2
Fore
SplineSet
410 851 m 0,0,1
 557 851 557 851 647 759 c 1,2,-1
 626 738 l 1,3,4
 545 821 545 821 410 821 c 0,5,6
 234 821 234 821 152 683 c 0,7,8
 90 579 90 579 90 419 c 0,9,10
 90 260 90 260 152 156 c 0,11,12
 234 18 234 18 410 18 c 0,13,14
 543 18 543 18 627 85 c 1,15,-1
 646 61 l 1,16,17
 555 -12 555 -12 410 -12 c 0,18,19
 218 -12 218 -12 127 141 c 0,20,21
 60 253 60 253 60 419 c 0,22,23
 60 586 60 586 127 698 c 0,24,25
 218 851 218 851 410 851 c 0,0,1
EndSplineSet
EndChar

StartChar: D
Encoding: 68 68 39
Width: 725
Flags: W
LayerCount: 2
Fore
SplineSet
80 839 m 1,0,-1
 110 839 l 1,1,-1
 315 839 l 2,2,3
 507 839 507 839 598 692 c 0,4,5
 665 584 665 584 665 419 c 128,-1,6
 665 254 665 254 598 146 c 0,7,8
 508 0 508 0 315 0 c 2,9,-1
 110 0 l 1,10,-1
 95 0 l 1,11,-1
 80 0 l 1,12,-1
 80 839 l 1,0,-1
110 809 m 1,13,-1
 110 30 l 1,14,-1
 315 30 l 2,15,16
 492 30 492 30 573 162 c 0,17,18
 635 264 635 264 635 419 c 0,19,20
 635 575 635 575 573 677 c 0,21,22
 492 809 492 809 315 809 c 2,23,-1
 110 809 l 1,13,-1
EndSplineSet
EndChar

StartChar: E
Encoding: 69 69 40
Width: 623
Flags: W
LayerCount: 2
Fore
SplineSet
80 839 m 1,0,-1
 95 839 l 1,1,-1
 110 839 l 1,2,-1
 543 839 l 1,3,-1
 543 809 l 1,4,-1
 110 809 l 1,5,-1
 110 434 l 1,6,-1
 543 434 l 1,7,-1
 543 404 l 1,8,-1
 110 404 l 1,9,-1
 110 30 l 1,10,-1
 543 30 l 1,11,-1
 543 0 l 1,12,-1
 110 0 l 1,13,-1
 95 0 l 1,14,-1
 80 0 l 1,15,-1
 80 839 l 1,0,-1
EndSplineSet
EndChar

StartChar: F
Encoding: 70 70 41
Width: 623
Flags: W
LayerCount: 2
Fore
SplineSet
80 839 m 1,0,-1
 95 839 l 1,1,-1
 110 839 l 1,2,-1
 543 839 l 1,3,-1
 543 809 l 1,4,-1
 110 809 l 1,5,-1
 110 434 l 1,6,-1
 543 434 l 1,7,-1
 543 404 l 1,8,-1
 110 404 l 1,9,-1
 110 0 l 1,10,-1
 80 0 l 1,11,-1
 80 839 l 1,0,-1
EndSplineSet
EndChar

StartChar: G
Encoding: 71 71 42
Width: 731
Flags: W
LayerCount: 2
Fore
SplineSet
410 851 m 0,0,1
 557 851 557 851 647 759 c 1,2,-1
 625 738 l 1,3,4
 544 821 544 821 410 821 c 0,5,6
 234 821 234 821 152 683 c 0,7,8
 90 579 90 579 90 419 c 0,9,10
 90 260 90 260 152 156 c 0,11,12
 234 18 234 18 410 18 c 0,13,14
 541 18 541 18 621 80 c 1,15,-1
 621 404 l 1,16,-1
 455 404 l 1,17,-1
 455 434 l 1,18,-1
 651 434 l 1,19,-1
 651 66 l 1,20,-1
 645 61 l 2,21,22
 554 -12 554 -12 410 -12 c 0,23,24
 217 -12 217 -12 126 141 c 0,25,26
 60 251 60 251 60 419 c 0,27,28
 60 588 60 588 126 698 c 0,29,30
 217 851 217 851 410 851 c 0,0,1
EndSplineSet
EndChar

StartChar: H
Encoding: 72 72 43
Width: 754
Flags: W
LayerCount: 2
Fore
SplineSet
80 839 m 1,0,-1
 110 839 l 1,1,-1
 110 434 l 1,2,-1
 645 434 l 1,3,-1
 645 839 l 1,4,-1
 675 839 l 1,5,-1
 675 0 l 1,6,-1
 645 0 l 1,7,-1
 645 404 l 1,8,-1
 110 404 l 1,9,-1
 110 0 l 1,10,-1
 80 0 l 1,11,-1
 80 404 l 1,12,-1
 80 434 l 1,13,-1
 80 839 l 1,0,-1
EndSplineSet
EndChar

StartChar: I
Encoding: 73 73 44
Width: 190
Flags: W
LayerCount: 2
Fore
SplineSet
80 839 m 1,0,-1
 110 839 l 1,1,-1
 110 0 l 1,2,-1
 80 0 l 1,3,-1
 80 839 l 1,0,-1
EndSplineSet
EndChar

StartChar: J
Encoding: 74 74 45
Width: 391
Flags: W
LayerCount: 2
Fore
SplineSet
281 839 m 1,0,-1
 311 839 l 1,1,-1
 311 250 l 2,2,3
 311 147 311 147 277 85.5 c 128,-1,4
 243 24 243 24 188 2 c 0,5,6
 156 -11 156 -11 122 -11 c 0,7,8
 106 -11 106 -11 91 -8 c 0,9,10
 44 0 44 0 20 24 c 1,11,-1
 42 45 l 1,12,13
 60 27 60 27 96 21 c 0,14,15
 114 19 114 19 123 19 c 0,16,17
 150 19 150 19 176 29 c 0,18,19
 281 72 281 72 281 250 c 2,20,-1
 281 839 l 1,0,-1
EndSplineSet
EndChar

StartChar: K
Encoding: 75 75 46
Width: 538
Flags: W
LayerCount: 2
Fore
SplineSet
80 839 m 1,0,-1
 110 839 l 1,1,-1
 110 370 l 1,2,-1
 479 839 l 1,3,-1
 518 839 l 1,4,-1
 254 504 l 1,5,-1
 519 0 l 1,6,-1
 485 0 l 1,7,-1
 233 478 l 1,8,-1
 110 321 l 1,9,-1
 110 0 l 1,10,-1
 80 0 l 1,11,-1
 80 839 l 1,0,-1
EndSplineSet
EndChar

StartChar: L
Encoding: 76 76 47
Width: 596
Flags: W
LayerCount: 2
Fore
SplineSet
80 839 m 1,0,-1
 110 839 l 1,1,-1
 110 30 l 1,2,-1
 577 30 l 1,3,-1
 577 0 l 1,4,-1
 110 0 l 1,5,-1
 95 0 l 1,6,-1
 80 0 l 1,7,-1
 80 839 l 1,0,-1
EndSplineSet
EndChar

StartChar: M
Encoding: 77 77 48
Width: 833
Flags: W
LayerCount: 2
Fore
SplineSet
80 839 m 1,0,-1
 81 839 l 1,1,-1
 111 839 l 1,2,-1
 112 839 l 1,3,-1
 416 42 l 1,4,-1
 720 839 l 1,5,-1
 753 839 l 1,6,-1
 754 839 l 1,7,-1
 754 0 l 1,8,-1
 724 0 l 1,9,-1
 724 764 l 1,10,-1
 432 0 l 1,11,-1
 400 0 l 1,12,-1
 111 759 l 1,13,-1
 111 0 l 1,14,-1
 81 0 l 1,15,-1
 81 837 l 1,16,-1
 80 839 l 1,0,-1
EndSplineSet
EndChar

StartChar: N
Encoding: 78 78 49
Width: 754
Flags: W
LayerCount: 2
Fore
SplineSet
107 839 m 1,0,-1
 645 58 l 1,1,-1
 645 839 l 1,2,-1
 675 839 l 1,3,-1
 675 0 l 1,4,-1
 647 0 l 1,5,-1
 110 781 l 1,6,-1
 110 0 l 1,7,-1
 80 0 l 1,8,-1
 80 839 l 1,9,-1
 107 839 l 1,0,-1
EndSplineSet
EndChar

StartChar: O
Encoding: 79 79 50
Width: 821
Flags: W
LayerCount: 2
Fore
SplineSet
411 851 m 0,0,1
 603 851 603 851 694 698 c 0,2,3
 761 586 761 586 761 419 c 0,4,5
 761 253 761 253 694 141 c 0,6,7
 603 -12 603 -12 411 -12 c 0,8,9
 218 -12 218 -12 127 141 c 0,10,11
 60 253 60 253 60 419 c 0,12,13
 60 586 60 586 127 698 c 0,14,15
 218 851 218 851 411 851 c 0,0,1
411 821 m 0,16,17
 235 821 235 821 153 683 c 0,18,19
 90 577 90 577 90 419 c 0,20,21
 90 262 90 262 153 156 c 0,22,23
 235 18 235 18 411 18 c 0,24,25
 586 18 586 18 668 156 c 0,26,27
 731 262 731 262 731 419 c 0,28,29
 731 577 731 577 668 683 c 0,30,31
 586 821 586 821 411 821 c 0,16,17
EndSplineSet
EndChar

StartChar: P
Encoding: 80 80 51
Width: 588
Flags: W
LayerCount: 2
Fore
SplineSet
80 839 m 1,0,-1
 95 839 l 1,1,-1
 110 839 l 1,2,-1
 345 839 l 2,3,4
 457 839 457 839 510 750 c 0,5,6
 548 687 548 687 548 589 c 128,-1,7
 548 491 548 491 510 428 c 0,8,9
 457 339 457 339 345 339 c 2,10,-1
 110 339 l 1,11,-1
 110 0 l 1,12,-1
 80 0 l 1,13,-1
 80 839 l 1,0,-1
110 809 m 1,14,-1
 110 369 l 1,15,-1
 345 369 l 2,16,17
 439 369 439 369 484 444 c 0,18,19
 518 500 518 500 518 589 c 128,-1,20
 518 678 518 678 484 734 c 0,21,22
 439 809 439 809 345 809 c 2,23,-1
 110 809 l 1,14,-1
EndSplineSet
EndChar

StartChar: Q
Encoding: 81 81 52
Width: 820
Flags: W
LayerCount: 2
Fore
SplineSet
410 851 m 0,0,1
 603 851 603 851 694 698 c 0,2,3
 761 586 761 586 761 419 c 0,4,5
 761 253 761 253 694 141 c 0,6,7
 675 110 675 110 651 84 c 1,8,-1
 754 -20 l 1,9,-1
 733 -41 l 1,10,-1
 629 63 l 1,11,12
 541 -12 541 -12 410 -12 c 0,13,14
 218 -12 218 -12 127 141 c 0,15,16
 60 253 60 253 60 419 c 0,17,18
 60 586 60 586 127 698 c 0,19,20
 218 851 218 851 410 851 c 0,0,1
410 821 m 0,21,22
 235 821 235 821 153 683 c 0,23,24
 90 577 90 577 90 419 c 0,25,26
 90 262 90 262 153 156 c 0,27,28
 235 18 235 18 410 18 c 0,29,30
 530 18 530 18 608 84 c 1,31,-1
 422 270 l 1,32,-1
 443 291 l 1,33,-1
 630 105 l 1,34,35
 650 126 650 126 668 156 c 0,36,37
 731 262 731 262 731 419 c 0,38,39
 731 577 731 577 668 683 c 0,40,41
 586 821 586 821 410 821 c 0,21,22
EndSplineSet
EndChar

StartChar: R
Encoding: 82 82 53
Width: 623
Flags: W
LayerCount: 2
Fore
SplineSet
80 839 m 1,0,-1
 95 839 l 1,1,-1
 110 839 l 1,2,-1
 345 839 l 2,3,4
 457 839 457 839 510 750 c 0,5,6
 548 687 548 687 548 589 c 128,-1,7
 548 491 548 491 510 428 c 0,8,9
 467 356 467 356 383 342 c 1,10,-1
 564 0 l 1,11,-1
 530 0 l 1,12,-1
 351 339 l 1,13,-1
 345 339 l 1,14,-1
 110 339 l 1,15,-1
 110 0 l 1,16,-1
 80 0 l 1,17,-1
 80 839 l 1,0,-1
110 809 m 1,18,-1
 110 369 l 1,19,-1
 345 369 l 2,20,21
 439 369 439 369 484 444 c 0,22,23
 518 500 518 500 518 589 c 128,-1,24
 518 678 518 678 484 734 c 0,25,26
 439 809 439 809 345 809 c 2,27,-1
 110 809 l 1,18,-1
EndSplineSet
EndChar

StartChar: S
Encoding: 83 83 54
Width: 590
Flags: W
LayerCount: 2
Fore
SplineSet
315 851 m 0,0,1
 375 851 375 851 425.5 830 c 128,-1,2
 476 809 476 809 504 773 c 1,3,-1
 480 754 l 1,4,5
 457 783 457 783 412 802 c 128,-1,6
 367 821 367 821 315 821 c 0,7,8
 229 821 229 821 173 779 c 0,9,10
 115 736 115 736 115 661 c 0,11,12
 115 591 115 591 175 539 c 0,13,14
 208 511 208 511 315 455 c 0,15,16
 419 401 419 401 461 361 c 0,17,18
 531 294 531 294 531 201 c 0,19,20
 531 116 531 116 467 52 c 128,-1,21
 403 -12 403 -12 301 -12 c 0,22,23
 135 -12 135 -12 60 79 c 1,24,-1
 83 98 l 1,25,26
 114 60 114 60 161 39 c 128,-1,27
 208 18 208 18 301 18 c 0,28,29
 392 18 392 18 446.5 73 c 128,-1,30
 501 128 501 128 501 201 c 0,31,32
 501 282 501 282 441 339 c 0,33,34
 403 375 403 375 301 428 c 0,35,36
 189 486 189 486 155 516 c 0,37,38
 85 577 85 577 85 661 c 0,39,40
 85 751 85 751 155 803 c 0,41,42
 220 851 220 851 315 851 c 0,0,1
EndSplineSet
EndChar

StartChar: T
Encoding: 84 84 55
Width: 619
Flags: W
LayerCount: 2
Fore
SplineSet
20 839 m 1,0,-1
 295 839 l 1,1,-1
 325 839 l 1,2,-1
 600 839 l 1,3,-1
 600 809 l 1,4,-1
 325 809 l 1,5,-1
 325 0 l 1,6,-1
 295 0 l 1,7,-1
 295 809 l 1,8,-1
 20 809 l 1,9,-1
 20 839 l 1,0,-1
EndSplineSet
EndChar

StartChar: U
Encoding: 85 85 56
Width: 760
Flags: W
LayerCount: 2
Fore
SplineSet
80 839 m 1,0,-1
 110 839 l 1,1,-1
 110 419 l 2,2,3
 110 222 110 222 176 121 c 0,4,5
 244 18 244 18 380 18 c 0,6,7
 517 18 517 18 585 121 c 0,8,9
 651 222 651 222 651 419 c 2,10,-1
 651 839 l 1,11,-1
 681 839 l 1,12,-1
 681 419 l 2,13,14
 681 214 681 214 610 105 c 0,15,16
 534 -12 534 -12 380 -12 c 128,-1,17
 226 -12 226 -12 150 105 c 0,18,19
 80 212 80 212 80 419 c 2,20,-1
 80 839 l 1,0,-1
EndSplineSet
EndChar

StartChar: V
Encoding: 86 86 57
Width: 659
Flags: W
LayerCount: 2
Fore
SplineSet
20 839 m 1,0,-1
 52 839 l 1,1,-1
 330 45 l 1,2,-1
 607 839 l 1,3,-1
 639 839 l 1,4,-1
 345 0 l 1,5,-1
 314 0 l 1,6,-1
 20 839 l 1,0,-1
EndSplineSet
EndChar

StartChar: W
Encoding: 87 87 58
Width: 1246
Flags: W
LayerCount: 2
Fore
SplineSet
20 839 m 1,0,-1
 52 839 l 1,1,-1
 330 45 l 1,2,-1
 607 839 l 1,3,-1
 639 839 l 1,4,-1
 917 45 l 1,5,-1
 1194 839 l 1,6,-1
 1226 839 l 1,7,-1
 933 0 l 1,8,-1
 901 0 l 1,9,-1
 623 794 l 1,10,-1
 345 0 l 1,11,-1
 314 0 l 1,12,-1
 20 839 l 1,0,-1
EndSplineSet
EndChar

StartChar: X
Encoding: 88 88 59
Width: 625
Flags: W
LayerCount: 2
Fore
SplineSet
20 839 m 1,0,-1
 56 839 l 1,1,-1
 313 447 l 1,2,-1
 570 839 l 1,3,-1
 605 839 l 1,4,-1
 331 419 l 1,5,-1
 605 0 l 1,6,-1
 570 0 l 1,7,-1
 313 392 l 1,8,-1
 56 0 l 1,9,-1
 20 0 l 1,10,-1
 295 419 l 1,11,-1
 20 839 l 1,0,-1
EndSplineSet
EndChar

StartChar: Y
Encoding: 89 89 60
Width: 625
Flags: W
LayerCount: 2
Fore
SplineSet
20 839 m 1,0,-1
 56 839 l 1,1,-1
 313 447 l 1,2,-1
 570 839 l 1,3,-1
 605 839 l 1,4,-1
 328 415 l 1,5,-1
 328 0 l 1,6,-1
 298 0 l 1,7,-1
 298 415 l 1,8,-1
 20 839 l 1,0,-1
EndSplineSet
EndChar

StartChar: Z
Encoding: 90 90 61
Width: 662
Flags: W
LayerCount: 2
Fore
SplineSet
80 839 m 1,0,-1
 548 839 l 1,1,-1
 562 839 l 1,2,-1
 583 839 l 1,3,-1
 131 30 l 1,4,-1
 583 30 l 1,5,-1
 583 0 l 1,6,-1
 114 0 l 1,7,-1
 101 0 l 1,8,-1
 80 0 l 1,9,-1
 531 809 l 1,10,-1
 80 809 l 1,11,-1
 80 839 l 1,0,-1
EndSplineSet
EndChar

StartChar: bracketleft
Encoding: 91 91 62
Width: 297
Flags: W
LayerCount: 2
Fore
SplineSet
80 854 m 1,0,-1
 247 854 l 1,1,-1
 247 824 l 1,2,-1
 110 824 l 1,3,-1
 110 -245 l 1,4,-1
 247 -245 l 1,5,-1
 247 -275 l 1,6,-1
 80 -275 l 1,7,-1
 80 854 l 1,0,-1
EndSplineSet
EndChar

StartChar: backslash
Encoding: 92 92 63
Width: 551
Flags: W
LayerCount: 2
Fore
SplineSet
112 878 m 1,0,-1
 472 -130 l 1,1,-1
 440 -130 l 1,2,-1
 80 878 l 1,3,-1
 112 878 l 1,0,-1
EndSplineSet
EndChar

StartChar: bracketright
Encoding: 93 93 64
Width: 297
Flags: W
LayerCount: 2
Fore
SplineSet
50 854 m 1,0,-1
 217 854 l 1,1,-1
 217 -275 l 1,2,-1
 50 -275 l 1,3,-1
 50 -245 l 1,4,-1
 187 -245 l 1,5,-1
 187 824 l 1,6,-1
 50 824 l 1,7,-1
 50 854 l 1,0,-1
EndSplineSet
EndChar

StartChar: asciicircum
Encoding: 94 94 65
Width: 481
Flags: W
LayerCount: 2
Fore
SplineSet
227 876 m 1,0,-1
 255 876 l 1,1,-1
 402 529 l 1,2,-1
 374 517 l 1,3,-1
 241 832 l 1,4,-1
 108 517 l 1,5,-1
 80 529 l 1,6,-1
 227 876 l 1,0,-1
EndSplineSet
EndChar

StartChar: underscore
Encoding: 95 95 66
Width: 641
Flags: W
LayerCount: 2
Fore
SplineSet
80 -31 m 1,0,-1
 562 -31 l 1,1,-1
 562 -61 l 1,2,-1
 80 -61 l 1,3,-1
 80 -31 l 1,0,-1
EndSplineSet
EndChar

StartChar: grave
Encoding: 96 96 67
Width: 281
Flags: W
LayerCount: 2
Fore
SplineSet
80 1024 m 1,0,-1
 129 1024 l 1,1,-1
 201 756 l 1,2,-1
 178 756 l 1,3,-1
 80 1024 l 1,0,-1
EndSplineSet
EndChar

StartChar: a
Encoding: 97 97 68
Width: 541
Flags: W
LayerCount: 2
Fore
SplineSet
276 580 m 0,0,1
 342 580 342 580 381 560 c 0,2,3
 418 541 418 541 438 498 c 0,4,5
 462 443 462 443 462 299 c 2,6,-1
 462 297 l 1,7,8
 462 297 462 297 462 284 c 2,9,-1
 462 0 l 1,10,-1
 434 0 l 1,11,-1
 432 151 l 1,12,13
 406 93 406 93 361.5 54 c 128,-1,14
 317 15 317 15 265 -2 c 0,15,16
 235 -12 235 -12 202 -12 c 0,17,18
 159 -12 159 -12 126 6 c 0,19,20
 60 42 60 42 60 126 c 0,21,22
 60 187 60 187 81 232 c 128,-1,23
 102 277 102 277 150 301 c 0,24,25
 202 327 202 327 290 327 c 0,26,27
 358 327 358 327 432 316 c 1,28,29
 430 443 430 443 411 486 c 0,30,31
 396 518 396 518 367 533 c 0,32,33
 335 550 335 550 276 550 c 0,34,35
 189 550 189 550 136 488 c 1,36,-1
 114 507 l 1,37,38
 175 580 175 580 276 580 c 0,0,1
298 297 m 2,39,40
 298 297 298 297 290 297 c 0,41,42
 209 297 209 297 163 274 c 0,43,44
 125 255 125 255 107 219 c 0,45,46
 90 185 90 185 90 126 c 0,47,48
 90 59 90 59 140 32 c 0,49,50
 166 18 166 18 201 18 c 0,51,52
 228 18 228 18 256 27 c 0,53,54
 326 50 326 50 377.5 116.5 c 128,-1,55
 429 183 429 183 432 286 c 1,56,57
 352 297 352 297 298 297 c 2,39,40
EndSplineSet
EndChar

StartChar: b
Encoding: 98 98 69
Width: 627
Flags: W
LayerCount: 2
Fore
SplineSet
80 915 m 1,0,-1
 110 915 l 1,1,-1
 110 433 l 1,2,3
 123 464 123 464 130 475 c 0,4,5
 193 580 193 580 328 580 c 0,6,7
 458 580 458 580 521 475 c 0,8,9
 568 397 568 397 568 284 c 128,-1,10
 568 171 568 171 521 93 c 0,11,12
 458 -12 458 -12 328 -12 c 0,13,14
 193 -12 193 -12 130 93 c 0,15,16
 123 104 123 104 110 135 c 1,17,-1
 108 0 l 1,18,-1
 80 0 l 1,19,-1
 80 915 l 1,0,-1
324 550 m 128,-1,21
 207 550 207 550 152 459 c 0,22,23
 110 389 110 389 110 284 c 128,-1,24
 110 179 110 179 152 109 c 0,25,26
 207 18 207 18 324 18 c 128,-1,27
 441 18 441 18 496 109 c 0,28,29
 538 179 538 179 538 284 c 128,-1,30
 538 389 538 389 496 459 c 0,31,20
 441 550 441 550 324 550 c 128,-1,21
EndSplineSet
EndChar

StartChar: c
Encoding: 99 99 70
Width: 529
Flags: W
LayerCount: 2
Fore
SplineSet
304 580 m 0,0,1
 408 580 408 580 469 517 c 1,2,-1
 448 496 l 1,3,4
 396 550 396 550 304 550 c 0,5,6
 187 550 187 550 132 459 c 0,7,8
 90 389 90 389 90 284 c 128,-1,9
 90 179 90 179 132 109 c 0,10,11
 187 18 187 18 304 18 c 0,12,13
 393 18 393 18 449 62 c 1,14,-1
 468 38 l 1,15,16
 406 -12 406 -12 304 -12 c 0,17,18
 170 -12 170 -12 107 93 c 0,19,20
 60 171 60 171 60 284 c 128,-1,21
 60 397 60 397 107 475 c 0,22,23
 170 580 170 580 304 580 c 0,0,1
EndSplineSet
EndChar

StartChar: d
Encoding: 100 100 71
Width: 627
Flags: W
LayerCount: 2
Fore
SplineSet
548 915 m 1,0,-1
 548 0 l 1,1,-1
 520 0 l 1,2,-1
 518 135 l 1,3,4
 507 109 507 109 497 93 c 0,5,6
 434 -12 434 -12 300 -12 c 0,7,8
 169 -12 169 -12 106 93 c 0,9,10
 60 170 60 170 60 284 c 128,-1,11
 60 398 60 398 106 475 c 0,12,13
 169 580 169 580 300 580 c 0,14,15
 434 580 434 580 497 475 c 0,16,17
 507 459 507 459 518 433 c 1,18,-1
 518 915 l 1,19,-1
 548 915 l 1,0,-1
304 550 m 0,20,21
 187 550 187 550 132 459 c 0,22,23
 90 389 90 389 90 284 c 128,-1,24
 90 179 90 179 132 109 c 0,25,26
 187 18 187 18 304 18 c 0,27,28
 420 18 420 18 475 109 c 0,29,30
 517 179 517 179 517 284 c 128,-1,31
 517 389 517 389 475 459 c 0,32,33
 420 550 420 550 304 550 c 0,20,21
EndSplineSet
EndChar

StartChar: e
Encoding: 101 101 72
Width: 597
Flags: W
LayerCount: 2
Fore
SplineSet
304 580 m 0,0,1
 433 580 433 580 491 493 c 0,2,3
 537 424 537 424 537 284 c 2,4,-1
 537 269 l 1,5,-1
 90 269 l 1,6,7
 94 172 94 172 132 109 c 0,8,9
 187 18 187 18 304 18 c 0,10,11
 359 18 359 18 400 31.5 c 128,-1,12
 441 45 441 45 456.5 57 c 128,-1,13
 472 69 472 69 497 94 c 1,14,-1
 518 73 l 1,15,16
 494 49 494 49 474.5 34 c 128,-1,17
 455 19 455 19 408.5 3.5 c 128,-1,18
 362 -12 362 -12 304 -12 c 0,19,20
 169 -12 169 -12 106 93 c 0,21,22
 60 170 60 170 60 284 c 128,-1,23
 60 398 60 398 106 475 c 0,24,25
 169 580 169 580 304 580 c 0,0,1
304 550 m 0,26,27
 187 550 187 550 132 459 c 0,28,29
 94 396 94 396 90 299 c 1,30,-1
 507 299 l 1,31,32
 505 417 505 417 466 477 c 0,33,34
 418 550 418 550 304 550 c 0,26,27
EndSplineSet
EndChar

StartChar: f
Encoding: 102 102 73
Width: 274
Flags: W
LayerCount: 2
Fore
SplineSet
193 915 m 2,0,1
 193 915 193 915 197 915 c 0,2,3
 219 915 219 915 254 907 c 1,4,-1
 247 877 l 1,5,6
 216 885 216 885 190 885 c 0,7,8
 179 885 179 885 175 884 c 0,9,10
 155 880 155 880 145 860 c 0,11,12
 130 829 130 829 130 669 c 2,13,-1
 130 568 l 1,14,-1
 254 568 l 1,15,-1
 254 538 l 1,16,-1
 130 538 l 1,17,-1
 130 0 l 1,18,-1
 100 0 l 1,19,-1
 100 538 l 1,20,-1
 20 538 l 1,21,-1
 20 568 l 1,22,-1
 100 568 l 1,23,-1
 100 669 l 1,24,25
 100 669 100 669 100 715 c 0,26,27
 100 837 100 837 118 873 c 0,28,29
 133 905 133 905 169 913 c 0,30,31
 177 915 177 915 193 915 c 2,0,1
EndSplineSet
EndChar

StartChar: g
Encoding: 103 103 74
Width: 587
Flags: W
LayerCount: 2
Fore
SplineSet
284 550 m 0,0,1
 167 550 167 550 112 459 c 0,2,3
 70 389 70 389 70 284 c 128,-1,4
 70 179 70 179 112 109 c 0,5,6
 167 18 167 18 284 18 c 0,7,8
 400 18 400 18 455 109 c 0,9,10
 497 179 497 179 497 284 c 128,-1,11
 497 389 497 389 455 459 c 0,12,13
 400 550 400 550 284 550 c 0,0,1
284 580 m 0,14,15
 418 580 418 580 481 475 c 0,16,17
 491 458 491 458 498 443 c 1,18,-1
 500 568 l 1,19,-1
 528 568 l 1,20,-1
 527 35 l 2,21,22
 527 -79 527 -79 481 -156 c 0,23,24
 418 -261 418 -261 284 -261 c 0,25,26
 149 -261 149 -261 86 -156 c 1,27,-1
 112 -140 l 1,28,29
 167 -231 167 -231 284 -231 c 0,30,31
 400 -231 400 -231 455 -140 c 0,32,33
 497 -70 497 -70 497 35 c 2,34,-1
 497 125 l 1,35,36
 487 103 487 103 481 93 c 0,37,38
 418 -12 418 -12 284 -12 c 0,39,40
 149 -12 149 -12 86 93 c 0,41,42
 40 170 40 170 40 284 c 128,-1,43
 40 398 40 398 86 475 c 0,44,45
 149 580 149 580 284 580 c 0,14,15
EndSplineSet
EndChar

StartChar: h
Encoding: 104 104 75
Width: 579
Flags: W
LayerCount: 2
Fore
SplineSet
80 915 m 1,0,-1
 110 915 l 1,1,-1
 110 452 l 1,2,3
 119 475 119 475 135 499 c 0,4,5
 188 580 188 580 296 580 c 128,-1,6
 404 580 404 580 457 499 c 0,7,8
 499 435 499 435 499 284 c 2,9,-1
 499 0 l 1,10,-1
 469 0 l 1,11,-1
 469 284 l 2,12,13
 469 422 469 422 429 483 c 0,14,15
 385 550 385 550 290 550 c 0,16,17
 198 550 198 550 154 483 c 128,-1,18
 110 416 110 416 110 284 c 2,19,-1
 110 0 l 1,20,-1
 80 0 l 1,21,-1
 80 915 l 1,0,-1
EndSplineSet
EndChar

StartChar: i
Encoding: 105 105 76
Width: 211
Flags: W
LayerCount: 2
Fore
SplineSet
106 803 m 128,-1,1
 116 803 116 803 124 795.5 c 128,-1,2
 132 788 132 788 132 777 c 128,-1,3
 132 766 132 766 124 758.5 c 128,-1,4
 116 751 116 751 106 751 c 128,-1,5
 96 751 96 751 88 758.5 c 128,-1,6
 80 766 80 766 80 777 c 128,-1,7
 80 788 80 788 88 795.5 c 128,-1,0
 96 803 96 803 106 803 c 128,-1,1
91 568 m 1,8,-1
 121 568 l 1,9,-1
 121 0 l 1,10,-1
 91 0 l 1,11,-1
 91 568 l 1,8,-1
EndSplineSet
EndChar

StartChar: j
Encoding: 106 106 77
Width: 264
Flags: W
LayerCount: 2
Fore
SplineSet
159 803 m 128,-1,1
 170 803 170 803 177.5 795.5 c 128,-1,2
 185 788 185 788 185 777 c 128,-1,3
 185 766 185 766 177.5 758.5 c 128,-1,4
 170 751 170 751 159 751 c 128,-1,5
 148 751 148 751 140.5 758.5 c 128,-1,6
 133 766 133 766 133 777 c 128,-1,7
 133 788 133 788 140.5 795.5 c 128,-1,0
 148 803 148 803 159 803 c 128,-1,1
144 568 m 1,8,-1
 174 568 l 1,9,-1
 174 -17 l 1,10,-1
 174 -63 l 2,11,12
 174 -184 174 -184 156 -220 c 0,13,14
 141 -252 141 -252 105 -260 c 0,15,16
 97 -262 97 -262 81 -262 c 0,17,18
 57 -262 57 -262 20 -254 c 1,19,-1
 27 -225 l 1,20,21
 62 -233 62 -233 81 -233 c 0,22,23
 89 -233 89 -233 99 -231 c 0,24,25
 119 -227 119 -227 129 -207 c 0,26,27
 144 -176 144 -176 144 -17 c 2,28,-1
 144 568 l 1,8,-1
EndSplineSet
EndChar

StartChar: k
Encoding: 107 107 78
Width: 490
Flags: W
LayerCount: 2
Fore
SplineSet
80 915 m 1,0,-1
 110 915 l 1,1,-1
 110 260 l 1,2,-1
 409 568 l 1,3,-1
 451 568 l 1,4,-1
 228 339 l 1,5,-1
 470 0 l 1,6,-1
 434 0 l 1,7,-1
 207 317 l 1,8,-1
 110 217 l 1,9,-1
 110 0 l 1,10,-1
 80 0 l 1,11,-1
 80 915 l 1,0,-1
EndSplineSet
EndChar

StartChar: l
Encoding: 108 108 79
Width: 190
Flags: W
LayerCount: 2
Fore
SplineSet
80 915 m 1,0,-1
 110 915 l 1,1,-1
 110 0 l 1,2,-1
 80 0 l 1,3,-1
 80 915 l 1,0,-1
EndSplineSet
EndChar

StartChar: m
Encoding: 109 109 80
Width: 828
Flags: W
LayerCount: 2
Fore
SplineSet
261 581 m 0,0,1
 351 581 351 581 395 513 c 0,2,3
 410 491 410 491 418 457 c 1,4,5
 429 489 429 489 445 513 c 0,6,7
 489 581 489 581 580 581 c 0,8,9
 670 581 670 581 714 513 c 0,10,11
 748 461 748 461 748 334 c 2,12,-1
 748 0 l 1,13,-1
 718 0 l 1,14,-1
 718 334 l 2,15,16
 718 448 718 448 687 497 c 0,17,18
 652 551 652 551 574 551 c 0,19,20
 500 551 500 551 465 497 c 0,21,22
 429 441 429 441 429 334 c 2,23,-1
 429 101 l 1,24,-1
 429 0 l 1,25,-1
 399 0 l 1,26,-1
 399 101 l 1,27,-1
 399 334 l 2,28,29
 399 448 399 448 368 497 c 0,30,31
 334 551 334 551 255 551 c 0,32,33
 180 551 180 551 146 497 c 0,34,35
 116 450 116 450 111 364 c 1,36,-1
 111 0 l 1,37,-1
 81 0 l 1,38,-1
 81 101 l 1,39,-1
 80 101 l 1,40,-1
 80 334 l 2,41,42
 80 339 80 339 80.5 347.5 c 128,-1,43
 81 356 81 356 81 360 c 2,44,-1
 81 568 l 1,45,-1
 111 568 l 1,46,-1
 111 485 l 1,47,48
 122 507 122 507 126 513 c 0,49,50
 170 581 170 581 261 581 c 0,0,1
EndSplineSet
EndChar

StartChar: n
Encoding: 110 110 81
Width: 579
Flags: W
LayerCount: 2
Fore
SplineSet
296 580 m 128,-1,1
 404 580 404 580 457 499 c 0,2,3
 499 435 499 435 499 284 c 2,4,-1
 499 0 l 1,5,-1
 469 0 l 1,6,-1
 469 284 l 2,7,8
 469 422 469 422 429 483 c 0,9,10
 385 550 385 550 290 550 c 0,11,12
 198 550 198 550 154 483 c 128,-1,13
 110 416 110 416 110 284 c 2,14,-1
 110 0 l 1,15,-1
 80 0 l 1,16,-1
 80 568 l 1,17,-1
 110 568 l 1,18,-1
 110 452 l 1,19,20
 119 475 119 475 135 499 c 0,21,0
 188 580 188 580 296 580 c 128,-1,1
EndSplineSet
EndChar

StartChar: o
Encoding: 111 111 82
Width: 607
Flags: W
LayerCount: 2
Fore
SplineSet
304 580 m 0,0,1
 438 580 438 580 501 475 c 0,2,3
 547 398 547 398 547 284 c 128,-1,4
 547 170 547 170 501 93 c 0,5,6
 438 -12 438 -12 304 -12 c 0,7,8
 169 -12 169 -12 106 93 c 0,9,10
 60 170 60 170 60 284 c 128,-1,11
 60 398 60 398 106 475 c 0,12,13
 169 580 169 580 304 580 c 0,0,1
304 550 m 0,14,15
 187 550 187 550 132 459 c 0,16,17
 90 389 90 389 90 284 c 128,-1,18
 90 179 90 179 132 109 c 0,19,20
 187 18 187 18 304 18 c 0,21,22
 420 18 420 18 475 109 c 0,23,24
 517 179 517 179 517 284 c 128,-1,25
 517 389 517 389 475 459 c 0,26,27
 420 550 420 550 304 550 c 0,14,15
EndSplineSet
EndChar

StartChar: p
Encoding: 112 112 83
Width: 627
Flags: W
LayerCount: 2
Fore
SplineSet
80 -260 m 1,0,-1
 80 568 l 1,1,-1
 108 568 l 1,2,-1
 110 433 l 1,3,4
 123 464 123 464 130 475 c 0,5,6
 193 580 193 580 328 580 c 0,7,8
 458 580 458 580 521 475 c 0,9,10
 568 397 568 397 568 284 c 128,-1,11
 568 171 568 171 521 93 c 0,12,13
 458 -12 458 -12 328 -12 c 0,14,15
 193 -12 193 -12 130 93 c 0,16,17
 123 104 123 104 110 135 c 1,18,-1
 110 -260 l 1,19,-1
 80 -260 l 1,0,-1
324 18 m 128,-1,21
 441 18 441 18 496 109 c 0,22,23
 538 179 538 179 538 284 c 128,-1,24
 538 389 538 389 496 459 c 0,25,26
 441 550 441 550 324 550 c 128,-1,27
 207 550 207 550 152 459 c 0,28,29
 110 389 110 389 110 284 c 128,-1,30
 110 179 110 179 152 109 c 0,31,20
 207 18 207 18 324 18 c 128,-1,21
EndSplineSet
EndChar

StartChar: q
Encoding: 113 113 84
Width: 627
Flags: W
LayerCount: 2
Fore
SplineSet
548 -260 m 1,0,-1
 518 -260 l 1,1,-1
 518 135 l 1,2,3
 507 109 507 109 497 93 c 0,4,5
 434 -12 434 -12 300 -12 c 0,6,7
 169 -12 169 -12 106 93 c 0,8,9
 60 170 60 170 60 284 c 128,-1,10
 60 398 60 398 106 475 c 0,11,12
 169 580 169 580 300 580 c 0,13,14
 434 580 434 580 497 475 c 0,15,16
 507 459 507 459 518 433 c 1,17,-1
 520 568 l 1,18,-1
 548 568 l 1,19,-1
 548 -260 l 1,0,-1
304 18 m 0,20,21
 420 18 420 18 475 109 c 0,22,23
 517 179 517 179 517 284 c 128,-1,24
 517 389 517 389 475 459 c 0,25,26
 420 550 420 550 304 550 c 0,27,28
 187 550 187 550 132 459 c 0,29,30
 90 389 90 389 90 284 c 128,-1,31
 90 179 90 179 132 109 c 0,32,33
 187 18 187 18 304 18 c 0,20,21
EndSplineSet
EndChar

StartChar: r
Encoding: 114 114 85
Width: 355
Flags: W
LayerCount: 2
Fore
SplineSet
276 580 m 0,0,1
 304 580 304 580 336 567 c 1,2,-1
 319 540 l 1,3,4
 291 551 291 551 268 551 c 0,5,6
 214 551 214 551 173 501 c 0,7,8
 110 425 110 425 110 284 c 2,9,-1
 110 0 l 1,10,-1
 80 0 l 1,11,-1
 80 568 l 1,12,-1
 110 568 l 1,13,-1
 110 442 l 1,14,15
 128 488 128 488 156 520 c 0,16,17
 203 578 203 578 272 580 c 2,18,19
 272 580 272 580 276 580 c 0,0,1
EndSplineSet
EndChar

StartChar: s
Encoding: 115 115 86
Width: 447
Flags: W
LayerCount: 2
Fore
SplineSet
236 580 m 0,0,1
 327 580 327 580 368 526 c 1,2,-1
 345 507 l 1,3,4
 331 525 331 525 300.5 537.5 c 128,-1,5
 270 550 270 550 236 550 c 0,6,7
 180 550 180 550 143 523 c 128,-1,8
 106 496 106 496 106 447 c 0,9,10
 106 403 106 403 145 369 c 0,11,12
 169 348 169 348 239 312 c 128,-1,13
 309 276 309 276 339 248 c 0,14,15
 388 202 388 202 388 137 c 0,16,17
 388 77 388 77 343 32.5 c 128,-1,18
 298 -12 298 -12 227 -12 c 0,19,20
 111 -12 111 -12 60 51 c 1,21,-1
 83 70 l 1,22,23
 104 45 104 45 134 31.5 c 128,-1,24
 164 18 164 18 227 18 c 0,25,26
 287 18 287 18 322.5 54 c 128,-1,27
 358 90 358 90 358 137 c 0,28,29
 358 188 358 188 318 226 c 0,30,31
 291 252 291 252 225 286 c 0,32,33
 150 325 150 325 125 346 c 0,34,35
 76 388 76 388 76 447 c 0,36,37
 76 511 76 511 125 547 c 0,38,39
 170 580 170 580 236 580 c 0,0,1
EndSplineSet
EndChar

StartChar: t
Encoding: 116 116 87
Width: 274
Flags: W
LayerCount: 2
Fore
SplineSet
97 720 m 1,0,-1
 127 720 l 1,1,-1
 127 568 l 1,2,-1
 254 568 l 1,3,-1
 254 538 l 1,4,-1
 127 538 l 1,5,-1
 127 233 l 2,6,7
 127 74 127 74 142 43 c 0,8,9
 152 23 152 23 172 19 c 0,10,11
 182 17 182 17 190 17 c 0,12,13
 209 17 209 17 244 25 c 1,14,-1
 251 -4 l 1,15,16
 214 -12 214 -12 190 -12 c 0,17,18
 173 -12 173 -12 165 -10 c 0,19,20
 130 -2 130 -2 115 30 c 0,21,22
 97 66 97 66 97 187 c 2,23,24
 97 187 97 187 97 233 c 2,25,-1
 97 538 l 1,26,-1
 20 538 l 1,27,-1
 20 568 l 1,28,-1
 97 568 l 1,29,-1
 97 720 l 1,0,-1
EndSplineSet
EndChar

StartChar: u
Encoding: 117 117 88
Width: 579
Flags: W
LayerCount: 2
Fore
SplineSet
80 568 m 1,0,-1
 110 568 l 1,1,-1
 110 284 l 2,2,3
 110 146 110 146 150 85 c 0,4,5
 194 18 194 18 290 18 c 0,6,7
 381 18 381 18 425 85 c 128,-1,8
 469 152 469 152 469 284 c 2,9,-1
 469 568 l 1,10,-1
 499 568 l 1,11,-1
 499 284 l 1,12,-1
 499 0 l 1,13,-1
 471 0 l 1,14,-1
 469 116 l 1,15,16
 460 93 460 93 444 69 c 0,17,18
 391 -12 391 -12 284 -12 c 0,19,20
 176 -12 176 -12 123 69 c 0,21,22
 80 135 80 135 80 284 c 2,23,-1
 80 568 l 1,0,-1
EndSplineSet
EndChar

StartChar: v
Encoding: 118 118 89
Width: 485
Flags: W
LayerCount: 2
Fore
SplineSet
20 568 m 1,0,-1
 52 568 l 1,1,-1
 243 23 l 1,2,-1
 433 568 l 1,3,-1
 465 568 l 1,4,-1
 266 0 l 1,5,-1
 250 0 l 1,6,-1
 235 0 l 1,7,-1
 219 0 l 1,8,-1
 20 568 l 1,0,-1
EndSplineSet
EndChar

StartChar: w
Encoding: 119 119 90
Width: 866
Flags: W
LayerCount: 2
Fore
SplineSet
20 568 m 1,0,-1
 52 568 l 1,1,-1
 235 45 l 1,2,-1
 417 568 l 1,3,-1
 449 568 l 1,4,-1
 632 45 l 1,5,-1
 815 568 l 1,6,-1
 846 568 l 1,7,-1
 648 0 l 1,8,-1
 616 0 l 1,9,-1
 433 522 l 1,10,-1
 250 0 l 1,11,-1
 219 0 l 1,12,-1
 20 568 l 1,0,-1
EndSplineSet
EndChar

StartChar: x
Encoding: 120 120 91
Width: 464
Flags: W
LayerCount: 2
Fore
SplineSet
20 568 m 1,0,-1
 56 568 l 1,1,-1
 232 310 l 1,2,-1
 409 568 l 1,3,-1
 445 568 l 1,4,-1
 251 284 l 1,5,-1
 445 0 l 1,6,-1
 409 0 l 1,7,-1
 232 257 l 1,8,-1
 56 0 l 1,9,-1
 20 0 l 1,10,-1
 214 284 l 1,11,-1
 20 568 l 1,0,-1
EndSplineSet
EndChar

StartChar: y
Encoding: 121 121 92
Width: 485
Flags: W
LayerCount: 2
Fore
SplineSet
20 568 m 1,0,-1
 52 568 l 1,1,-1
 60 545 l 1,2,-1
 243 23 l 1,3,-1
 313 223 l 1,4,-1
 433 568 l 1,5,-1
 465 568 l 1,6,-1
 341 213 l 1,7,-1
 214 -150 l 2,8,9
 185 -235 185 -235 138 -261 c 0,10,11
 115 -274 115 -274 89 -274 c 0,12,13
 65 -274 65 -274 31 -262 c 1,14,-1
 41 -233 l 1,15,16
 73 -243 73 -243 90 -243 c 0,17,18
 110 -243 110 -243 123 -235 c 0,19,20
 160 -215 160 -215 186 -140 c 2,21,-1
 227 -22 l 1,22,-1
 219 0 l 1,23,-1
 20 568 l 1,0,-1
EndSplineSet
EndChar

StartChar: z
Encoding: 122 122 93
Width: 510
Flags: W
LayerCount: 2
Fore
SplineSet
60 568 m 1,0,-1
 415 568 l 1,1,-1
 451 568 l 1,2,-1
 114 30 l 1,3,-1
 451 30 l 1,4,-1
 451 0 l 1,5,-1
 95 0 l 1,6,-1
 60 0 l 1,7,-1
 397 538 l 1,8,-1
 60 538 l 1,9,-1
 60 568 l 1,0,-1
EndSplineSet
EndChar

StartChar: braceleft
Encoding: 123 123 94
Width: 348
Flags: W
LayerCount: 2
Fore
SplineSet
298 849 m 1,0,-1
 298 819 l 1,1,2
 259 819 259 819 241 793 c 0,3,4
 225 770 225 770 218 724 c 0,5,6
 215 697 215 697 215 667 c 0,7,8
 215 646 215 646 216.5 613 c 128,-1,9
 218 580 218 580 218 571 c 0,10,11
 218 558 218 558 218.5 528.5 c 128,-1,12
 219 499 219 499 219 483 c 0,13,14
 219 414 219 414 210 377 c 0,15,16
 198 325 198 325 170 297 c 0,17,18
 158 286 158 286 145 278 c 1,19,20
 161 269 161 269 170 260 c 0,21,22
 198 232 198 232 210 180 c 0,23,24
 219 143 219 143 219 74 c 0,25,26
 219 58 219 58 218.5 28 c 128,-1,27
 218 -2 218 -2 218 -15 c 0,28,29
 218 -24 218 -24 216.5 -57 c 128,-1,30
 215 -90 215 -90 215 -110 c 0,31,32
 215 -140 215 -140 218 -167 c 0,33,34
 225 -213 225 -213 241 -236 c 0,35,36
 260 -263 260 -263 298 -263 c 1,37,-1
 298 -293 l 1,38,39
 246 -293 246 -293 217 -254 c 0,40,41
 195 -224 195 -224 188 -171 c 0,42,43
 184 -144 184 -144 184 -110 c 0,44,45
 184 -87 184 -87 186 -54.5 c 128,-1,46
 188 -22 188 -22 188 -15 c 0,47,48
 188 -3 188 -3 188.5 22.5 c 128,-1,49
 189 48 189 48 189 61 c 0,50,51
 189 131 189 131 180 173 c 0,52,53
 170 218 170 218 149 239 c 0,54,55
 125 263 125 263 80 263 c 1,56,-1
 80 293 l 1,57,58
 124 293 124 293 149 318 c 0,59,60
 171 340 171 340 180 383 c 0,61,62
 189 425 189 425 189 495 c 0,63,64
 189 508 189 508 188.5 533.5 c 128,-1,65
 188 559 188 559 188 571 c 0,66,67
 188 578 188 578 186 610.5 c 128,-1,68
 184 643 184 643 184 666 c 0,69,70
 184 701 184 701 188 728 c 0,71,72
 195 781 195 781 217 811 c 0,73,74
 245 849 245 849 298 849 c 1,0,-1
EndSplineSet
EndChar

StartChar: bar
Encoding: 124 124 95
Width: 190
Flags: W
LayerCount: 2
Fore
SplineSet
80 930 m 1,0,-1
 110 930 l 1,1,-1
 110 -351 l 1,2,-1
 80 -351 l 1,3,-1
 80 930 l 1,0,-1
EndSplineSet
EndChar

StartChar: braceright
Encoding: 125 125 96
Width: 348
Flags: W
LayerCount: 2
Fore
SplineSet
50 849 m 1,0,1
 103 849 103 849 131 811 c 0,2,3
 153 781 153 781 160 728 c 0,4,5
 164 701 164 701 164 666 c 0,6,7
 164 643 164 643 162 610.5 c 128,-1,8
 160 578 160 578 160 571 c 0,9,10
 160 559 160 559 159.5 533.5 c 128,-1,11
 159 508 159 508 159 495 c 0,12,13
 159 425 159 425 168 383 c 0,14,15
 177 340 177 340 199 318 c 0,16,17
 224 293 224 293 268 293 c 1,18,-1
 268 263 l 1,19,20
 223 263 223 263 199 239 c 0,21,22
 178 218 178 218 168 173 c 0,23,24
 159 131 159 131 159 61 c 0,25,26
 159 48 159 48 159.5 22.5 c 128,-1,27
 160 -3 160 -3 160 -15 c 0,28,29
 160 -22 160 -22 162 -54.5 c 128,-1,30
 164 -87 164 -87 164 -110 c 0,31,32
 164 -144 164 -144 160 -171 c 0,33,34
 153 -224 153 -224 131 -254 c 0,35,36
 102 -293 102 -293 50 -293 c 1,37,-1
 50 -263 l 1,38,39
 88 -263 88 -263 107 -236 c 0,40,41
 123 -213 123 -213 130 -167 c 0,42,43
 133 -140 133 -140 133 -110 c 0,44,45
 133 -90 133 -90 131.5 -57 c 128,-1,46
 130 -24 130 -24 130 -15 c 0,47,48
 130 -2 130 -2 129.5 28 c 128,-1,49
 129 58 129 58 129 74 c 0,50,51
 129 143 129 143 138 180 c 0,52,53
 150 232 150 232 178 260 c 0,54,55
 187 269 187 269 203 278 c 1,56,57
 190 286 190 286 178 297 c 0,58,59
 150 325 150 325 138 377 c 0,60,61
 129 414 129 414 129 483 c 0,62,63
 129 499 129 499 129.5 528.5 c 128,-1,64
 130 558 130 558 130 571 c 0,65,66
 130 580 130 580 131.5 613 c 128,-1,67
 133 646 133 646 133 667 c 0,68,69
 133 697 133 697 130 724 c 0,70,71
 123 770 123 770 107 793 c 0,72,73
 89 819 89 819 50 819 c 1,74,-1
 50 849 l 1,0,1
EndSplineSet
EndChar

StartChar: asciitilde
Encoding: 126 126 97
Width: 682
Flags: W
LayerCount: 2
Fore
SplineSet
236 518 m 2,0,1
 236 518 236 518 240 518 c 0,2,3
 291 518 291 518 367 484 c 0,4,5
 440 452 440 452 471 451 c 2,6,7
 471 451 471 451 475 451 c 0,8,9
 522 451 522 451 565 502 c 1,10,-1
 603 470 l 1,11,12
 546 401 546 401 472 401 c 2,13,14
 472 401 472 401 469 401 c 0,15,16
 458 401 458 401 446.5 403 c 128,-1,17
 435 405 435 405 426.5 407 c 128,-1,18
 418 409 418 409 405 414 c 128,-1,19
 392 419 392 419 386 421.5 c 128,-1,20
 380 424 380 424 365.5 430 c 128,-1,21
 351 436 351 436 347 438 c 0,22,23
 273 468 273 468 240 468 c 2,24,-1
 237 468 l 2,25,26
 176 466 176 466 116 406 c 1,27,-1
 80 442 l 1,28,29
 153 516 153 516 236 518 c 2,0,1
EndSplineSet
EndChar

StartChar: exclamdown
Encoding: 161 161 98
Width: 219
Flags: W
LayerCount: 2
Fore
SplineSet
95 -11 m 1,0,-1
 95 658 l 1,1,-1
 125 658 l 1,2,-1
 125 -11 l 1,3,-1
 95 -11 l 1,0,-1
110 776 m 128,-1,5
 93 776 93 776 86 787 c 0,6,7
 80 796 80 796 80 808 c 0,8,9
 80 819 80 819 86 828 c 0,10,11
 93 839 93 839 110 839 c 128,-1,12
 127 839 127 839 134 828 c 0,13,14
 140 819 140 819 140 808 c 0,15,16
 140 796 140 796 134 787 c 0,17,4
 127 776 127 776 110 776 c 128,-1,5
EndSplineSet
EndChar

StartChar: cent
Encoding: 162 162 99
Width: 568
Flags: W
LayerCount: 2
Fore
SplineSet
281 825 m 1,0,-1
 311 825 l 1,1,-1
 311 692 l 1,2,3
 311 692 311 692 324 692 c 0,4,5
 428 692 428 692 489 629 c 1,6,-1
 467 608 l 1,7,8
 415 662 415 662 324 662 c 2,9,10
 324 662 324 662 311 662 c 1,11,-1
 311 130 l 1,12,13
 311 130 311 130 324 130 c 0,14,15
 413 130 413 130 469 174 c 1,16,-1
 487 150 l 1,17,18
 424 100 424 100 324 100 c 2,19,20
 324 100 324 100 311 100 c 1,21,-1
 311 -33 l 1,22,-1
 281 -33 l 1,23,-1
 281 103 l 1,24,25
 177 118 177 118 126 205 c 0,26,27
 80 282 80 282 80 396 c 128,-1,28
 80 510 80 510 126 587 c 0,29,30
 177 674 177 674 281 689 c 1,31,-1
 281 825 l 1,0,-1
281 659 m 1,32,33
 197 646 197 646 152 571 c 0,34,35
 110 501 110 501 110 396 c 128,-1,36
 110 291 110 291 152 221 c 0,37,38
 197 146 197 146 281 133 c 1,39,-1
 281 659 l 1,32,33
EndSplineSet
EndChar

StartChar: sterling
Encoding: 163 163 100
Width: 794
Flags: W
LayerCount: 2
Fore
SplineSet
445 851 m 2,0,1
 547 851 547 851 646 797 c 1,2,-1
 631 770 l 1,3,4
 537 821 537 821 441 821 c 0,5,6
 397 821 397 821 358 809 c 0,7,8
 222 766 222 766 222 618 c 0,9,10
 222 558 222 558 228 430 c 1,11,-1
 583 430 l 1,12,-1
 583 400 l 1,13,-1
 229 400 l 1,14,15
 229 388 229 388 230 365.5 c 128,-1,16
 231 343 231 343 231.5 324.5 c 128,-1,17
 232 306 232 306 232 290 c 0,18,19
 232 268 232 268 230 230 c 0,20,21
 225 131 225 131 199 72 c 0,22,23
 192 55 192 55 180 38 c 1,24,25
 231 49 231 49 285 49 c 0,26,27
 337 49 337 49 464 27 c 0,28,29
 528 17 528 17 552 17 c 0,30,31
 574 17 574 17 590 21 c 0,32,33
 647 34 647 34 689 97 c 1,34,-1
 714 81 l 1,35,36
 666 8 666 8 596 -8 c 0,37,38
 576 -13 576 -13 548 -13 c 0,39,40
 511 -13 511 -13 459 -3 c 0,41,42
 327 19 327 19 282 19 c 0,43,44
 202 19 202 19 126 -8 c 0,45,46
 112 -14 112 -14 104 -16 c 1,47,-1
 95 12 l 1,48,49
 102 15 102 15 114 19 c 0,50,51
 150 36 150 36 172 84 c 0,52,53
 195 139 195 139 200 231 c 0,54,55
 202 269 202 269 202 291 c 0,56,57
 202 307 202 307 201.5 325 c 128,-1,58
 201 343 201 343 200 365 c 128,-1,59
 199 387 199 387 199 400 c 1,60,-1
 80 400 l 1,61,-1
 80 430 l 1,62,-1
 198 430 l 1,63,64
 192 558 192 558 192 618 c 0,65,66
 192 702 192 702 235 758.5 c 128,-1,67
 278 815 278 815 349 837 c 0,68,69
 393 851 393 851 438 851 c 2,70,-1
 445 851 l 2,0,1
EndSplineSet
EndChar

StartChar: Euro
Encoding: 8364 8364 101
Width: 811
Flags: W
LayerCount: 2
Fore
SplineSet
495 851 m 0,0,1
 642 851 642 851 732 759 c 1,2,-1
 710 738 l 1,3,4
 629 821 629 821 495 821 c 0,5,6
 319 821 319 821 237 683 c 0,7,8
 191 606 191 606 179 494 c 1,9,-1
 583 494 l 1,10,-1
 583 464 l 1,11,-1
 176 464 l 1,12,13
 175 449 175 449 175 419 c 0,14,15
 175 404 175 404 177 370 c 1,16,-1
 535 370 l 1,17,-1
 535 340 l 1,18,-1
 180 340 l 1,19,20
 194 227 194 227 237 156 c 0,21,22
 319 18 319 18 495 18 c 0,23,24
 628 18 628 18 712 85 c 1,25,-1
 731 61 l 1,26,27
 640 -12 640 -12 495 -12 c 0,28,29
 303 -12 303 -12 212 141 c 0,30,31
 163 222 163 222 149 340 c 1,32,-1
 80 340 l 1,33,-1
 80 370 l 1,34,-1
 146 370 l 1,35,36
 145 387 145 387 145 419 c 0,37,38
 145 449 145 449 146 464 c 1,39,-1
 80 464 l 1,40,-1
 80 494 l 1,41,-1
 149 494 l 1,42,43
 161 611 161 611 212 698 c 0,44,45
 303 851 303 851 495 851 c 0,0,1
EndSplineSet
EndChar

StartChar: yen
Encoding: 165 165 102
Width: 745
Flags: W
LayerCount: 2
Fore
SplineSet
80 839 m 1,0,-1
 116 839 l 1,1,-1
 373 447 l 1,2,-1
 630 839 l 1,3,-1
 665 839 l 1,4,-1
 397 430 l 1,5,-1
 624 430 l 1,6,-1
 624 400 l 1,7,-1
 388 400 l 1,8,-1
 388 338 l 1,9,-1
 624 338 l 1,10,-1
 624 308 l 1,11,-1
 388 308 l 1,12,-1
 388 0 l 1,13,-1
 358 0 l 1,14,-1
 358 308 l 1,15,-1
 121 308 l 1,16,-1
 121 338 l 1,17,-1
 358 338 l 1,18,-1
 358 400 l 1,19,-1
 121 400 l 1,20,-1
 121 430 l 1,21,-1
 348 430 l 1,22,-1
 80 839 l 1,0,-1
EndSplineSet
EndChar

StartChar: Scaron
Encoding: 352 352 103
Width: 590
Flags: W
LayerCount: 2
Fore
SplineSet
260 1022 m 1,0,-1
 283 1022 l 1,1,-1
 317 930 l 1,2,-1
 352 1022 l 1,3,-1
 375 1022 l 1,4,-1
 332 889 l 1,5,-1
 302 889 l 1,6,-1
 260 1022 l 1,0,-1
315 851 m 0,7,8
 375 851 375 851 425.5 830 c 128,-1,9
 476 809 476 809 504 773 c 1,10,-1
 480 754 l 1,11,12
 457 783 457 783 412 802 c 128,-1,13
 367 821 367 821 315 821 c 0,14,15
 229 821 229 821 173 779 c 0,16,17
 115 736 115 736 115 661 c 0,18,19
 115 591 115 591 175 539 c 0,20,21
 208 511 208 511 315 455 c 0,22,23
 419 401 419 401 461 361 c 0,24,25
 531 294 531 294 531 201 c 0,26,27
 531 116 531 116 467 52 c 128,-1,28
 403 -12 403 -12 301 -12 c 0,29,30
 135 -12 135 -12 60 79 c 1,31,-1
 83 98 l 1,32,33
 114 60 114 60 161 39 c 128,-1,34
 208 18 208 18 301 18 c 0,35,36
 392 18 392 18 446.5 73 c 128,-1,37
 501 128 501 128 501 201 c 0,38,39
 501 282 501 282 441 339 c 0,40,41
 403 375 403 375 301 428 c 0,42,43
 189 486 189 486 155 516 c 0,44,45
 85 577 85 577 85 661 c 0,46,47
 85 751 85 751 155 803 c 0,48,49
 220 851 220 851 315 851 c 0,7,8
EndSplineSet
EndChar

StartChar: section
Encoding: 167 167 104
Width: 487
Flags: W
LayerCount: 2
Fore
SplineSet
256 846 m 0,0,1
 346 846 346 846 388 791 c 1,2,-1
 365 773 l 1,3,4
 351 791 351 791 320.5 803.5 c 128,-1,5
 290 816 290 816 256 816 c 0,6,7
 200 816 200 816 163 789 c 128,-1,8
 126 762 126 762 126 713 c 0,9,10
 126 667 126 667 166 633 c 0,11,12
 185 617 185 617 263 576 c 0,13,14
 331 541 331 541 361 512 c 0,15,16
 408 467 408 467 408 402 c 0,17,18
 408 362 408 362 385.5 326 c 128,-1,19
 363 290 363 290 325 271 c 1,20,21
 349 255 349 255 359 245 c 0,22,23
 408 199 408 199 408 134 c 0,24,25
 408 74 408 74 363 29.5 c 128,-1,26
 318 -15 318 -15 247 -15 c 0,27,28
 131 -15 131 -15 80 48 c 1,29,-1
 103 67 l 1,30,31
 124 42 124 42 154 28.5 c 128,-1,32
 184 15 184 15 247 15 c 0,33,34
 307 15 307 15 342.5 51 c 128,-1,35
 378 87 378 87 378 134 c 0,36,37
 378 185 378 185 338 223 c 0,38,39
 311 249 311 249 245 283 c 0,40,41
 170 322 170 322 145 343 c 0,42,43
 96 385 96 385 96 444 c 0,44,45
 96 508 96 508 145 544 c 0,46,47
 171 564 171 564 206 572 c 1,48,49
 170 591 170 591 147 610 c 0,50,51
 96 652 96 652 96 713 c 0,52,53
 96 777 96 777 145 813 c 0,54,55
 190 846 190 846 256 846 c 0,0,1
253 547 m 1,56,57
 197 545 197 545 163 520 c 0,58,59
 126 493 126 493 126 444 c 0,60,61
 126 400 126 400 165 366 c 0,62,63
 189 345 189 345 259 309 c 0,64,65
 265 306 265 306 276 300 c 128,-1,66
 287 294 287 294 293 291 c 1,67,68
 332 303 332 303 355 334.5 c 128,-1,69
 378 366 378 366 378 402 c 0,70,71
 378 452 378 452 340 490 c 0,72,73
 312 516 312 516 253 547 c 1,56,57
EndSplineSet
EndChar

StartChar: scaron
Encoding: 353 353 105
Width: 447
Flags: W
LayerCount: 2
Fore
SplineSet
177 768 m 1,0,-1
 200 768 l 1,1,-1
 234 675 l 1,2,-1
 269 768 l 1,3,-1
 292 768 l 1,4,-1
 249 635 l 1,5,-1
 219 635 l 1,6,-1
 177 768 l 1,0,-1
236 580 m 0,7,8
 327 580 327 580 368 526 c 1,9,-1
 345 507 l 1,10,11
 331 525 331 525 300.5 537.5 c 128,-1,12
 270 550 270 550 236 550 c 0,13,14
 180 550 180 550 143 523 c 128,-1,15
 106 496 106 496 106 447 c 0,16,17
 106 403 106 403 145 369 c 0,18,19
 169 348 169 348 239 312 c 128,-1,20
 309 276 309 276 339 248 c 0,21,22
 388 202 388 202 388 137 c 0,23,24
 388 77 388 77 343 32.5 c 128,-1,25
 298 -12 298 -12 227 -12 c 0,26,27
 111 -12 111 -12 60 51 c 1,28,-1
 83 70 l 1,29,30
 104 45 104 45 134 31.5 c 128,-1,31
 164 18 164 18 227 18 c 0,32,33
 287 18 287 18 322.5 54 c 128,-1,34
 358 90 358 90 358 137 c 0,35,36
 358 188 358 188 318 226 c 0,37,38
 291 252 291 252 225 286 c 0,39,40
 150 325 150 325 125 346 c 0,41,42
 76 388 76 388 76 447 c 0,43,44
 76 511 76 511 125 547 c 0,45,46
 170 580 170 580 236 580 c 0,7,8
EndSplineSet
EndChar

StartChar: copyright
Encoding: 169 169 106
Width: 916
Flags: W
LayerCount: 2
Fore
SplineSet
458 734 m 128,-1,1
 615 734 615 734 726 623 c 128,-1,2
 837 512 837 512 837 355 c 128,-1,3
 837 198 837 198 726 87.5 c 128,-1,4
 615 -23 615 -23 458 -23 c 128,-1,5
 301 -23 301 -23 190.5 87.5 c 128,-1,6
 80 198 80 198 80 355 c 128,-1,7
 80 512 80 512 190.5 623 c 128,-1,0
 301 734 301 734 458 734 c 128,-1,1
458 704 m 128,-1,9
 313 704 313 704 211.5 602 c 128,-1,10
 110 500 110 500 110 355 c 128,-1,11
 110 210 110 210 211.5 108.5 c 128,-1,12
 313 7 313 7 458 7 c 128,-1,13
 603 7 603 7 705 108.5 c 128,-1,14
 807 210 807 210 807 355 c 128,-1,15
 807 500 807 500 705 602 c 128,-1,8
 603 704 603 704 458 704 c 128,-1,9
469 565 m 0,16,17
 542 565 542 565 585 520 c 1,18,-1
 564 499 l 1,19,20
 530 535 530 535 469 535 c 0,21,22
 393 535 393 535 356 474 c 0,23,24
 327 426 327 426 327 355 c 128,-1,25
 327 284 327 284 356 236 c 0,26,27
 392 176 392 176 469 176 c 0,28,29
 526 176 526 176 565 205 c 1,30,-1
 584 182 l 1,31,32
 540 146 540 146 469 146 c 0,33,34
 375 146 375 146 330 221 c 0,35,36
 297 276 297 276 297 355 c 0,37,38
 297 435 297 435 330 490 c 0,39,40
 375 565 375 565 469 565 c 0,16,17
EndSplineSet
EndChar

StartChar: registered
Encoding: 174 174 107
Width: 651
Flags: W
LayerCount: 2
Fore
SplineSet
326 822 m 128,-1,1
 428 822 428 822 500 750 c 128,-1,2
 572 678 572 678 572 576 c 128,-1,3
 572 474 572 474 500 402 c 128,-1,4
 428 330 428 330 326 330 c 128,-1,5
 224 330 224 330 152 402 c 128,-1,6
 80 474 80 474 80 576 c 128,-1,7
 80 678 80 678 152 750 c 128,-1,0
 224 822 224 822 326 822 c 128,-1,1
326 797 m 128,-1,9
 234 797 234 797 169.5 732.5 c 128,-1,10
 105 668 105 668 105 576 c 128,-1,11
 105 484 105 484 169.5 419.5 c 128,-1,12
 234 355 234 355 326 355 c 128,-1,13
 418 355 418 355 482.5 419.5 c 128,-1,14
 547 484 547 484 547 576 c 128,-1,15
 547 668 547 668 482.5 732.5 c 128,-1,8
 418 797 418 797 326 797 c 128,-1,9
251 714 m 1,16,-1
 276 714 l 1,17,-1
 341 714 l 2,18,19
 381 714 381 714 399 683 c 0,20,21
 411 663 411 663 411 629 c 128,-1,22
 411 595 411 595 399 575 c 0,23,24
 387 554 387 554 364 547 c 1,25,-1
 423 436 l 1,26,-1
 395 436 l 1,27,-1
 338 544 l 1,28,-1
 276 544 l 1,29,-1
 276 436 l 1,30,-1
 251 436 l 1,31,-1
 251 714 l 1,16,-1
276 689 m 1,32,-1
 276 569 l 1,33,-1
 341 569 l 2,34,35
 366 569 366 569 377 588 c 0,36,37
 386 603 386 603 386 629 c 128,-1,38
 386 655 386 655 377 670 c 0,39,40
 366 689 366 689 341 689 c 2,41,-1
 276 689 l 1,32,-1
EndSplineSet
EndChar

StartChar: degree
Encoding: 176 176 108
Width: 329
Flags: W
LayerCount: 2
Fore
SplineSet
165 912 m 128,-1,1
 200 912 200 912 224.5 887.5 c 128,-1,2
 249 863 249 863 249 828 c 128,-1,3
 249 793 249 793 224.5 768 c 128,-1,4
 200 743 200 743 165 743 c 128,-1,5
 130 743 130 743 105 768 c 128,-1,6
 80 793 80 793 80 828 c 128,-1,7
 80 863 80 863 105 887.5 c 128,-1,0
 130 912 130 912 165 912 c 128,-1,1
165 887 m 128,-1,9
 140 887 140 887 122.5 870 c 128,-1,10
 105 853 105 853 105 828 c 128,-1,11
 105 803 105 803 122.5 785.5 c 128,-1,12
 140 768 140 768 165 768 c 128,-1,13
 190 768 190 768 207 785.5 c 128,-1,14
 224 803 224 803 224 828 c 128,-1,15
 224 853 224 853 207 870 c 128,-1,8
 190 887 190 887 165 887 c 128,-1,9
EndSplineSet
EndChar

StartChar: plusminus
Encoding: 177 177 109
Width: 701
Flags: W
LayerCount: 2
Fore
SplineSet
336 705 m 1,0,-1
 366 705 l 1,1,-1
 366 449 l 1,2,-1
 622 449 l 1,3,-1
 622 419 l 1,4,-1
 366 419 l 1,5,-1
 366 163 l 1,6,-1
 336 163 l 1,7,-1
 336 419 l 1,8,-1
 80 419 l 1,9,-1
 80 449 l 1,10,-1
 336 449 l 1,11,-1
 336 705 l 1,0,-1
80 49 m 1,12,-1
 622 49 l 1,13,-1
 622 19 l 1,14,-1
 80 19 l 1,15,-1
 80 49 l 1,12,-1
EndSplineSet
EndChar

StartChar: Zcaron
Encoding: 381 381 110
Width: 662
Flags: W
LayerCount: 2
Fore
SplineSet
274 1022 m 1,0,-1
 297 1022 l 1,1,-1
 331 930 l 1,2,-1
 366 1022 l 1,3,-1
 389 1022 l 1,4,-1
 346 889 l 1,5,-1
 316 889 l 1,6,-1
 274 1022 l 1,0,-1
80 839 m 1,7,-1
 548 839 l 1,8,-1
 562 839 l 1,9,-1
 583 839 l 1,10,-1
 131 30 l 1,11,-1
 583 30 l 1,12,-1
 583 0 l 1,13,-1
 114 0 l 1,14,-1
 101 0 l 1,15,-1
 80 0 l 1,16,-1
 531 809 l 1,17,-1
 80 809 l 1,18,-1
 80 839 l 1,7,-1
EndSplineSet
EndChar

StartChar: mu
Encoding: 181 181 111
Width: 579
Flags: W
LayerCount: 2
Fore
SplineSet
80 568 m 1,0,-1
 110 568 l 1,1,-1
 110 284 l 2,2,3
 110 146 110 146 150 85 c 0,4,5
 194 18 194 18 290 18 c 0,6,7
 381 18 381 18 425 85 c 128,-1,8
 469 152 469 152 469 284 c 2,9,-1
 469 568 l 1,10,-1
 499 568 l 1,11,-1
 499 284 l 1,12,-1
 499 0 l 1,13,-1
 471 0 l 1,14,-1
 469 116 l 1,15,16
 460 93 460 93 444 69 c 0,17,18
 391 -12 391 -12 284 -12 c 0,19,20
 176 -12 176 -12 123 69 c 0,21,22
 116 78 116 78 110 91 c 1,23,-1
 110 -172 l 1,24,-1
 80 -172 l 1,25,-1
 80 284 l 1,26,-1
 80 568 l 1,0,-1
EndSplineSet
EndChar

StartChar: paragraph
Encoding: 182 182 112
Width: 627
Flags: W
LayerCount: 2
Fore
SplineSet
283 839 m 2,0,-1
 518 839 l 1,1,-1
 533 839 l 1,2,-1
 548 839 l 1,3,-1
 548 -124 l 1,4,-1
 518 -124 l 1,5,-1
 518 809 l 1,6,-1
 412 809 l 1,7,-1
 412 -124 l 1,8,-1
 382 -124 l 1,9,-1
 382 339 l 1,10,-1
 283 339 l 2,11,12
 171 339 171 339 118 428 c 0,13,14
 80 491 80 491 80 589 c 128,-1,15
 80 687 80 687 118 750 c 0,16,17
 171 839 171 839 283 839 c 2,0,-1
283 809 m 2,18,19
 189 809 189 809 144 734 c 0,20,21
 110 678 110 678 110 589 c 128,-1,22
 110 500 110 500 144 444 c 0,23,24
 189 369 189 369 283 369 c 2,25,-1
 382 369 l 1,26,-1
 382 809 l 1,27,-1
 283 809 l 2,18,19
EndSplineSet
EndChar

StartChar: zcaron
Encoding: 382 382 113
Width: 510
Flags: W
LayerCount: 2
Fore
SplineSet
198 768 m 1,0,-1
 221 768 l 1,1,-1
 255 675 l 1,2,-1
 290 768 l 1,3,-1
 313 768 l 1,4,-1
 270 635 l 1,5,-1
 240 635 l 1,6,-1
 198 768 l 1,0,-1
60 568 m 1,7,-1
 415 568 l 1,8,-1
 451 568 l 1,9,-1
 114 30 l 1,10,-1
 451 30 l 1,11,-1
 451 0 l 1,12,-1
 95 0 l 1,13,-1
 60 0 l 1,14,-1
 397 538 l 1,15,-1
 60 538 l 1,16,-1
 60 568 l 1,7,-1
EndSplineSet
EndChar

StartChar: OE
Encoding: 338 338 114
Width: 1044
Flags: W
LayerCount: 2
Fore
SplineSet
410 851 m 0,0,1
 464 851 464 851 507 839 c 1,2,-1
 517 839 l 1,3,-1
 532 839 l 1,4,-1
 965 839 l 1,5,-1
 965 809 l 1,6,-1
 532 809 l 1,7,-1
 532 434 l 1,8,-1
 965 434 l 1,9,-1
 965 404 l 1,10,-1
 532 404 l 1,11,-1
 532 30 l 1,12,-1
 965 30 l 1,13,-1
 965 0 l 1,14,-1
 532 0 l 1,15,-1
 517 0 l 1,16,-1
 507 0 l 1,17,18
 464 -12 464 -12 410 -12 c 0,19,20
 218 -12 218 -12 127 141 c 0,21,22
 60 253 60 253 60 419 c 0,23,24
 60 586 60 586 127 698 c 0,25,26
 218 851 218 851 410 851 c 0,0,1
410 821 m 0,27,28
 235 821 235 821 153 683 c 0,29,30
 90 577 90 577 90 419 c 0,31,32
 90 262 90 262 153 156 c 0,33,34
 235 18 235 18 410 18 c 0,35,36
 460 18 460 18 502 29 c 1,37,-1
 502 810 l 1,38,39
 460 821 460 821 410 821 c 0,27,28
EndSplineSet
EndChar

StartChar: Ydieresis
Encoding: 376 376 115
Width: 625
Flags: W
LayerCount: 2
Fore
SplineSet
266 960 m 128,-1,1
 276 960 276 960 283.5 953 c 128,-1,2
 291 946 291 946 291 935 c 128,-1,3
 291 924 291 924 283.5 917 c 128,-1,4
 276 910 276 910 266 910 c 128,-1,5
 256 910 256 910 248.5 917 c 128,-1,6
 241 924 241 924 241 935 c 128,-1,7
 241 946 241 946 248.5 953 c 128,-1,0
 256 960 256 960 266 960 c 128,-1,1
360 960 m 128,-1,9
 370 960 370 960 377.5 953 c 128,-1,10
 385 946 385 946 385 935 c 128,-1,11
 385 924 385 924 377.5 917 c 128,-1,12
 370 910 370 910 360 910 c 128,-1,13
 350 910 350 910 342.5 917 c 128,-1,14
 335 924 335 924 335 935 c 128,-1,15
 335 946 335 946 342.5 953 c 128,-1,8
 350 960 350 960 360 960 c 128,-1,9
20 839 m 1,16,-1
 56 839 l 1,17,-1
 313 447 l 1,18,-1
 570 839 l 1,19,-1
 605 839 l 1,20,-1
 328 415 l 1,21,-1
 328 0 l 1,22,-1
 298 0 l 1,23,-1
 298 415 l 1,24,-1
 20 839 l 1,16,-1
EndSplineSet
EndChar

StartChar: questiondown
Encoding: 191 191 116
Width: 595
Flags: W
LayerCount: 2
Fore
SplineSet
298 -11 m 128,-1,1
 179 -11 179 -11 122 63 c 0,2,3
 80 118 80 118 80 199 c 0,4,5
 80 244 80 244 88 279.5 c 128,-1,6
 96 315 96 315 115.5 344.5 c 128,-1,7
 135 374 135 374 147 388 c 128,-1,8
 159 402 159 402 186 429 c 0,9,10
 218 461 218 461 235 483.5 c 128,-1,11
 252 506 252 506 267.5 555 c 128,-1,12
 283 604 283 604 283 670 c 1,13,-1
 313 670 l 1,14,15
 313 601 313 601 295.5 546.5 c 128,-1,16
 278 492 278 492 258.5 465.5 c 128,-1,17
 239 439 239 439 207 407 c 0,18,19
 204 404 204 404 198 398 c 0,20,21
 167 367 167 367 152.5 349 c 128,-1,22
 138 331 138 331 124 291.5 c 128,-1,23
 110 252 110 252 110 199 c 0,24,25
 110 128 110 128 146 81 c 0,26,27
 194 19 194 19 298 19 c 128,-1,28
 402 19 402 19 450 81 c 0,29,30
 486 128 486 128 486 199 c 1,31,-1
 516 199 l 1,32,33
 516 118 516 118 474 63 c 0,34,0
 417 -11 417 -11 298 -11 c 128,-1,1
298 788 m 128,-1,36
 281 788 281 788 274 799 c 0,37,38
 268 808 268 808 268 819 c 128,-1,39
 268 830 268 830 274 839 c 0,40,41
 282 851 282 851 298 851 c 128,-1,42
 314 851 314 851 322 839 c 0,43,44
 328 830 328 830 328 819 c 128,-1,45
 328 808 328 808 322 799 c 0,46,35
 315 788 315 788 298 788 c 128,-1,36
EndSplineSet
EndChar

StartChar: Agrave
Encoding: 192 192 117
Width: 659
Flags: W
LayerCount: 2
Fore
SplineSet
268 1020 m 1,0,-1
 298 1020 l 1,1,-1
 340 887 l 1,2,-1
 317 887 l 1,3,-1
 268 1020 l 1,0,-1
314 839 m 1,4,-1
 345 839 l 1,5,-1
 639 0 l 1,6,-1
 607 0 l 1,7,-1
 528 227 l 1,8,-1
 131 227 l 1,9,-1
 52 0 l 1,10,-1
 20 0 l 1,11,-1
 314 839 l 1,4,-1
330 794 m 1,12,-1
 142 257 l 1,13,-1
 517 257 l 1,14,-1
 330 794 l 1,12,-1
EndSplineSet
EndChar

StartChar: Aacute
Encoding: 193 193 118
Width: 659
Flags: W
LayerCount: 2
Fore
SplineSet
361 1020 m 1,0,-1
 391 1020 l 1,1,-1
 342 887 l 1,2,-1
 319 887 l 1,3,-1
 361 1020 l 1,0,-1
314 839 m 1,4,-1
 345 839 l 1,5,-1
 639 0 l 1,6,-1
 607 0 l 1,7,-1
 528 227 l 1,8,-1
 131 227 l 1,9,-1
 52 0 l 1,10,-1
 20 0 l 1,11,-1
 314 839 l 1,4,-1
330 794 m 1,12,-1
 142 257 l 1,13,-1
 517 257 l 1,14,-1
 330 794 l 1,12,-1
EndSplineSet
EndChar

StartChar: Acircumflex
Encoding: 194 194 119
Width: 659
Flags: W
LayerCount: 2
Fore
SplineSet
315 1000 m 1,0,-1
 345 1000 l 1,1,-1
 387 867 l 1,2,-1
 364 867 l 1,3,-1
 330 960 l 1,4,-1
 295 867 l 1,5,-1
 272 867 l 1,6,-1
 315 1000 l 1,0,-1
314 839 m 1,7,-1
 345 839 l 1,8,-1
 639 0 l 1,9,-1
 607 0 l 1,10,-1
 528 227 l 1,11,-1
 131 227 l 1,12,-1
 52 0 l 1,13,-1
 20 0 l 1,14,-1
 314 839 l 1,7,-1
330 794 m 1,15,-1
 142 257 l 1,16,-1
 517 257 l 1,17,-1
 330 794 l 1,15,-1
EndSplineSet
EndChar

StartChar: Atilde
Encoding: 195 195 120
Width: 659
Flags: W
LayerCount: 2
Fore
SplineSet
423 973 m 1,0,-1
 448 956 l 1,1,2
 420 915 420 915 382 913 c 2,3,4
 382 913 382 913 379 913 c 0,5,6
 355 913 355 913 323 929 c 0,7,8
 293 942 293 942 281 942 c 2,9,10
 281 942 281 942 278 942 c 0,11,12
 256 940 256 940 236 912 c 1,13,-1
 211 928 l 1,14,15
 240 970 240 970 277 972 c 2,16,17
 277 972 277 972 280 972 c 0,18,19
 303 972 303 972 335 956 c 0,20,21
 365 943 365 943 377 943 c 2,22,23
 377 943 377 943 380 943 c 0,24,25
 403 945 403 945 423 973 c 1,0,-1
314 839 m 1,26,-1
 345 839 l 1,27,-1
 639 0 l 1,28,-1
 607 0 l 1,29,-1
 528 227 l 1,30,-1
 131 227 l 1,31,-1
 52 0 l 1,32,-1
 20 0 l 1,33,-1
 314 839 l 1,26,-1
330 794 m 1,34,-1
 142 257 l 1,35,-1
 517 257 l 1,36,-1
 330 794 l 1,34,-1
EndSplineSet
EndChar

StartChar: Adieresis
Encoding: 196 196 121
Width: 659
Flags: W
LayerCount: 2
Fore
SplineSet
282 960 m 2,0,-1
 283 960 l 2,1,2
 294 960 294 960 301 953 c 128,-1,3
 308 946 308 946 308 935 c 128,-1,4
 308 924 308 924 301 917 c 128,-1,5
 294 910 294 910 283 910 c 128,-1,6
 272 910 272 910 265 917 c 128,-1,7
 258 924 258 924 258 935 c 128,-1,8
 258 946 258 946 265 953 c 128,-1,9
 272 960 272 960 282 960 c 2,0,-1
376 960 m 2,10,-1
 377 960 l 2,11,12
 388 960 388 960 395 953 c 128,-1,13
 402 946 402 946 402 935 c 128,-1,14
 402 924 402 924 395 917 c 128,-1,15
 388 910 388 910 377 910 c 128,-1,16
 366 910 366 910 359 917 c 128,-1,17
 352 924 352 924 352 935 c 128,-1,18
 352 946 352 946 359 953 c 128,-1,19
 366 960 366 960 376 960 c 2,10,-1
314 839 m 1,20,-1
 345 839 l 1,21,-1
 639 0 l 1,22,-1
 607 0 l 1,23,-1
 528 227 l 1,24,-1
 131 227 l 1,25,-1
 52 0 l 1,26,-1
 20 0 l 1,27,-1
 314 839 l 1,20,-1
330 794 m 1,28,-1
 142 257 l 1,29,-1
 517 257 l 1,30,-1
 330 794 l 1,28,-1
EndSplineSet
EndChar

StartChar: Aring
Encoding: 197 197 122
Width: 659
Flags: W
LayerCount: 2
Fore
SplineSet
330 1027 m 128,-1,1
 364 1027 364 1027 387.5 1003.5 c 128,-1,2
 411 980 411 980 411 946 c 128,-1,3
 411 912 411 912 387.5 888.5 c 128,-1,4
 364 865 364 865 330 865 c 128,-1,5
 296 865 296 865 272.5 888.5 c 128,-1,6
 249 912 249 912 249 946 c 128,-1,7
 249 980 249 980 272.5 1003.5 c 128,-1,0
 296 1027 296 1027 330 1027 c 128,-1,1
330 997 m 128,-1,9
 309 997 309 997 294 982 c 128,-1,10
 279 967 279 967 279 946 c 128,-1,11
 279 925 279 925 294 910 c 128,-1,12
 309 895 309 895 330 895 c 128,-1,13
 351 895 351 895 366 910 c 128,-1,14
 381 925 381 925 381 946 c 128,-1,15
 381 967 381 967 366 982 c 128,-1,8
 351 997 351 997 330 997 c 128,-1,9
314 839 m 1,16,-1
 345 839 l 1,17,-1
 639 0 l 1,18,-1
 607 0 l 1,19,-1
 528 227 l 1,20,-1
 131 227 l 1,21,-1
 52 0 l 1,22,-1
 20 0 l 1,23,-1
 314 839 l 1,16,-1
330 794 m 1,24,-1
 142 257 l 1,25,-1
 517 257 l 1,26,-1
 330 794 l 1,24,-1
EndSplineSet
EndChar

StartChar: AE
Encoding: 198 198 123
Width: 864
Flags: W
LayerCount: 2
Fore
SplineSet
314 839 m 1,0,1
 314 839 314 839 785 839 c 1,2,-1
 785 809 l 1,3,-1
 352 809 l 1,4,-1
 352 434 l 1,5,-1
 785 434 l 1,6,-1
 785 404 l 1,7,-1
 352 404 l 1,8,-1
 352 30 l 1,9,-1
 785 30 l 1,10,-1
 785 0 l 1,11,-1
 322 0 l 1,12,-1
 322 227 l 1,13,-1
 131 227 l 1,14,-1
 52 0 l 1,15,-1
 20 0 l 1,16,-1
 314 839 l 1,0,1
322 771 m 1,17,-1
 142 257 l 1,18,-1
 322 257 l 1,19,-1
 322 771 l 1,17,-1
EndSplineSet
EndChar

StartChar: Ccedilla
Encoding: 199 199 124
Width: 707
Flags: W
LayerCount: 2
Fore
SplineSet
410 851 m 0,0,1
 557 851 557 851 647 759 c 1,2,-1
 626 738 l 1,3,4
 545 821 545 821 410 821 c 0,5,6
 235 821 235 821 153 683 c 0,7,8
 90 577 90 577 90 419 c 0,9,10
 90 262 90 262 153 156 c 0,11,12
 235 18 235 18 410 18 c 0,13,14
 543 18 543 18 627 85 c 1,15,-1
 646 61 l 1,16,17
 557 -10 557 -10 422 -12 c 1,18,-1
 422 -40 l 1,19,20
 448 -43 448 -43 463 -58 c 0,21,22
 480 -74 480 -74 480 -100 c 0,23,24
 480 -128 480 -128 459.5 -148 c 128,-1,25
 439 -168 439 -168 407 -168 c 0,26,27
 354 -168 354 -168 333 -127 c 0,28,29
 321 -103 321 -103 321 -71 c 1,30,-1
 351 -71 l 1,31,32
 351 -97 351 -97 359 -113 c 0,33,34
 372 -138 372 -138 407 -138 c 0,35,36
 427 -138 427 -138 438 -127 c 128,-1,37
 449 -116 449 -116 450 -102 c 0,38,39
 450 -88 450 -88 442 -80 c 0,40,41
 431 -69 431 -69 407 -69 c 2,42,-1
 392 -69 l 1,43,-1
 392 -11 l 1,44,45
 212 -3 212 -3 127 141 c 0,46,47
 60 253 60 253 60 419 c 0,48,49
 60 586 60 586 127 698 c 0,50,51
 218 851 218 851 410 851 c 0,0,1
EndSplineSet
EndChar

StartChar: Egrave
Encoding: 200 200 125
Width: 623
Flags: W
LayerCount: 2
Fore
SplineSet
281 1020 m 1,0,-1
 311 1020 l 1,1,-1
 353 887 l 1,2,-1
 330 887 l 1,3,-1
 281 1020 l 1,0,-1
80 839 m 1,4,-1
 95 839 l 1,5,-1
 110 839 l 1,6,-1
 543 839 l 1,7,-1
 543 809 l 1,8,-1
 110 809 l 1,9,-1
 110 434 l 1,10,-1
 543 434 l 1,11,-1
 543 404 l 1,12,-1
 110 404 l 1,13,-1
 110 30 l 1,14,-1
 543 30 l 1,15,-1
 543 0 l 1,16,-1
 110 0 l 1,17,-1
 95 0 l 1,18,-1
 80 0 l 1,19,-1
 80 839 l 1,4,-1
EndSplineSet
EndChar

StartChar: Eacute
Encoding: 201 201 126
Width: 623
Flags: W
LayerCount: 2
Fore
SplineSet
377 1020 m 1,0,-1
 407 1020 l 1,1,-1
 357 887 l 1,2,-1
 334 887 l 1,3,-1
 377 1020 l 1,0,-1
80 839 m 1,4,-1
 95 839 l 1,5,-1
 110 839 l 1,6,-1
 543 839 l 1,7,-1
 543 809 l 1,8,-1
 110 809 l 1,9,-1
 110 434 l 1,10,-1
 543 434 l 1,11,-1
 543 404 l 1,12,-1
 110 404 l 1,13,-1
 110 30 l 1,14,-1
 543 30 l 1,15,-1
 543 0 l 1,16,-1
 110 0 l 1,17,-1
 95 0 l 1,18,-1
 80 0 l 1,19,-1
 80 839 l 1,4,-1
EndSplineSet
EndChar

StartChar: Ecircumflex
Encoding: 202 202 127
Width: 623
Flags: W
LayerCount: 2
Fore
SplineSet
334 1000 m 1,0,-1
 364 1000 l 1,1,-1
 407 867 l 1,2,-1
 384 867 l 1,3,-1
 349 960 l 1,4,-1
 315 867 l 1,5,-1
 292 867 l 1,6,-1
 334 1000 l 1,0,-1
80 839 m 1,7,-1
 95 839 l 1,8,-1
 110 839 l 1,9,-1
 543 839 l 1,10,-1
 543 809 l 1,11,-1
 110 809 l 1,12,-1
 110 434 l 1,13,-1
 543 434 l 1,14,-1
 543 404 l 1,15,-1
 110 404 l 1,16,-1
 110 30 l 1,17,-1
 543 30 l 1,18,-1
 543 0 l 1,19,-1
 110 0 l 1,20,-1
 95 0 l 1,21,-1
 80 0 l 1,22,-1
 80 839 l 1,7,-1
EndSplineSet
EndChar

StartChar: Edieresis
Encoding: 203 203 128
Width: 623
Flags: W
LayerCount: 2
Fore
SplineSet
296 960 m 2,0,-1
 297 960 l 2,1,2
 308 960 308 960 315 953 c 128,-1,3
 322 946 322 946 322 935 c 128,-1,4
 322 924 322 924 315 917 c 128,-1,5
 308 910 308 910 297 910 c 128,-1,6
 286 910 286 910 279 917 c 128,-1,7
 272 924 272 924 272 935 c 128,-1,8
 272 946 272 946 279 953 c 128,-1,9
 286 960 286 960 296 960 c 2,0,-1
390 960 m 2,10,-1
 391 960 l 2,11,12
 402 960 402 960 409 953 c 128,-1,13
 416 946 416 946 416 935 c 128,-1,14
 416 924 416 924 409 917 c 128,-1,15
 402 910 402 910 391 910 c 128,-1,16
 380 910 380 910 373 917 c 128,-1,17
 366 924 366 924 366 935 c 128,-1,18
 366 946 366 946 373 953 c 128,-1,19
 380 960 380 960 390 960 c 2,10,-1
80 839 m 1,20,-1
 95 839 l 1,21,-1
 110 839 l 1,22,-1
 543 839 l 1,23,-1
 543 809 l 1,24,-1
 110 809 l 1,25,-1
 110 434 l 1,26,-1
 543 434 l 1,27,-1
 543 404 l 1,28,-1
 110 404 l 1,29,-1
 110 30 l 1,30,-1
 543 30 l 1,31,-1
 543 0 l 1,32,-1
 110 0 l 1,33,-1
 95 0 l 1,34,-1
 80 0 l 1,35,-1
 80 839 l 1,20,-1
EndSplineSet
EndChar

StartChar: Igrave
Encoding: 204 204 129
Width: 236
Flags: W
LayerCount: 2
Fore
SplineSet
80 1020 m 1,0,-1
 110 1020 l 1,1,-1
 152 887 l 1,2,-1
 129 887 l 1,3,-1
 80 1020 l 1,0,-1
126 839 m 1,4,-1
 156 839 l 1,5,-1
 156 0 l 1,6,-1
 126 0 l 1,7,-1
 126 839 l 1,4,-1
EndSplineSet
EndChar

StartChar: Iacute
Encoding: 205 205 130
Width: 235
Flags: W
LayerCount: 2
Fore
SplineSet
125 1020 m 1,0,-1
 155 1020 l 1,1,-1
 106 887 l 1,2,-1
 83 887 l 1,3,-1
 125 1020 l 1,0,-1
80 839 m 1,4,-1
 110 839 l 1,5,-1
 110 0 l 1,6,-1
 80 0 l 1,7,-1
 80 839 l 1,4,-1
EndSplineSet
EndChar

StartChar: Icircumflex
Encoding: 206 206 131
Width: 275
Flags: W
LayerCount: 2
Fore
SplineSet
123 1000 m 1,0,-1
 153 1000 l 1,1,-1
 195 867 l 1,2,-1
 172 867 l 1,3,-1
 138 960 l 1,4,-1
 103 867 l 1,5,-1
 80 867 l 1,6,-1
 123 1000 l 1,0,-1
123 839 m 1,7,-1
 153 839 l 1,8,-1
 153 0 l 1,9,-1
 123 0 l 1,10,-1
 123 839 l 1,7,-1
EndSplineSet
EndChar

StartChar: Idieresis
Encoding: 207 207 132
Width: 304
Flags: W
LayerCount: 2
Fore
SplineSet
105 960 m 128,-1,1
 116 960 116 960 123 953 c 128,-1,2
 130 946 130 946 130 935 c 128,-1,3
 130 924 130 924 123 917 c 128,-1,4
 116 910 116 910 105 910 c 128,-1,5
 94 910 94 910 87 917 c 128,-1,6
 80 924 80 924 80 935 c 128,-1,7
 80 946 80 946 87 953 c 128,-1,0
 94 960 94 960 105 960 c 128,-1,1
199 960 m 128,-1,9
 210 960 210 960 217 953 c 128,-1,10
 224 946 224 946 224 935 c 128,-1,11
 224 924 224 924 217 917 c 128,-1,12
 210 910 210 910 199 910 c 128,-1,13
 188 910 188 910 181 917 c 128,-1,14
 174 924 174 924 174 935 c 128,-1,15
 174 946 174 946 181 953 c 128,-1,8
 188 960 188 960 199 960 c 128,-1,9
137 839 m 1,16,-1
 167 839 l 1,17,-1
 167 0 l 1,18,-1
 137 0 l 1,19,-1
 137 839 l 1,16,-1
EndSplineSet
EndChar

StartChar: Eth
Encoding: 208 208 133
Width: 806
Flags: W
LayerCount: 2
Fore
SplineSet
162 839 m 1,0,-1
 192 839 l 1,1,-1
 396 839 l 2,2,3
 589 839 589 839 680 692 c 0,4,5
 747 584 747 584 747 419 c 128,-1,6
 747 254 747 254 680 146 c 0,7,8
 590 0 590 0 396 0 c 2,9,-1
 192 0 l 1,10,-1
 177 0 l 1,11,-1
 162 0 l 1,12,-1
 162 411 l 1,13,-1
 80 411 l 1,14,-1
 80 441 l 1,15,-1
 162 441 l 1,16,-1
 162 839 l 1,0,-1
192 809 m 1,17,-1
 192 441 l 1,18,-1
 286 441 l 1,19,-1
 286 411 l 1,20,-1
 192 411 l 1,21,-1
 192 30 l 1,22,-1
 396 30 l 2,23,24
 573 30 573 30 654 162 c 0,25,26
 717 265 717 265 717 419 c 0,27,28
 717 574 717 574 654 677 c 0,29,30
 573 809 573 809 396 809 c 2,31,-1
 192 809 l 1,17,-1
EndSplineSet
EndChar

StartChar: Ntilde
Encoding: 209 209 134
Width: 754
Flags: W
LayerCount: 2
Fore
SplineSet
471 973 m 1,0,-1
 495 956 l 1,1,2
 466 915 466 915 430 913 c 2,3,4
 430 913 430 913 427 913 c 0,5,6
 403 913 403 913 371 929 c 0,7,8
 341 942 341 942 329 942 c 2,9,10
 329 942 329 942 326 942 c 0,11,12
 304 940 304 940 284 912 c 1,13,-1
 259 928 l 1,14,15
 288 970 288 970 325 972 c 2,16,17
 325 972 325 972 328 972 c 0,18,19
 351 972 351 972 383 956 c 0,20,21
 413 943 413 943 425 943 c 2,22,23
 425 943 425 943 428 943 c 0,24,25
 451 945 451 945 471 973 c 1,0,-1
80 839 m 1,26,-1
 107 839 l 1,27,-1
 645 58 l 1,28,-1
 645 839 l 1,29,-1
 675 839 l 1,30,-1
 675 0 l 1,31,-1
 647 0 l 1,32,-1
 110 781 l 1,33,-1
 110 0 l 1,34,-1
 80 0 l 1,35,-1
 80 839 l 1,26,-1
EndSplineSet
EndChar

StartChar: Ograve
Encoding: 210 210 135
Width: 820
Flags: W
LayerCount: 2
Fore
SplineSet
363 1020 m 1,0,-1
 393 1020 l 1,1,-1
 435 887 l 1,2,-1
 412 887 l 1,3,-1
 363 1020 l 1,0,-1
410 851 m 0,4,5
 603 851 603 851 694 698 c 0,6,7
 761 586 761 586 761 419 c 0,8,9
 761 253 761 253 694 141 c 0,10,11
 603 -12 603 -12 410 -12 c 0,12,13
 218 -12 218 -12 127 141 c 0,14,15
 60 253 60 253 60 419 c 0,16,17
 60 586 60 586 127 698 c 0,18,19
 218 851 218 851 410 851 c 0,4,5
410 821 m 0,20,21
 235 821 235 821 153 683 c 0,22,23
 90 577 90 577 90 419 c 0,24,25
 90 262 90 262 153 156 c 0,26,27
 235 18 235 18 410 18 c 0,28,29
 586 18 586 18 668 156 c 0,30,31
 731 262 731 262 731 419 c 0,32,33
 731 577 731 577 668 683 c 0,34,35
 586 821 586 821 410 821 c 0,20,21
EndSplineSet
EndChar

StartChar: Oacute
Encoding: 211 211 136
Width: 820
Flags: W
LayerCount: 2
Fore
SplineSet
447 1020 m 1,0,-1
 477 1020 l 1,1,-1
 427 887 l 1,2,-1
 404 887 l 1,3,-1
 447 1020 l 1,0,-1
410 851 m 0,4,5
 603 851 603 851 694 698 c 0,6,7
 761 586 761 586 761 419 c 0,8,9
 761 253 761 253 694 141 c 0,10,11
 603 -12 603 -12 410 -12 c 0,12,13
 218 -12 218 -12 127 141 c 0,14,15
 60 253 60 253 60 419 c 0,16,17
 60 586 60 586 127 698 c 0,18,19
 218 851 218 851 410 851 c 0,4,5
410 821 m 0,20,21
 235 821 235 821 153 683 c 0,22,23
 90 577 90 577 90 419 c 0,24,25
 90 262 90 262 153 156 c 0,26,27
 235 18 235 18 410 18 c 0,28,29
 586 18 586 18 668 156 c 0,30,31
 731 262 731 262 731 419 c 0,32,33
 731 577 731 577 668 683 c 0,34,35
 586 821 586 821 410 821 c 0,20,21
EndSplineSet
EndChar

StartChar: Ocircumflex
Encoding: 212 212 137
Width: 820
Flags: W
LayerCount: 2
Fore
SplineSet
395 1000 m 1,0,-1
 425 1000 l 1,1,-1
 468 867 l 1,2,-1
 445 867 l 1,3,-1
 410 960 l 1,4,-1
 376 867 l 1,5,-1
 353 867 l 1,6,-1
 395 1000 l 1,0,-1
410 851 m 0,7,8
 603 851 603 851 694 698 c 0,9,10
 761 586 761 586 761 419 c 0,11,12
 761 253 761 253 694 141 c 0,13,14
 603 -12 603 -12 410 -12 c 0,15,16
 218 -12 218 -12 127 141 c 0,17,18
 60 253 60 253 60 419 c 0,19,20
 60 586 60 586 127 698 c 0,21,22
 218 851 218 851 410 851 c 0,7,8
410 821 m 0,23,24
 235 821 235 821 153 683 c 0,25,26
 90 577 90 577 90 419 c 0,27,28
 90 262 90 262 153 156 c 0,29,30
 235 18 235 18 410 18 c 0,31,32
 586 18 586 18 668 156 c 0,33,34
 731 262 731 262 731 419 c 0,35,36
 731 577 731 577 668 683 c 0,37,38
 586 821 586 821 410 821 c 0,23,24
EndSplineSet
EndChar

StartChar: Otilde
Encoding: 213 213 138
Width: 820
Flags: W
LayerCount: 2
Fore
SplineSet
504 973 m 1,0,-1
 528 956 l 1,1,2
 499 915 499 915 463 913 c 2,3,4
 463 913 463 913 460 913 c 0,5,6
 436 913 436 913 404 929 c 0,7,8
 374 942 374 942 362 942 c 2,9,10
 362 942 362 942 359 942 c 0,11,12
 337 940 337 940 317 912 c 1,13,-1
 292 928 l 1,14,15
 321 970 321 970 358 972 c 2,16,17
 358 972 358 972 361 972 c 0,18,19
 384 972 384 972 416 956 c 0,20,21
 446 943 446 943 458 943 c 2,22,23
 458 943 458 943 461 943 c 0,24,25
 484 945 484 945 504 973 c 1,0,-1
410 851 m 0,26,27
 603 851 603 851 694 698 c 0,28,29
 761 586 761 586 761 419 c 0,30,31
 761 253 761 253 694 141 c 0,32,33
 603 -12 603 -12 410 -12 c 0,34,35
 218 -12 218 -12 127 141 c 0,36,37
 60 253 60 253 60 419 c 0,38,39
 60 586 60 586 127 698 c 0,40,41
 218 851 218 851 410 851 c 0,26,27
410 821 m 0,42,43
 235 821 235 821 153 683 c 0,44,45
 90 577 90 577 90 419 c 0,46,47
 90 262 90 262 153 156 c 0,48,49
 235 18 235 18 410 18 c 0,50,51
 586 18 586 18 668 156 c 0,52,53
 731 262 731 262 731 419 c 0,54,55
 731 577 731 577 668 683 c 0,56,57
 586 821 586 821 410 821 c 0,42,43
EndSplineSet
EndChar

StartChar: Odieresis
Encoding: 214 214 139
Width: 820
Flags: W
LayerCount: 2
Fore
SplineSet
363 960 m 128,-1,1
 374 960 374 960 381 953 c 128,-1,2
 388 946 388 946 388 935 c 128,-1,3
 388 924 388 924 381 917 c 128,-1,4
 374 910 374 910 363 910 c 128,-1,5
 352 910 352 910 345 917 c 128,-1,6
 338 924 338 924 338 935 c 128,-1,7
 338 946 338 946 345 953 c 128,-1,0
 352 960 352 960 363 960 c 128,-1,1
457 960 m 128,-1,9
 468 960 468 960 475 953 c 128,-1,10
 482 946 482 946 482 935 c 128,-1,11
 482 924 482 924 475 917 c 128,-1,12
 468 910 468 910 457 910 c 128,-1,13
 446 910 446 910 439 917 c 128,-1,14
 432 924 432 924 432 935 c 128,-1,15
 432 946 432 946 439 953 c 128,-1,8
 446 960 446 960 457 960 c 128,-1,9
410 851 m 0,16,17
 603 851 603 851 694 698 c 0,18,19
 761 586 761 586 761 419 c 0,20,21
 761 253 761 253 694 141 c 0,22,23
 603 -12 603 -12 410 -12 c 0,24,25
 218 -12 218 -12 127 141 c 0,26,27
 60 253 60 253 60 419 c 0,28,29
 60 586 60 586 127 698 c 0,30,31
 218 851 218 851 410 851 c 0,16,17
410 821 m 0,32,33
 235 821 235 821 153 683 c 0,34,35
 90 577 90 577 90 419 c 0,36,37
 90 262 90 262 153 156 c 0,38,39
 235 18 235 18 410 18 c 0,40,41
 586 18 586 18 668 156 c 0,42,43
 731 262 731 262 731 419 c 0,44,45
 731 577 731 577 668 683 c 0,46,47
 586 821 586 821 410 821 c 0,32,33
EndSplineSet
EndChar

StartChar: Oslash
Encoding: 216 216 140
Width: 820
Flags: W
LayerCount: 2
Fore
SplineSet
695 851 m 1,0,-1
 725 851 l 1,1,-1
 655 750 l 1,2,3
 678 725 678 725 694 698 c 0,4,5
 761 586 761 586 761 419 c 0,6,7
 761 253 761 253 694 141 c 0,8,9
 603 -12 603 -12 410 -12 c 0,10,11
 271 -12 271 -12 183 71 c 1,12,-1
 126 -11 l 1,13,-1
 96 -11 l 1,14,-1
 165 89 l 1,15,16
 147 108 147 108 127 141 c 0,17,18
 60 253 60 253 60 419 c 0,19,20
 60 586 60 586 127 698 c 0,21,22
 218 851 218 851 410 851 c 0,23,24
 550 851 550 851 638 768 c 1,25,-1
 695 851 l 1,0,-1
410 821 m 0,26,27
 235 821 235 821 153 683 c 0,28,29
 90 577 90 577 90 419 c 0,30,31
 90 262 90 262 153 156 c 0,32,33
 166 134 166 134 183 114 c 1,34,-1
 621 744 l 1,35,36
 542 821 542 821 410 821 c 0,26,27
638 725 m 1,37,-1
 200 95 l 1,38,39
 279 18 279 18 410 18 c 0,40,41
 586 18 586 18 668 156 c 0,42,43
 731 262 731 262 731 419 c 0,44,45
 731 577 731 577 668 683 c 0,46,47
 654 706 654 706 638 725 c 1,37,-1
EndSplineSet
EndChar

StartChar: Ugrave
Encoding: 217 217 141
Width: 760
Flags: W
LayerCount: 2
Fore
SplineSet
333 1020 m 1,0,-1
 363 1020 l 1,1,-1
 406 887 l 1,2,-1
 383 887 l 1,3,-1
 333 1020 l 1,0,-1
80 839 m 1,4,-1
 110 839 l 1,5,-1
 110 419 l 2,6,7
 110 222 110 222 176 121 c 0,8,9
 244 18 244 18 380 18 c 0,10,11
 517 18 517 18 585 121 c 0,12,13
 651 222 651 222 651 419 c 2,14,-1
 651 839 l 1,15,-1
 681 839 l 1,16,-1
 681 419 l 2,17,18
 681 214 681 214 610 105 c 0,19,20
 534 -12 534 -12 380 -12 c 128,-1,21
 226 -12 226 -12 150 105 c 0,22,23
 80 212 80 212 80 419 c 2,24,-1
 80 839 l 1,4,-1
EndSplineSet
EndChar

StartChar: Uacute
Encoding: 218 218 142
Width: 760
Flags: W
LayerCount: 2
Fore
SplineSet
400 1020 m 1,0,-1
 430 1020 l 1,1,-1
 380 887 l 1,2,-1
 357 887 l 1,3,-1
 400 1020 l 1,0,-1
80 839 m 1,4,-1
 110 839 l 1,5,-1
 110 419 l 2,6,7
 110 222 110 222 176 121 c 0,8,9
 244 18 244 18 380 18 c 0,10,11
 517 18 517 18 585 121 c 0,12,13
 651 222 651 222 651 419 c 2,14,-1
 651 839 l 1,15,-1
 681 839 l 1,16,-1
 681 419 l 2,17,18
 681 214 681 214 610 105 c 0,19,20
 534 -12 534 -12 380 -12 c 128,-1,21
 226 -12 226 -12 150 105 c 0,22,23
 80 212 80 212 80 419 c 2,24,-1
 80 839 l 1,4,-1
EndSplineSet
EndChar

StartChar: Ucircumflex
Encoding: 219 219 143
Width: 760
Flags: W
LayerCount: 2
Fore
SplineSet
365 1022 m 1,0,-1
 395 1022 l 1,1,-1
 438 889 l 1,2,-1
 415 889 l 1,3,-1
 380 982 l 1,4,-1
 346 889 l 1,5,-1
 323 889 l 1,6,-1
 365 1022 l 1,0,-1
80 839 m 1,7,-1
 110 839 l 1,8,-1
 110 419 l 2,9,10
 110 222 110 222 176 121 c 0,11,12
 244 18 244 18 380 18 c 0,13,14
 517 18 517 18 585 121 c 0,15,16
 651 222 651 222 651 419 c 2,17,-1
 651 839 l 1,18,-1
 681 839 l 1,19,-1
 681 419 l 2,20,21
 681 214 681 214 610 105 c 0,22,23
 534 -12 534 -12 380 -12 c 128,-1,24
 226 -12 226 -12 150 105 c 0,25,26
 80 212 80 212 80 419 c 2,27,-1
 80 839 l 1,7,-1
EndSplineSet
EndChar

StartChar: Udieresis
Encoding: 220 220 144
Width: 760
Flags: W
LayerCount: 2
Fore
SplineSet
333 960 m 128,-1,1
 344 960 344 960 351 953 c 128,-1,2
 358 946 358 946 358 935 c 128,-1,3
 358 924 358 924 351 917 c 128,-1,4
 344 910 344 910 333 910 c 128,-1,5
 322 910 322 910 315 917 c 128,-1,6
 308 924 308 924 308 935 c 128,-1,7
 308 946 308 946 315 953 c 128,-1,0
 322 960 322 960 333 960 c 128,-1,1
427 960 m 128,-1,9
 438 960 438 960 445 953 c 128,-1,10
 452 946 452 946 452 935 c 128,-1,11
 452 924 452 924 445 917 c 128,-1,12
 438 910 438 910 427 910 c 128,-1,13
 416 910 416 910 409 917 c 128,-1,14
 402 924 402 924 402 935 c 128,-1,15
 402 946 402 946 409 953 c 128,-1,8
 416 960 416 960 427 960 c 128,-1,9
80 839 m 1,16,-1
 110 839 l 1,17,-1
 110 419 l 2,18,19
 110 222 110 222 176 121 c 0,20,21
 244 18 244 18 380 18 c 0,22,23
 517 18 517 18 585 121 c 0,24,25
 651 222 651 222 651 419 c 2,26,-1
 651 839 l 1,27,-1
 681 839 l 1,28,-1
 681 419 l 2,29,30
 681 214 681 214 610 105 c 0,31,32
 534 -12 534 -12 380 -12 c 128,-1,33
 226 -12 226 -12 150 105 c 0,34,35
 80 212 80 212 80 419 c 2,36,-1
 80 839 l 1,16,-1
EndSplineSet
EndChar

StartChar: Yacute
Encoding: 221 221 145
Width: 625
Flags: W
LayerCount: 2
Fore
SplineSet
348 1020 m 1,0,-1
 378 1020 l 1,1,-1
 329 887 l 1,2,-1
 306 887 l 1,3,-1
 348 1020 l 1,0,-1
20 839 m 1,4,-1
 56 839 l 1,5,-1
 313 447 l 1,6,-1
 570 839 l 1,7,-1
 605 839 l 1,8,-1
 328 415 l 1,9,-1
 328 0 l 1,10,-1
 298 0 l 1,11,-1
 298 415 l 1,12,-1
 20 839 l 1,4,-1
EndSplineSet
EndChar

StartChar: Thorn
Encoding: 222 222 146
Width: 587
Flags: W
LayerCount: 2
Fore
SplineSet
110 839 m 1,0,-1
 110 745 l 1,1,-1
 345 745 l 2,2,3
 457 745 457 745 510 656 c 0,4,5
 548 593 548 593 548 495 c 128,-1,6
 548 397 548 397 510 334 c 0,7,8
 457 245 457 245 345 245 c 2,9,-1
 110 245 l 1,10,-1
 110 0 l 1,11,-1
 80 0 l 1,12,-1
 80 839 l 1,13,-1
 110 839 l 1,0,-1
110 715 m 1,14,-1
 110 275 l 1,15,-1
 345 275 l 2,16,17
 439 275 439 275 484 350 c 0,18,19
 518 406 518 406 518 495 c 128,-1,20
 518 584 518 584 484 640 c 0,21,22
 439 715 439 715 345 715 c 2,23,-1
 110 715 l 1,14,-1
EndSplineSet
EndChar

StartChar: germandbls
Encoding: 223 223 147
Width: 596
Flags: W
LayerCount: 2
Fore
SplineSet
265 859 m 2,0,1
 336 859 336 859 385 814 c 0,2,3
 442 762 442 762 442 674 c 0,4,5
 442 616 442 616 408 580 c 0,6,7
 389 560 389 560 339 539 c 0,8,9
 293 520 293 520 278 507 c 0,10,11
 254 486 254 486 254 447 c 0,12,13
 254 413 254 413 290 382 c 0,14,15
 312 363 312 363 378 323 c 0,16,17
 442 284 442 284 471 251 c 0,18,19
 516 199 516 199 516 137 c 0,20,21
 516 77 516 77 471 32.5 c 128,-1,22
 426 -12 426 -12 355 -12 c 0,23,24
 208 -12 208 -12 157 51 c 1,25,-1
 181 70 l 1,26,27
 197 50 197 50 244 34 c 128,-1,28
 291 18 291 18 355 18 c 0,29,30
 415 18 415 18 450.5 54 c 128,-1,31
 486 90 486 90 486 137 c 0,32,33
 486 189 486 189 449 231 c 0,34,35
 424 259 424 259 362 298 c 0,36,37
 283 347 283 347 270 359 c 0,38,39
 224 400 224 400 224 447 c 0,40,41
 224 498 224 498 259 530 c 0,42,43
 275 544 275 544 327 567 c 0,44,45
 373 587 373 587 387 601 c 0,46,47
 412 626 412 626 412 674 c 0,48,49
 412 747 412 747 365 791 c 0,50,51
 324 829 324 829 261 829 c 0,52,53
 200 829 200 829 157 789 c 0,54,55
 110 745 110 745 110 672 c 2,56,-1
 110 -106 l 1,57,-1
 80 -106 l 1,58,-1
 80 672 l 2,59,60
 80 757 80 757 137 811 c 0,61,62
 186 857 186 857 261 859 c 2,63,-1
 265 859 l 2,0,1
EndSplineSet
EndChar

StartChar: agrave
Encoding: 224 224 148
Width: 541
Flags: W
LayerCount: 2
Fore
SplineSet
230 788 m 1,0,-1
 260 788 l 1,1,-1
 303 655 l 1,2,-1
 280 655 l 1,3,-1
 230 788 l 1,0,-1
276 580 m 0,4,5
 342 580 342 580 381 560 c 0,6,7
 418 541 418 541 438 498 c 0,8,9
 462 443 462 443 462 299 c 2,10,-1
 462 297 l 1,11,12
 462 297 462 297 462 284 c 2,13,-1
 462 0 l 1,14,-1
 434 0 l 1,15,-1
 432 151 l 1,16,17
 406 93 406 93 361.5 54 c 128,-1,18
 317 15 317 15 265 -2 c 0,19,20
 235 -12 235 -12 202 -12 c 0,21,22
 159 -12 159 -12 126 6 c 0,23,24
 60 42 60 42 60 126 c 0,25,26
 60 187 60 187 81 232 c 128,-1,27
 102 277 102 277 150 301 c 0,28,29
 202 327 202 327 290 327 c 0,30,31
 358 327 358 327 432 316 c 1,32,33
 430 443 430 443 411 486 c 0,34,35
 396 518 396 518 367 533 c 0,36,37
 335 550 335 550 276 550 c 0,38,39
 189 550 189 550 136 488 c 1,40,-1
 114 507 l 1,41,42
 175 580 175 580 276 580 c 0,4,5
298 297 m 2,43,44
 298 297 298 297 290 297 c 0,45,46
 209 297 209 297 163 274 c 0,47,48
 125 255 125 255 107 219 c 0,49,50
 90 185 90 185 90 126 c 0,51,52
 90 59 90 59 140 32 c 0,53,54
 166 18 166 18 201 18 c 0,55,56
 228 18 228 18 256 27 c 0,57,58
 326 50 326 50 377.5 116.5 c 128,-1,59
 429 183 429 183 432 286 c 1,60,61
 352 297 352 297 298 297 c 2,43,44
EndSplineSet
EndChar

StartChar: aacute
Encoding: 225 225 149
Width: 541
Flags: W
LayerCount: 2
Fore
SplineSet
313 788 m 1,0,-1
 343 788 l 1,1,-1
 294 655 l 1,2,-1
 271 655 l 1,3,-1
 313 788 l 1,0,-1
276 580 m 0,4,5
 342 580 342 580 381 560 c 0,6,7
 418 541 418 541 438 498 c 0,8,9
 462 443 462 443 462 299 c 2,10,-1
 462 297 l 1,11,12
 462 297 462 297 462 284 c 2,13,-1
 462 0 l 1,14,-1
 434 0 l 1,15,-1
 432 151 l 1,16,17
 406 93 406 93 361.5 54 c 128,-1,18
 317 15 317 15 265 -2 c 0,19,20
 235 -12 235 -12 202 -12 c 0,21,22
 159 -12 159 -12 126 6 c 0,23,24
 60 42 60 42 60 126 c 0,25,26
 60 187 60 187 81 232 c 128,-1,27
 102 277 102 277 150 301 c 0,28,29
 202 327 202 327 290 327 c 0,30,31
 358 327 358 327 432 316 c 1,32,33
 430 443 430 443 411 486 c 0,34,35
 396 518 396 518 367 533 c 0,36,37
 335 550 335 550 276 550 c 0,38,39
 189 550 189 550 136 488 c 1,40,-1
 114 507 l 1,41,42
 175 580 175 580 276 580 c 0,4,5
298 297 m 2,43,44
 298 297 298 297 290 297 c 0,45,46
 209 297 209 297 163 274 c 0,47,48
 125 255 125 255 107 219 c 0,49,50
 90 185 90 185 90 126 c 0,51,52
 90 59 90 59 140 32 c 0,53,54
 166 18 166 18 201 18 c 0,55,56
 228 18 228 18 256 27 c 0,57,58
 326 50 326 50 377.5 116.5 c 128,-1,59
 429 183 429 183 432 286 c 1,60,61
 352 297 352 297 298 297 c 2,43,44
EndSplineSet
EndChar

StartChar: acircumflex
Encoding: 226 226 150
Width: 541
Flags: W
LayerCount: 2
Fore
SplineSet
266 768 m 1,0,-1
 296 768 l 1,1,-1
 338 635 l 1,2,-1
 315 635 l 1,3,-1
 281 728 l 1,4,-1
 246 635 l 1,5,-1
 224 635 l 1,6,-1
 266 768 l 1,0,-1
276 580 m 0,7,8
 342 580 342 580 381 560 c 0,9,10
 418 541 418 541 438 498 c 0,11,12
 462 443 462 443 462 299 c 2,13,-1
 462 297 l 1,14,15
 462 297 462 297 462 284 c 2,16,-1
 462 0 l 1,17,-1
 434 0 l 1,18,-1
 432 151 l 1,19,20
 406 93 406 93 361.5 54 c 128,-1,21
 317 15 317 15 265 -2 c 0,22,23
 235 -12 235 -12 202 -12 c 0,24,25
 159 -12 159 -12 126 6 c 0,26,27
 60 42 60 42 60 126 c 0,28,29
 60 187 60 187 81 232 c 128,-1,30
 102 277 102 277 150 301 c 0,31,32
 202 327 202 327 290 327 c 0,33,34
 358 327 358 327 432 316 c 1,35,36
 430 443 430 443 411 486 c 0,37,38
 396 518 396 518 367 533 c 0,39,40
 335 550 335 550 276 550 c 0,41,42
 189 550 189 550 136 488 c 1,43,-1
 114 507 l 1,44,45
 175 580 175 580 276 580 c 0,7,8
298 297 m 2,46,47
 298 297 298 297 290 297 c 0,48,49
 209 297 209 297 163 274 c 0,50,51
 125 255 125 255 107 219 c 0,52,53
 90 185 90 185 90 126 c 0,54,55
 90 59 90 59 140 32 c 0,56,57
 166 18 166 18 201 18 c 0,58,59
 228 18 228 18 256 27 c 0,60,61
 326 50 326 50 377.5 116.5 c 128,-1,62
 429 183 429 183 432 286 c 1,63,64
 352 297 352 297 298 297 c 2,46,47
EndSplineSet
EndChar

StartChar: atilde
Encoding: 227 227 151
Width: 541
Flags: W
LayerCount: 2
Fore
SplineSet
390 741 m 1,0,-1
 414 724 l 1,1,2
 385 683 385 683 349 681 c 2,3,4
 349 681 349 681 346 681 c 0,5,6
 322 681 322 681 290 697 c 0,7,8
 260 710 260 710 248 710 c 2,9,10
 248 710 248 710 245 710 c 0,11,12
 223 708 223 708 203 680 c 1,13,-1
 178 697 l 1,14,15
 206 738 206 738 244 740 c 2,16,17
 244 740 244 740 247 740 c 0,18,19
 270 740 270 740 302 724 c 0,20,21
 332 711 332 711 344 711 c 2,22,23
 344 711 344 711 347 711 c 0,24,25
 370 713 370 713 390 741 c 1,0,-1
276 580 m 0,26,27
 342 580 342 580 381 560 c 0,28,29
 418 541 418 541 438 498 c 0,30,31
 462 443 462 443 462 299 c 2,32,-1
 462 297 l 1,33,34
 462 297 462 297 462 284 c 2,35,-1
 462 0 l 1,36,-1
 434 0 l 1,37,-1
 432 151 l 1,38,39
 406 93 406 93 361.5 54 c 128,-1,40
 317 15 317 15 265 -2 c 0,41,42
 235 -12 235 -12 202 -12 c 0,43,44
 159 -12 159 -12 126 6 c 0,45,46
 60 42 60 42 60 126 c 0,47,48
 60 187 60 187 81 232 c 128,-1,49
 102 277 102 277 150 301 c 0,50,51
 202 327 202 327 290 327 c 0,52,53
 358 327 358 327 432 316 c 1,54,55
 430 443 430 443 411 486 c 0,56,57
 396 518 396 518 367 533 c 0,58,59
 335 550 335 550 276 550 c 0,60,61
 189 550 189 550 136 488 c 1,62,-1
 114 507 l 1,63,64
 175 580 175 580 276 580 c 0,26,27
298 297 m 2,65,66
 298 297 298 297 290 297 c 0,67,68
 209 297 209 297 163 274 c 0,69,70
 125 255 125 255 107 219 c 0,71,72
 90 185 90 185 90 126 c 0,73,74
 90 59 90 59 140 32 c 0,75,76
 166 18 166 18 201 18 c 0,77,78
 228 18 228 18 256 27 c 0,79,80
 326 50 326 50 377.5 116.5 c 128,-1,81
 429 183 429 183 432 286 c 1,82,83
 352 297 352 297 298 297 c 2,65,66
EndSplineSet
EndChar

StartChar: adieresis
Encoding: 228 228 152
Width: 541
Flags: W
LayerCount: 2
Fore
SplineSet
235 729 m 128,-1,1
 246 729 246 729 253 721.5 c 128,-1,2
 260 714 260 714 260 704 c 128,-1,3
 260 694 260 694 253 686.5 c 128,-1,4
 246 679 246 679 235 679 c 128,-1,5
 224 679 224 679 217 686.5 c 128,-1,6
 210 694 210 694 210 704 c 128,-1,7
 210 714 210 714 217 721.5 c 128,-1,0
 224 729 224 729 235 729 c 128,-1,1
329 729 m 128,-1,9
 340 729 340 729 347 721.5 c 128,-1,10
 354 714 354 714 354 704 c 128,-1,11
 354 694 354 694 347 686.5 c 128,-1,12
 340 679 340 679 329 679 c 128,-1,13
 318 679 318 679 311 686.5 c 128,-1,14
 304 694 304 694 304 704 c 128,-1,15
 304 714 304 714 311 721.5 c 128,-1,8
 318 729 318 729 329 729 c 128,-1,9
276 580 m 0,16,17
 342 580 342 580 381 560 c 0,18,19
 418 541 418 541 438 498 c 0,20,21
 462 443 462 443 462 299 c 2,22,-1
 462 297 l 1,23,24
 462 297 462 297 462 284 c 2,25,-1
 462 0 l 1,26,-1
 434 0 l 1,27,-1
 432 151 l 1,28,29
 406 93 406 93 361.5 54 c 128,-1,30
 317 15 317 15 265 -2 c 0,31,32
 235 -12 235 -12 202 -12 c 0,33,34
 159 -12 159 -12 126 6 c 0,35,36
 60 42 60 42 60 126 c 0,37,38
 60 187 60 187 81 232 c 128,-1,39
 102 277 102 277 150 301 c 0,40,41
 202 327 202 327 290 327 c 0,42,43
 358 327 358 327 432 316 c 1,44,45
 430 443 430 443 411 486 c 0,46,47
 396 518 396 518 367 533 c 0,48,49
 335 550 335 550 276 550 c 0,50,51
 189 550 189 550 136 488 c 1,52,-1
 114 507 l 1,53,54
 175 580 175 580 276 580 c 0,16,17
298 297 m 2,55,56
 298 297 298 297 290 297 c 0,57,58
 209 297 209 297 163 274 c 0,59,60
 125 255 125 255 107 219 c 0,61,62
 90 185 90 185 90 126 c 0,63,64
 90 59 90 59 140 32 c 0,65,66
 166 18 166 18 201 18 c 0,67,68
 228 18 228 18 256 27 c 0,69,70
 326 50 326 50 377.5 116.5 c 128,-1,71
 429 183 429 183 432 286 c 1,72,73
 352 297 352 297 298 297 c 2,55,56
EndSplineSet
EndChar

StartChar: aring
Encoding: 229 229 153
Width: 541
Flags: W
LayerCount: 2
Fore
SplineSet
284 795 m 128,-1,1
 318 795 318 795 341.5 771.5 c 128,-1,2
 365 748 365 748 365 714 c 128,-1,3
 365 680 365 680 341.5 656.5 c 128,-1,4
 318 633 318 633 284 633 c 128,-1,5
 250 633 250 633 226.5 656.5 c 128,-1,6
 203 680 203 680 203 714 c 128,-1,7
 203 748 203 748 226.5 771.5 c 128,-1,0
 250 795 250 795 284 795 c 128,-1,1
284 765 m 128,-1,9
 263 765 263 765 248 750 c 128,-1,10
 233 735 233 735 233 714 c 128,-1,11
 233 693 233 693 248 678 c 128,-1,12
 263 663 263 663 284 663 c 128,-1,13
 305 663 305 663 320 678 c 128,-1,14
 335 693 335 693 335 714 c 128,-1,15
 335 735 335 735 320 750 c 128,-1,8
 305 765 305 765 284 765 c 128,-1,9
276 580 m 0,16,17
 342 580 342 580 381 560 c 0,18,19
 418 541 418 541 438 498 c 0,20,21
 462 443 462 443 462 299 c 2,22,-1
 462 297 l 1,23,24
 462 297 462 297 462 284 c 2,25,-1
 462 0 l 1,26,-1
 434 0 l 1,27,-1
 432 151 l 1,28,29
 406 93 406 93 361.5 54 c 128,-1,30
 317 15 317 15 265 -2 c 0,31,32
 235 -12 235 -12 202 -12 c 0,33,34
 159 -12 159 -12 126 6 c 0,35,36
 60 42 60 42 60 126 c 0,37,38
 60 187 60 187 81 232 c 128,-1,39
 102 277 102 277 150 301 c 0,40,41
 202 327 202 327 290 327 c 0,42,43
 358 327 358 327 432 316 c 1,44,45
 430 443 430 443 411 486 c 0,46,47
 396 518 396 518 367 533 c 0,48,49
 335 550 335 550 276 550 c 0,50,51
 189 550 189 550 136 488 c 1,52,-1
 114 507 l 1,53,54
 175 580 175 580 276 580 c 0,16,17
298 297 m 2,55,56
 298 297 298 297 290 297 c 0,57,58
 209 297 209 297 163 274 c 0,59,60
 125 255 125 255 107 219 c 0,61,62
 90 185 90 185 90 126 c 0,63,64
 90 59 90 59 140 32 c 0,65,66
 166 18 166 18 201 18 c 0,67,68
 228 18 228 18 256 27 c 0,69,70
 326 50 326 50 377.5 116.5 c 128,-1,71
 429 183 429 183 432 286 c 1,72,73
 352 297 352 297 298 297 c 2,55,56
EndSplineSet
EndChar

StartChar: ae
Encoding: 230 230 154
Width: 968
Flags: W
LayerCount: 2
Fore
SplineSet
675 580 m 0,0,1
 804 580 804 580 862 493 c 0,2,3
 909 422 909 422 909 284 c 2,4,-1
 909 269 l 1,5,-1
 462 269 l 1,6,-1
 462 258 l 1,7,8
 468 168 468 168 503 109 c 0,9,10
 558 18 558 18 675 18 c 0,11,12
 730 18 730 18 771 31.5 c 128,-1,13
 812 45 812 45 827.5 57 c 128,-1,14
 843 69 843 69 868 94 c 1,15,-1
 889 73 l 1,16,17
 865 49 865 49 845.5 34 c 128,-1,18
 826 19 826 19 779.5 3.5 c 128,-1,19
 733 -12 733 -12 675 -12 c 0,20,21
 540 -12 540 -12 477 93 c 0,22,23
 456 126 456 126 440 170 c 1,24,25
 438 163 438 163 432 151 c 0,26,27
 406 93 406 93 361.5 54 c 128,-1,28
 317 15 317 15 265 -2 c 0,29,30
 235 -12 235 -12 202 -12 c 0,31,32
 159 -12 159 -12 126 6 c 0,33,34
 60 42 60 42 60 126 c 0,35,36
 60 187 60 187 81 232 c 128,-1,37
 102 277 102 277 150 301 c 0,38,39
 202 327 202 327 290 327 c 0,40,41
 358 327 358 327 432 316 c 1,42,43
 430 443 430 443 411 486 c 0,44,45
 396 518 396 518 367 533 c 0,46,47
 335 550 335 550 276 550 c 0,48,49
 189 550 189 550 136 488 c 1,50,-1
 114 507 l 1,51,52
 175 580 175 580 276 580 c 0,53,54
 342 580 342 580 381 560 c 0,55,56
 418 541 418 541 438 498 c 0,57,58
 452 468 452 468 456 431 c 1,59,60
 466 455 466 455 477 475 c 0,61,62
 540 580 540 580 675 580 c 0,0,1
675 550 m 0,63,64
 558 550 558 550 503 459 c 0,65,66
 468 400 468 400 462 309 c 1,67,-1
 462 299 l 1,68,-1
 878 299 l 1,69,70
 876 417 876 417 837 477 c 0,71,72
 789 550 789 550 675 550 c 0,63,64
298 297 m 2,73,-1
 290 297 l 2,74,75
 209 297 209 297 163 274 c 0,76,77
 125 255 125 255 107 219 c 0,78,79
 90 185 90 185 90 126 c 0,80,81
 90 59 90 59 140 32 c 0,82,83
 166 18 166 18 201 18 c 0,84,85
 228 18 228 18 256 27 c 0,86,87
 324 49 324 49 374.5 113 c 128,-1,88
 425 177 425 177 431 276 c 1,89,-1
 431 284 l 1,90,-1
 431 286 l 1,91,92
 351 297 351 297 298 297 c 2,73,-1
EndSplineSet
EndChar

StartChar: ccedilla
Encoding: 231 231 155
Width: 528
Flags: W
LayerCount: 2
Fore
SplineSet
304 580 m 0,0,1
 408 580 408 580 469 517 c 1,2,-1
 447 496 l 1,3,4
 395 550 395 550 304 550 c 0,5,6
 187 550 187 550 132 459 c 0,7,8
 90 389 90 389 90 284 c 128,-1,9
 90 179 90 179 132 109 c 0,10,11
 187 18 187 18 304 18 c 0,12,13
 393 18 393 18 449 62 c 1,14,-1
 467 38 l 1,15,16
 405 -9 405 -9 320 -12 c 1,17,-1
 320 -34 l 1,18,19
 346 -37 346 -37 361 -52 c 0,20,21
 379 -68 379 -68 379 -95 c 128,-1,22
 379 -122 379 -122 358 -142 c 128,-1,23
 337 -162 337 -162 305 -162 c 0,24,25
 252 -162 252 -162 231 -120 c 0,26,27
 220 -98 220 -98 220 -65 c 1,28,-1
 250 -65 l 1,29,30
 250 -91 250 -91 258 -107 c 0,31,32
 270 -132 270 -132 305 -132 c 0,33,34
 325 -132 325 -132 336.5 -121 c 128,-1,35
 348 -110 348 -110 349 -96 c 0,36,37
 349 -83 349 -83 340 -74 c 0,38,39
 329 -63 329 -63 305 -63 c 2,40,-1
 290 -63 l 1,41,-1
 290 -12 l 1,42,43
 165 -6 165 -6 106 93 c 0,44,45
 60 170 60 170 60 284 c 128,-1,46
 60 398 60 398 106 475 c 0,47,48
 169 580 169 580 304 580 c 0,0,1
EndSplineSet
EndChar

StartChar: egrave
Encoding: 232 232 156
Width: 597
Flags: W
LayerCount: 2
Fore
SplineSet
255 788 m 1,0,-1
 285 788 l 1,1,-1
 328 655 l 1,2,-1
 305 655 l 1,3,-1
 255 788 l 1,0,-1
304 580 m 0,4,5
 433 580 433 580 491 493 c 0,6,7
 537 424 537 424 537 284 c 2,8,-1
 537 269 l 1,9,-1
 90 269 l 1,10,11
 94 172 94 172 132 109 c 0,12,13
 187 18 187 18 304 18 c 0,14,15
 359 18 359 18 400 31.5 c 128,-1,16
 441 45 441 45 456.5 57 c 128,-1,17
 472 69 472 69 497 94 c 1,18,-1
 518 73 l 1,19,20
 494 49 494 49 474.5 34 c 128,-1,21
 455 19 455 19 408.5 3.5 c 128,-1,22
 362 -12 362 -12 304 -12 c 0,23,24
 169 -12 169 -12 106 93 c 0,25,26
 60 170 60 170 60 284 c 128,-1,27
 60 398 60 398 106 475 c 0,28,29
 169 580 169 580 304 580 c 0,4,5
304 550 m 0,30,31
 187 550 187 550 132 459 c 0,32,33
 94 396 94 396 90 299 c 1,34,-1
 507 299 l 1,35,36
 505 417 505 417 466 477 c 0,37,38
 418 550 418 550 304 550 c 0,30,31
EndSplineSet
EndChar

StartChar: eacute
Encoding: 233 233 157
Width: 597
Flags: W
LayerCount: 2
Fore
SplineSet
345 788 m 1,0,-1
 375 788 l 1,1,-1
 325 655 l 1,2,-1
 302 655 l 1,3,-1
 345 788 l 1,0,-1
304 580 m 0,4,5
 433 580 433 580 491 493 c 0,6,7
 537 424 537 424 537 284 c 2,8,-1
 537 269 l 1,9,-1
 90 269 l 1,10,11
 94 172 94 172 132 109 c 0,12,13
 187 18 187 18 304 18 c 0,14,15
 359 18 359 18 400 31.5 c 128,-1,16
 441 45 441 45 456.5 57 c 128,-1,17
 472 69 472 69 497 94 c 1,18,-1
 518 73 l 1,19,20
 494 49 494 49 474.5 34 c 128,-1,21
 455 19 455 19 408.5 3.5 c 128,-1,22
 362 -12 362 -12 304 -12 c 0,23,24
 169 -12 169 -12 106 93 c 0,25,26
 60 170 60 170 60 284 c 128,-1,27
 60 398 60 398 106 475 c 0,28,29
 169 580 169 580 304 580 c 0,4,5
304 550 m 0,30,31
 187 550 187 550 132 459 c 0,32,33
 94 396 94 396 90 299 c 1,34,-1
 507 299 l 1,35,36
 505 417 505 417 466 477 c 0,37,38
 418 550 418 550 304 550 c 0,30,31
EndSplineSet
EndChar

StartChar: ecircumflex
Encoding: 234 234 158
Width: 597
Flags: W
LayerCount: 2
Fore
SplineSet
284 768 m 1,0,-1
 314 768 l 1,1,-1
 356 635 l 1,2,-1
 333 635 l 1,3,-1
 299 728 l 1,4,-1
 264 635 l 1,5,-1
 241 635 l 1,6,-1
 284 768 l 1,0,-1
304 580 m 0,7,8
 433 580 433 580 491 493 c 0,9,10
 537 424 537 424 537 284 c 2,11,-1
 537 269 l 1,12,-1
 90 269 l 1,13,14
 94 172 94 172 132 109 c 0,15,16
 187 18 187 18 304 18 c 0,17,18
 359 18 359 18 400 31.5 c 128,-1,19
 441 45 441 45 456.5 57 c 128,-1,20
 472 69 472 69 497 94 c 1,21,-1
 518 73 l 1,22,23
 494 49 494 49 474.5 34 c 128,-1,24
 455 19 455 19 408.5 3.5 c 128,-1,25
 362 -12 362 -12 304 -12 c 0,26,27
 169 -12 169 -12 106 93 c 0,28,29
 60 170 60 170 60 284 c 128,-1,30
 60 398 60 398 106 475 c 0,31,32
 169 580 169 580 304 580 c 0,7,8
304 550 m 0,33,34
 187 550 187 550 132 459 c 0,35,36
 94 396 94 396 90 299 c 1,37,-1
 507 299 l 1,38,39
 505 417 505 417 466 477 c 0,40,41
 418 550 418 550 304 550 c 0,33,34
EndSplineSet
EndChar

StartChar: edieresis
Encoding: 235 235 159
Width: 597
Flags: W
LayerCount: 2
Fore
SplineSet
252 729 m 128,-1,1
 262 729 262 729 269.5 721.5 c 128,-1,2
 277 714 277 714 277 704 c 128,-1,3
 277 694 277 694 269.5 686.5 c 128,-1,4
 262 679 262 679 252 679 c 128,-1,5
 242 679 242 679 234.5 686.5 c 128,-1,6
 227 694 227 694 227 704 c 128,-1,7
 227 714 227 714 234.5 721.5 c 128,-1,0
 242 729 242 729 252 729 c 128,-1,1
346 729 m 128,-1,9
 356 729 356 729 363.5 721.5 c 128,-1,10
 371 714 371 714 371 704 c 128,-1,11
 371 694 371 694 363.5 686.5 c 128,-1,12
 356 679 356 679 346 679 c 128,-1,13
 336 679 336 679 328.5 686.5 c 128,-1,14
 321 694 321 694 321 704 c 128,-1,15
 321 714 321 714 328.5 721.5 c 128,-1,8
 336 729 336 729 346 729 c 128,-1,9
304 580 m 0,16,17
 433 580 433 580 491 493 c 0,18,19
 537 424 537 424 537 284 c 2,20,-1
 537 269 l 1,21,-1
 90 269 l 1,22,23
 94 172 94 172 132 109 c 0,24,25
 187 18 187 18 304 18 c 0,26,27
 359 18 359 18 400 31.5 c 128,-1,28
 441 45 441 45 456.5 57 c 128,-1,29
 472 69 472 69 497 94 c 1,30,-1
 518 73 l 1,31,32
 494 49 494 49 474.5 34 c 128,-1,33
 455 19 455 19 408.5 3.5 c 128,-1,34
 362 -12 362 -12 304 -12 c 0,35,36
 169 -12 169 -12 106 93 c 0,37,38
 60 170 60 170 60 284 c 128,-1,39
 60 398 60 398 106 475 c 0,40,41
 169 580 169 580 304 580 c 0,16,17
304 550 m 0,42,43
 187 550 187 550 132 459 c 0,44,45
 94 396 94 396 90 299 c 1,46,-1
 507 299 l 1,47,48
 505 417 505 417 466 477 c 0,49,50
 418 550 418 550 304 550 c 0,42,43
EndSplineSet
EndChar

StartChar: igrave
Encoding: 236 236 160
Width: 246
Flags: W
LayerCount: 2
Fore
SplineSet
85 788 m 1,0,-1
 115 788 l 1,1,-1
 157 655 l 1,2,-1
 134 655 l 1,3,-1
 85 788 l 1,0,-1
132 568 m 1,4,-1
 162 568 l 1,5,-1
 162 0 l 1,6,-1
 132 0 l 1,7,-1
 132 568 l 1,4,-1
EndSplineSet
EndChar

StartChar: iacute
Encoding: 237 237 161
Width: 244
Flags: W
LayerCount: 2
Fore
SplineSet
129 788 m 1,0,-1
 159 788 l 1,1,-1
 110 655 l 1,2,-1
 87 655 l 1,3,-1
 129 788 l 1,0,-1
80 568 m 1,4,-1
 110 568 l 1,5,-1
 110 0 l 1,6,-1
 80 0 l 1,7,-1
 80 568 l 1,4,-1
EndSplineSet
EndChar

StartChar: icircumflex
Encoding: 238 238 162
Width: 274
Flags: W
LayerCount: 2
Fore
SplineSet
122 768 m 1,0,-1
 152 768 l 1,1,-1
 195 635 l 1,2,-1
 172 635 l 1,3,-1
 137 728 l 1,4,-1
 103 635 l 1,5,-1
 80 635 l 1,6,-1
 122 768 l 1,0,-1
122 568 m 1,7,-1
 152 568 l 1,8,-1
 152 0 l 1,9,-1
 122 0 l 1,10,-1
 122 568 l 1,7,-1
EndSplineSet
EndChar

StartChar: idieresis
Encoding: 239 239 163
Width: 304
Flags: W
LayerCount: 2
Fore
SplineSet
105 729 m 128,-1,1
 116 729 116 729 123 721.5 c 128,-1,2
 130 714 130 714 130 704 c 128,-1,3
 130 694 130 694 123 686.5 c 128,-1,4
 116 679 116 679 105 679 c 128,-1,5
 94 679 94 679 87 686.5 c 128,-1,6
 80 694 80 694 80 704 c 128,-1,7
 80 714 80 714 87 721.5 c 128,-1,0
 94 729 94 729 105 729 c 128,-1,1
199 729 m 128,-1,9
 210 729 210 729 217 721.5 c 128,-1,10
 224 714 224 714 224 704 c 128,-1,11
 224 694 224 694 217 686.5 c 128,-1,12
 210 679 210 679 199 679 c 128,-1,13
 188 679 188 679 181 686.5 c 128,-1,14
 174 694 174 694 174 704 c 128,-1,15
 174 714 174 714 181 721.5 c 128,-1,8
 188 729 188 729 199 729 c 128,-1,9
137 568 m 1,16,-1
 167 568 l 1,17,-1
 167 0 l 1,18,-1
 137 0 l 1,19,-1
 137 568 l 1,16,-1
EndSplineSet
EndChar

StartChar: eth
Encoding: 240 240 164
Width: 630
Flags: W
LayerCount: 2
Fore
SplineSet
286 889 m 1,0,1
 366 839 366 839 417 777 c 1,2,-1
 490 835 l 1,3,-1
 508 811 l 1,4,-1
 436 753 l 1,5,6
 505 659 505 659 528 540 c 128,-1,7
 551 421 551 421 551 253 c 0,8,9
 551 213 551 213 549.5 128.5 c 128,-1,10
 548 44 548 44 548 0 c 1,11,-1
 520 0 l 1,12,-1
 518 135 l 1,13,14
 507 109 507 109 497 93 c 0,15,16
 434 -12 434 -12 300 -12 c 0,17,18
 169 -12 169 -12 106 93 c 0,19,20
 60 170 60 170 60 284 c 128,-1,21
 60 398 60 398 106 475 c 0,22,23
 169 580 169 580 300 580 c 0,24,25
 434 580 434 580 497 475 c 0,26,27
 507 459 507 459 518 433 c 1,28,29
 498 622 498 622 416 737 c 1,30,-1
 339 676 l 1,31,-1
 320 699 l 1,32,-1
 397 761 l 1,33,34
 343 826 343 826 272 867 c 1,35,-1
 286 889 l 1,0,1
304 550 m 0,36,37
 187 550 187 550 132 459 c 0,38,39
 90 389 90 389 90 284 c 128,-1,40
 90 179 90 179 132 109 c 0,41,42
 187 18 187 18 304 18 c 0,43,44
 420 18 420 18 475 109 c 0,45,46
 517 179 517 179 517 284 c 128,-1,47
 517 389 517 389 475 459 c 0,48,49
 420 550 420 550 304 550 c 0,36,37
EndSplineSet
EndChar

StartChar: ntilde
Encoding: 241 241 165
Width: 579
Flags: W
LayerCount: 2
Fore
SplineSet
394 741 m 1,0,-1
 419 724 l 1,1,2
 391 683 391 683 353 681 c 2,3,4
 353 681 353 681 350 681 c 0,5,6
 326 681 326 681 294 697 c 0,7,8
 264 710 264 710 252 710 c 2,9,10
 252 710 252 710 249 710 c 0,11,12
 227 708 227 708 207 680 c 1,13,-1
 183 697 l 1,14,15
 212 738 212 738 248 740 c 2,16,17
 248 740 248 740 251 740 c 0,18,19
 274 740 274 740 306 724 c 0,20,21
 336 711 336 711 349 711 c 2,22,23
 349 711 349 711 352 711 c 0,24,25
 374 713 374 713 394 741 c 1,0,-1
296 580 m 128,-1,27
 404 580 404 580 457 499 c 0,28,29
 499 435 499 435 499 284 c 2,30,-1
 499 0 l 1,31,-1
 469 0 l 1,32,-1
 469 284 l 2,33,34
 469 422 469 422 429 483 c 0,35,36
 385 550 385 550 290 550 c 0,37,38
 198 550 198 550 154 483 c 128,-1,39
 110 416 110 416 110 284 c 2,40,-1
 110 0 l 1,41,-1
 80 0 l 1,42,-1
 80 568 l 1,43,-1
 110 568 l 1,44,-1
 110 452 l 1,45,46
 119 475 119 475 135 499 c 0,47,26
 188 580 188 580 296 580 c 128,-1,27
EndSplineSet
EndChar

StartChar: ograve
Encoding: 242 242 166
Width: 647
Flags: W
LayerCount: 2
Fore
SplineSet
267 788 m 1,0,-1
 297 788 l 1,1,-1
 339 655 l 1,2,-1
 316 655 l 1,3,-1
 267 788 l 1,0,-1
324 580 m 0,4,5
 458 580 458 580 521 475 c 0,6,7
 567 398 567 398 567 284 c 128,-1,8
 567 170 567 170 521 93 c 0,9,10
 458 -12 458 -12 324 -12 c 0,11,12
 189 -12 189 -12 126 93 c 0,13,14
 80 170 80 170 80 284 c 128,-1,15
 80 398 80 398 126 475 c 0,16,17
 189 580 189 580 324 580 c 0,4,5
324 550 m 0,18,19
 207 550 207 550 152 459 c 0,20,21
 110 389 110 389 110 284 c 128,-1,22
 110 179 110 179 152 109 c 0,23,24
 207 18 207 18 324 18 c 0,25,26
 440 18 440 18 495 109 c 0,27,28
 537 179 537 179 537 284 c 128,-1,29
 537 389 537 389 495 459 c 0,30,31
 440 550 440 550 324 550 c 0,18,19
EndSplineSet
EndChar

StartChar: oacute
Encoding: 243 243 167
Width: 647
Flags: W
LayerCount: 2
Fore
SplineSet
356 788 m 1,0,-1
 386 788 l 1,1,-1
 337 655 l 1,2,-1
 314 655 l 1,3,-1
 356 788 l 1,0,-1
324 580 m 0,4,5
 458 580 458 580 521 475 c 0,6,7
 567 398 567 398 567 284 c 128,-1,8
 567 170 567 170 521 93 c 0,9,10
 458 -12 458 -12 324 -12 c 0,11,12
 189 -12 189 -12 126 93 c 0,13,14
 80 170 80 170 80 284 c 128,-1,15
 80 398 80 398 126 475 c 0,16,17
 189 580 189 580 324 580 c 0,4,5
324 550 m 0,18,19
 207 550 207 550 152 459 c 0,20,21
 110 389 110 389 110 284 c 128,-1,22
 110 179 110 179 152 109 c 0,23,24
 207 18 207 18 324 18 c 0,25,26
 440 18 440 18 495 109 c 0,27,28
 537 179 537 179 537 284 c 128,-1,29
 537 389 537 389 495 459 c 0,30,31
 440 550 440 550 324 550 c 0,18,19
EndSplineSet
EndChar

StartChar: ocircumflex
Encoding: 244 244 168
Width: 647
Flags: W
LayerCount: 2
Fore
SplineSet
309 768 m 1,0,-1
 339 768 l 1,1,-1
 381 635 l 1,2,-1
 358 635 l 1,3,-1
 324 728 l 1,4,-1
 289 635 l 1,5,-1
 266 635 l 1,6,-1
 309 768 l 1,0,-1
324 580 m 0,7,8
 458 580 458 580 521 475 c 0,9,10
 567 398 567 398 567 284 c 128,-1,11
 567 170 567 170 521 93 c 0,12,13
 458 -12 458 -12 324 -12 c 0,14,15
 189 -12 189 -12 126 93 c 0,16,17
 80 170 80 170 80 284 c 128,-1,18
 80 398 80 398 126 475 c 0,19,20
 189 580 189 580 324 580 c 0,7,8
324 550 m 0,21,22
 207 550 207 550 152 459 c 0,23,24
 110 389 110 389 110 284 c 128,-1,25
 110 179 110 179 152 109 c 0,26,27
 207 18 207 18 324 18 c 0,28,29
 440 18 440 18 495 109 c 0,30,31
 537 179 537 179 537 284 c 128,-1,32
 537 389 537 389 495 459 c 0,33,34
 440 550 440 550 324 550 c 0,21,22
EndSplineSet
EndChar

StartChar: otilde
Encoding: 245 245 169
Width: 647
Flags: W
LayerCount: 2
Fore
SplineSet
417 741 m 1,0,-1
 442 724 l 1,1,2
 414 683 414 683 376 681 c 2,3,4
 376 681 376 681 373 681 c 0,5,6
 349 681 349 681 317 697 c 0,7,8
 287 710 287 710 275 710 c 2,9,10
 275 710 275 710 272 710 c 0,11,12
 250 708 250 708 230 680 c 1,13,-1
 206 697 l 1,14,15
 235 738 235 738 271 740 c 2,16,17
 271 740 271 740 274 740 c 0,18,19
 298 740 298 740 330 724 c 0,20,21
 360 711 360 711 372 711 c 2,22,23
 372 711 372 711 375 711 c 0,24,25
 397 713 397 713 417 741 c 1,0,-1
324 580 m 0,26,27
 458 580 458 580 521 475 c 0,28,29
 567 398 567 398 567 284 c 128,-1,30
 567 170 567 170 521 93 c 0,31,32
 458 -12 458 -12 324 -12 c 0,33,34
 189 -12 189 -12 126 93 c 0,35,36
 80 170 80 170 80 284 c 128,-1,37
 80 398 80 398 126 475 c 0,38,39
 189 580 189 580 324 580 c 0,26,27
324 550 m 0,40,41
 207 550 207 550 152 459 c 0,42,43
 110 389 110 389 110 284 c 128,-1,44
 110 179 110 179 152 109 c 0,45,46
 207 18 207 18 324 18 c 0,47,48
 440 18 440 18 495 109 c 0,49,50
 537 179 537 179 537 284 c 128,-1,51
 537 389 537 389 495 459 c 0,52,53
 440 550 440 550 324 550 c 0,40,41
EndSplineSet
EndChar

StartChar: odieresis
Encoding: 246 246 170
Width: 647
Flags: W
LayerCount: 2
Fore
SplineSet
277 729 m 128,-1,1
 288 729 288 729 295 721.5 c 128,-1,2
 302 714 302 714 302 704 c 128,-1,3
 302 694 302 694 295 686.5 c 128,-1,4
 288 679 288 679 277 679 c 128,-1,5
 266 679 266 679 259 686.5 c 128,-1,6
 252 694 252 694 252 704 c 128,-1,7
 252 714 252 714 259 721.5 c 128,-1,0
 266 729 266 729 277 729 c 128,-1,1
371 729 m 128,-1,9
 382 729 382 729 389 721.5 c 128,-1,10
 396 714 396 714 396 704 c 128,-1,11
 396 694 396 694 389 686.5 c 128,-1,12
 382 679 382 679 371 679 c 128,-1,13
 360 679 360 679 353 686.5 c 128,-1,14
 346 694 346 694 346 704 c 128,-1,15
 346 714 346 714 353 721.5 c 128,-1,8
 360 729 360 729 371 729 c 128,-1,9
324 580 m 0,16,17
 458 580 458 580 521 475 c 0,18,19
 567 398 567 398 567 284 c 128,-1,20
 567 170 567 170 521 93 c 0,21,22
 458 -12 458 -12 324 -12 c 0,23,24
 189 -12 189 -12 126 93 c 0,25,26
 80 170 80 170 80 284 c 128,-1,27
 80 398 80 398 126 475 c 0,28,29
 189 580 189 580 324 580 c 0,16,17
324 550 m 0,30,31
 207 550 207 550 152 459 c 0,32,33
 110 389 110 389 110 284 c 128,-1,34
 110 179 110 179 152 109 c 0,35,36
 207 18 207 18 324 18 c 0,37,38
 440 18 440 18 495 109 c 0,39,40
 537 179 537 179 537 284 c 128,-1,41
 537 389 537 389 495 459 c 0,42,43
 440 550 440 550 324 550 c 0,30,31
EndSplineSet
EndChar

StartChar: oslash
Encoding: 248 248 171
Width: 647
Flags: W
LayerCount: 2
Fore
SplineSet
324 580 m 0,0,1
 420 580 420 580 482 523 c 1,2,-1
 523 580 l 1,3,-1
 553 580 l 1,4,-1
 499 506 l 1,5,6
 515 486 515 486 521 475 c 0,7,8
 567 398 567 398 567 284 c 128,-1,9
 567 170 567 170 521 93 c 0,10,11
 458 -12 458 -12 324 -12 c 0,12,13
 227 -12 227 -12 165 45 c 1,14,-1
 125 -11 l 1,15,-1
 95 -11 l 1,16,-1
 148 63 l 1,17,18
 130 85 130 85 126 93 c 0,19,20
 80 170 80 170 80 284 c 128,-1,21
 80 398 80 398 126 475 c 0,22,23
 189 580 189 580 324 580 c 0,0,1
324 550 m 0,24,25
 207 550 207 550 152 459 c 0,26,27
 110 389 110 389 110 284 c 128,-1,28
 110 179 110 179 152 109 c 0,29,30
 156 102 156 102 166 88 c 1,31,-1
 464 499 l 1,32,33
 411 550 411 550 324 550 c 0,24,25
481 481 m 1,34,-1
 183 69 l 1,35,36
 236 18 236 18 324 18 c 0,37,38
 440 18 440 18 495 109 c 0,39,40
 537 179 537 179 537 284 c 128,-1,41
 537 389 537 389 495 459 c 0,42,43
 488 471 488 471 481 481 c 1,34,-1
EndSplineSet
EndChar

StartChar: ugrave
Encoding: 249 249 172
Width: 579
Flags: W
LayerCount: 2
Fore
SplineSet
228 788 m 1,0,-1
 258 788 l 1,1,-1
 301 655 l 1,2,-1
 278 655 l 1,3,-1
 228 788 l 1,0,-1
80 568 m 1,4,-1
 110 568 l 1,5,-1
 110 284 l 2,6,7
 110 146 110 146 150 85 c 0,8,9
 194 18 194 18 290 18 c 0,10,11
 381 18 381 18 425 85 c 128,-1,12
 469 152 469 152 469 284 c 2,13,-1
 469 568 l 1,14,-1
 499 568 l 1,15,-1
 499 284 l 1,16,-1
 499 0 l 1,17,-1
 471 0 l 1,18,-1
 469 116 l 1,19,20
 460 93 460 93 444 69 c 0,21,22
 391 -12 391 -12 284 -12 c 0,23,24
 176 -12 176 -12 123 69 c 0,25,26
 80 135 80 135 80 284 c 2,27,-1
 80 568 l 1,4,-1
EndSplineSet
EndChar

StartChar: uacute
Encoding: 250 250 173
Width: 579
Flags: W
LayerCount: 2
Fore
SplineSet
323 788 m 1,0,-1
 353 788 l 1,1,-1
 303 655 l 1,2,-1
 280 655 l 1,3,-1
 323 788 l 1,0,-1
80 568 m 1,4,-1
 110 568 l 1,5,-1
 110 284 l 2,6,7
 110 146 110 146 150 85 c 0,8,9
 194 18 194 18 290 18 c 0,10,11
 381 18 381 18 425 85 c 128,-1,12
 469 152 469 152 469 284 c 2,13,-1
 469 568 l 1,14,-1
 499 568 l 1,15,-1
 499 284 l 1,16,-1
 499 0 l 1,17,-1
 471 0 l 1,18,-1
 469 116 l 1,19,20
 460 93 460 93 444 69 c 0,21,22
 391 -12 391 -12 284 -12 c 0,23,24
 176 -12 176 -12 123 69 c 0,25,26
 80 135 80 135 80 284 c 2,27,-1
 80 568 l 1,4,-1
EndSplineSet
EndChar

StartChar: ucircumflex
Encoding: 251 251 174
Width: 579
Flags: W
LayerCount: 2
Fore
SplineSet
275 768 m 1,0,-1
 305 768 l 1,1,-1
 347 635 l 1,2,-1
 324 635 l 1,3,-1
 290 728 l 1,4,-1
 255 635 l 1,5,-1
 232 635 l 1,6,-1
 275 768 l 1,0,-1
80 568 m 1,7,-1
 110 568 l 1,8,-1
 110 284 l 2,9,10
 110 146 110 146 150 85 c 0,11,12
 194 18 194 18 290 18 c 0,13,14
 381 18 381 18 425 85 c 128,-1,15
 469 152 469 152 469 284 c 2,16,-1
 469 568 l 1,17,-1
 499 568 l 1,18,-1
 499 284 l 1,19,-1
 499 0 l 1,20,-1
 471 0 l 1,21,-1
 469 116 l 1,22,23
 460 93 460 93 444 69 c 0,24,25
 391 -12 391 -12 284 -12 c 0,26,27
 176 -12 176 -12 123 69 c 0,28,29
 80 135 80 135 80 284 c 2,30,-1
 80 568 l 1,7,-1
EndSplineSet
EndChar

StartChar: udieresis
Encoding: 252 252 175
Width: 579
Flags: W
LayerCount: 2
Fore
SplineSet
243 729 m 128,-1,1
 254 729 254 729 261 721.5 c 128,-1,2
 268 714 268 714 268 704 c 128,-1,3
 268 694 268 694 261 686.5 c 128,-1,4
 254 679 254 679 243 679 c 128,-1,5
 232 679 232 679 225 686.5 c 128,-1,6
 218 694 218 694 218 704 c 128,-1,7
 218 714 218 714 225 721.5 c 128,-1,0
 232 729 232 729 243 729 c 128,-1,1
337 729 m 128,-1,9
 348 729 348 729 355 721.5 c 128,-1,10
 362 714 362 714 362 704 c 128,-1,11
 362 694 362 694 355 686.5 c 128,-1,12
 348 679 348 679 337 679 c 128,-1,13
 326 679 326 679 319 686.5 c 128,-1,14
 312 694 312 694 312 704 c 128,-1,15
 312 714 312 714 319 721.5 c 128,-1,8
 326 729 326 729 337 729 c 128,-1,9
80 568 m 1,16,-1
 110 568 l 1,17,-1
 110 284 l 2,18,19
 110 146 110 146 150 85 c 0,20,21
 194 18 194 18 290 18 c 0,22,23
 381 18 381 18 425 85 c 128,-1,24
 469 152 469 152 469 284 c 2,25,-1
 469 568 l 1,26,-1
 499 568 l 1,27,-1
 499 284 l 1,28,-1
 499 0 l 1,29,-1
 471 0 l 1,30,-1
 469 116 l 1,31,32
 460 93 460 93 444 69 c 0,33,34
 391 -12 391 -12 284 -12 c 0,35,36
 176 -12 176 -12 123 69 c 0,37,38
 80 135 80 135 80 284 c 2,39,-1
 80 568 l 1,16,-1
EndSplineSet
EndChar

StartChar: yacute
Encoding: 253 253 176
Width: 485
Flags: W
LayerCount: 2
Fore
SplineSet
279 788 m 1,0,-1
 309 788 l 1,1,-1
 259 655 l 1,2,-1
 236 655 l 1,3,-1
 279 788 l 1,0,-1
20 568 m 1,4,-1
 52 568 l 1,5,-1
 60 545 l 1,6,-1
 243 23 l 1,7,-1
 313 223 l 1,8,-1
 433 568 l 1,9,-1
 465 568 l 1,10,-1
 341 213 l 1,11,-1
 214 -150 l 2,12,13
 185 -235 185 -235 138 -261 c 0,14,15
 115 -274 115 -274 89 -274 c 0,16,17
 65 -274 65 -274 31 -262 c 1,18,-1
 41 -233 l 1,19,20
 73 -243 73 -243 90 -243 c 0,21,22
 110 -243 110 -243 123 -235 c 0,23,24
 160 -215 160 -215 186 -140 c 2,25,-1
 227 -22 l 1,26,-1
 219 0 l 1,27,-1
 20 568 l 1,4,-1
EndSplineSet
EndChar

StartChar: thorn
Encoding: 254 254 177
Width: 627
Flags: W
LayerCount: 2
Fore
SplineSet
80 -260 m 1,0,-1
 80 568 l 1,1,-1
 108 568 l 1,2,-1
 110 325 l 1,3,4
 122 353 122 353 130 366 c 0,5,6
 194 472 194 472 328 472 c 0,7,8
 457 472 457 472 521 366 c 0,9,10
 568 288 568 288 568 175 c 0,11,12
 568 63 568 63 521 -15 c 0,13,14
 457 -121 457 -121 328 -121 c 0,15,16
 194 -121 194 -121 130 -15 c 0,17,18
 122 -2 122 -2 110 26 c 1,19,-1
 110 -260 l 1,20,-1
 80 -260 l 1,0,-1
324 -91 m 128,-1,22
 441 -91 441 -91 496 0 c 0,23,24
 538 70 538 70 538 175 c 0,25,26
 538 281 538 281 496 351 c 0,27,28
 441 442 441 442 324 442 c 128,-1,29
 207 442 207 442 152 351 c 0,30,31
 110 281 110 281 110 175 c 0,32,33
 110 70 110 70 152 0 c 0,34,21
 207 -91 207 -91 324 -91 c 128,-1,22
EndSplineSet
EndChar

StartChar: ydieresis
Encoding: 255 255 178
Width: 485
Flags: W
LayerCount: 2
Fore
SplineSet
198 729 m 128,-1,1
 208 729 208 729 215.5 721.5 c 128,-1,2
 223 714 223 714 223 704 c 128,-1,3
 223 694 223 694 215.5 686.5 c 128,-1,4
 208 679 208 679 198 679 c 128,-1,5
 188 679 188 679 180.5 686.5 c 128,-1,6
 173 694 173 694 173 704 c 128,-1,7
 173 714 173 714 180.5 721.5 c 128,-1,0
 188 729 188 729 198 729 c 128,-1,1
292 729 m 128,-1,9
 302 729 302 729 309.5 721.5 c 128,-1,10
 317 714 317 714 317 704 c 128,-1,11
 317 694 317 694 309.5 686.5 c 128,-1,12
 302 679 302 679 292 679 c 128,-1,13
 282 679 282 679 274.5 686.5 c 128,-1,14
 267 694 267 694 267 704 c 128,-1,15
 267 714 267 714 274.5 721.5 c 128,-1,8
 282 729 282 729 292 729 c 128,-1,9
20 568 m 1,16,-1
 52 568 l 1,17,-1
 60 545 l 1,18,-1
 243 23 l 1,19,-1
 313 223 l 1,20,-1
 433 568 l 1,21,-1
 465 568 l 1,22,-1
 341 213 l 1,23,-1
 214 -150 l 2,24,25
 185 -235 185 -235 138 -261 c 0,26,27
 115 -274 115 -274 89 -274 c 0,28,29
 65 -274 65 -274 31 -262 c 1,30,-1
 41 -233 l 1,31,32
 73 -243 73 -243 90 -243 c 0,33,34
 110 -243 110 -243 123 -235 c 0,35,36
 160 -215 160 -215 186 -140 c 2,37,-1
 227 -22 l 1,38,-1
 219 0 l 1,39,-1
 20 568 l 1,16,-1
EndSplineSet
EndChar

StartChar: brokenbar
Encoding: 166 166 179
Width: 190
Flags: W
LayerCount: 2
Fore
SplineSet
80 930 m 1,0,-1
 110 930 l 1,1,-1
 110 393 l 1,2,-1
 80 393 l 1,3,-1
 80 930 l 1,0,-1
80 186 m 1,4,-1
 110 186 l 1,5,-1
 110 -351 l 1,6,-1
 80 -351 l 1,7,-1
 80 186 l 1,4,-1
EndSplineSet
EndChar
